<svg width="146" height="146" viewBox="0 0 146 146" fill="none" xmlns="http://www.w3.org/2000/svg">
<path d="M84.0029 28.7771L84.2803 29.1296L84.6973 28.9626L101.79 22.1101L104.403 40.3396L104.467 40.7839L104.911 40.8474L123.14 43.4607L116.288 60.5535L116.121 60.9705L116.475 61.2478L130.954 72.6248L116.475 84.0017L116.121 84.2791L116.288 84.696L123.14 101.789L104.911 104.402L104.467 104.466L104.403 104.91L101.79 123.138L84.6973 116.287L84.2803 116.12L84.0029 116.473L72.626 130.953L61.249 116.473L60.9717 116.12L60.5547 116.287L43.4619 123.138L40.8486 104.91L40.7852 104.466L40.3408 104.402L22.1113 101.789L28.9639 84.696L29.1309 84.2791L28.7783 84.0017L14.2969 72.6248L28.7783 61.2478L29.1309 60.9705L28.9639 60.5535L22.1113 43.4607L40.3408 40.8474L40.7852 40.7839L40.8486 40.3396L43.4619 22.1101L60.5547 28.9626L60.9717 29.1296L61.249 28.7771L72.626 14.2957L84.0029 28.7771Z" stroke="#D48B00" stroke-width="1.19794"/>
<path opacity="0.24" d="M94.9631 33.2157L95.1398 33.628L95.5858 33.5747L113.87 31.3796L111.676 49.6643L111.622 50.1099L112.035 50.2862L128.966 57.5283L117.924 72.2654L117.655 72.6249L117.924 72.9843L128.966 87.7212L112.035 94.9629L111.622 95.1393L111.675 95.5853L113.869 113.869L95.5857 111.675L95.1401 111.622L94.9638 112.034L87.7216 128.965L72.9846 117.923L72.625 117.654L72.2657 117.924L57.5288 128.965L50.2871 112.035L50.1107 111.621L49.6647 111.675L31.381 113.869L33.5747 95.5852L33.6283 95.1396L33.2156 94.9633L16.2836 87.7209L27.3266 72.9841L27.5958 72.6246L27.3271 72.2654L16.2836 57.5281L33.2162 50.2868L33.6285 50.1102L33.5751 49.6642L31.38 31.3803L49.6647 33.5742L50.1104 33.6279L50.2867 33.2151L57.5291 16.2831L72.2658 27.3261L72.6254 27.5953L72.9845 27.3266L87.7219 16.2832L94.9631 33.2157Z" stroke="#D48B00" stroke-width="1.19794"/>
<path d="M79.3066 56.3031C80.1645 56.3038 81.0107 56.5092 81.7734 56.9017C82.536 57.2943 83.1944 57.8634 83.6934 58.5609L87.751 64.0424C88.4574 65.004 88.8252 66.1737 88.7959 67.3666C88.7665 68.5592 88.3424 69.7084 87.5898 70.6342L75.834 87.0638C75.4565 87.5553 74.9707 87.9534 74.415 88.2279C73.8595 88.5024 73.2486 88.6465 72.6289 88.6478C72.0197 88.6493 71.4177 88.5123 70.8691 88.2474C70.3204 87.9825 69.8386 87.5957 69.4609 87.1176L57.6104 70.5033C56.8902 69.591 56.4851 68.4699 56.4551 67.308C56.4252 66.1458 56.7727 65.0044 57.4453 64.056L61.5762 58.5345C62.0764 57.843 62.7338 57.2799 63.4941 56.892C64.2545 56.504 65.0965 56.3023 65.9502 56.3031H79.3066ZM79.0586 68.432L75.0156 83.5804L85.4521 68.9994C85.5828 68.8237 85.6925 68.6331 85.7793 68.432H79.0586ZM59.5049 68.432C59.5734 68.5858 59.6566 68.733 59.7539 68.8705L70.2373 83.5668L66.2021 68.432H59.5049ZM68.9893 68.432L72.6289 82.0677L76.2676 68.432H68.9893ZM65.9502 58.9984C65.5212 58.999 65.0983 59.1021 64.7168 59.2982C64.3354 59.4943 64.0059 59.7779 63.7559 60.1263L59.624 65.6429C59.6028 65.6711 59.5977 65.7073 59.5791 65.7367H66.2207L68.1455 58.9984H65.9502ZM70.9492 58.9984L69.0244 65.7367H76.2324L74.3076 58.9984H70.9492ZM77.1113 58.9984L79.0361 65.7367H85.6299C85.6084 65.7057 85.6026 65.6706 85.5811 65.641L81.5137 60.1449C81.2641 59.7918 80.9335 59.5035 80.5498 59.3041C80.166 59.1046 79.7392 58.9998 79.3066 58.9984H77.1113Z" fill="url(#paint0_linear_403_4525)"/>
<path d="M79.3066 56.3031C80.1645 56.3038 81.0107 56.5092 81.7734 56.9017C82.536 57.2943 83.1944 57.8634 83.6934 58.5609L87.751 64.0424C88.4574 65.004 88.8252 66.1737 88.7959 67.3666C88.7665 68.5592 88.3424 69.7084 87.5898 70.6342L75.834 87.0638C75.4565 87.5553 74.9707 87.9534 74.415 88.2279C73.8595 88.5024 73.2486 88.6465 72.6289 88.6478C72.0197 88.6493 71.4177 88.5123 70.8691 88.2474C70.3204 87.9825 69.8386 87.5957 69.4609 87.1176L57.6104 70.5033C56.8902 69.591 56.4851 68.4699 56.4551 67.308C56.4252 66.1458 56.7727 65.0044 57.4453 64.056L61.5762 58.5345C62.0764 57.843 62.7338 57.2799 63.4941 56.892C64.2545 56.504 65.0965 56.3023 65.9502 56.3031H79.3066ZM79.0586 68.432L75.0156 83.5804L85.4521 68.9994C85.5828 68.8237 85.6925 68.6331 85.7793 68.432H79.0586ZM59.5049 68.432C59.5734 68.5858 59.6566 68.733 59.7539 68.8705L70.2373 83.5668L66.2021 68.432H59.5049ZM68.9893 68.432L72.6289 82.0677L76.2676 68.432H68.9893ZM65.9502 58.9984C65.5212 58.999 65.0983 59.1021 64.7168 59.2982C64.3354 59.4943 64.0059 59.7779 63.7559 60.1263L59.624 65.6429C59.6028 65.6711 59.5977 65.7073 59.5791 65.7367H66.2207L68.1455 58.9984H65.9502ZM70.9492 58.9984L69.0244 65.7367H76.2324L74.3076 58.9984H70.9492ZM77.1113 58.9984L79.0361 65.7367H85.6299C85.6084 65.7057 85.6026 65.6706 85.5811 65.641L81.5137 60.1449C81.2641 59.7918 80.9335 59.5035 80.5498 59.3041C80.166 59.1046 79.7392 58.9998 79.3066 58.9984H77.1113Z" stroke="url(#paint1_linear_403_4525)"/>
<defs>
<linearGradient id="paint0_linear_403_4525" x1="57.9865" y1="61.4347" x2="87.9766" y2="70.6028" gradientUnits="userSpaceOnUse">
<stop stop-color="#D48B00"/>
<stop offset="0.31808" stop-color="#6E4800"/>
<stop offset="0.667704" stop-color="#D48B00"/>
<stop offset="0.875589" stop-color="#D48B00"/>
<stop offset="1" stop-color="#6E4800"/>
</linearGradient>
<linearGradient id="paint1_linear_403_4525" x1="56.4531" y1="59.7686" x2="95.5149" y2="77.7575" gradientUnits="userSpaceOnUse">
<stop stop-color="#D48B00"/>
<stop offset="0.322115" stop-color="#6E4800"/>
<stop offset="0.615385" stop-color="#D48B00"/>
<stop offset="0.783654" stop-color="#D48B00"/>
<stop offset="0.995192" stop-color="#6E4800"/>
</linearGradient>
</defs>
</svg>
