<svg width="22" height="22" viewBox="0 0 22 22" fill="none" xmlns="http://www.w3.org/2000/svg">
<path d="M21.2884 5.26442L18.528 1.53542C18.1886 1.06089 17.7409 0.674088 17.2221 0.40707C16.7033 0.140052 16.1283 0.000507577 15.5448 1.61552e-06H6.45953C5.87888 -0.00054334 5.30639 0.136789 4.78919 0.400698C4.27198 0.664606 3.82485 1.04755 3.48459 1.518L0.674659 5.27358C0.217153 5.91863 -0.0191176 6.69448 0.00120996 7.48501C0.0215375 8.27554 0.29737 9.03822 0.787423 9.65891L8.84774 20.9596C9.10461 21.2848 9.43201 21.5474 9.80522 21.7277C10.1784 21.9079 10.5877 22.001 11.0022 22C11.4237 21.9992 11.8395 21.9016 12.2175 21.7149C12.5954 21.5282 12.9255 21.2572 13.1823 20.9229L21.1784 9.74783C21.6904 9.11807 21.979 8.33625 21.9989 7.5249C22.0188 6.71355 21.7689 5.91853 21.2884 5.26442ZM17.0456 2.61342L19.8124 6.35158C19.8271 6.37175 19.8308 6.39558 19.8454 6.41667H15.3605L14.0514 1.83333H15.5448C15.8391 1.83425 16.1288 1.90553 16.3899 2.04124C16.651 2.17694 16.8758 2.37313 17.0456 2.61342ZM11.0022 17.5248L8.52687 8.25H13.4775L11.0022 17.5248ZM8.55071 6.41667L9.85987 1.83333H12.1445L13.4536 6.41667H8.55071ZM4.96702 2.60058C5.13713 2.36352 5.36118 2.17032 5.6207 2.03691C5.88021 1.9035 6.16773 1.83373 6.45953 1.83333H7.95297L6.64381 6.41667H2.12592C2.13876 6.3965 2.14242 6.37175 2.15709 6.3525L4.96702 2.60058ZM2.2451 8.54791C2.17891 8.45443 2.1221 8.35464 2.0755 8.25H6.63097L9.37581 18.5442L2.2451 8.54791ZM12.6258 18.5533L15.3761 8.25H19.9472C19.8881 8.38683 19.8134 8.51633 19.7244 8.63591L12.6258 18.5533Z" fill="#D48B00"/>
</svg>
