<svg width="17" height="12" viewBox="0 0 17 12" fill="none" xmlns="http://www.w3.org/2000/svg">
<path fill-rule="evenodd" clip-rule="evenodd" d="M2.13998 0.0498273C1.43041 0.187815 0.807085 0.593988 0.411238 1.17633C0.249171 1.41473 0.153377 1.62731 0.0558578 1.96496C0.00560568 2.13889 0.000530715 2.50969 0.000530715 6.00276C0.000530715 9.49582 0.00560568 9.86662 0.0558578 10.0406C0.153543 10.3787 0.24927 10.5909 0.411669 10.8292C0.827982 11.44 1.49914 11.8588 2.23968 11.9699C2.42437 11.9976 4.06524 12.0046 8.62465 11.9973C15.3288 11.9865 14.7916 12.0014 15.3157 11.8127C16.0909 11.5336 16.8135 10.671 16.9201 9.89746C16.9324 9.8086 16.9554 9.72819 16.9712 9.71877C16.9872 9.70923 17 8.04435 17 5.96707C17 3.84542 16.9875 2.23994 16.971 2.24974C16.9551 2.25922 16.9321 2.19487 16.92 2.10671C16.8894 1.88487 16.7352 1.47918 16.5994 1.26289C16.1913 0.613204 15.5612 0.191422 14.783 0.0470503C14.4353 -0.0174268 2.47237 -0.0148094 2.13998 0.0498273ZM2.32632 1.31399C2.12017 1.36088 1.81919 1.53146 1.67268 1.68442C1.59822 1.76217 1.49002 1.92177 1.4323 2.03901L1.32732 2.25223L1.30599 3.99184L3.05214 3.99056L3.16243 3.7647C3.29398 3.4953 3.65105 3.13017 3.93114 2.97865C4.77746 2.52086 5.63563 2.67095 6.63593 3.4517L6.86958 3.63408L7.06714 3.47532C8.05576 2.68091 8.95114 2.51831 9.80218 2.97865C10.0799 3.1289 10.4282 3.48508 10.5657 3.75962L10.6812 3.99021L15.6448 3.99184L15.6235 2.25223L15.5185 2.03901C15.3724 1.74229 15.1844 1.55744 14.8825 1.41387L14.6318 1.29465L8.54345 1.28967C4.94245 1.2867 2.40248 1.29666 2.32632 1.31399ZM0 6.00276C0 8.06554 0.00394719 8.90943 0.00882314 7.87802C0.0136659 6.84664 0.0136659 5.1589 0.00882314 4.12749C0.00394719 3.09612 0 3.93997 0 6.00276ZM4.63198 4.07556C4.40421 4.18479 4.29567 4.34004 4.27362 4.58819C4.25985 4.74274 4.2705 4.79793 4.33714 4.9175C4.49698 5.20429 4.82407 5.32986 5.14084 5.226C5.3112 5.17014 5.66187 4.95108 5.88248 4.76272L6.02604 4.64012L5.82742 4.46759C5.50345 4.18622 5.13547 3.9964 4.90786 3.99324C4.85216 3.99247 4.72801 4.0295 4.63198 4.07556ZM8.59924 4.03582C8.40046 4.10678 8.1208 4.28093 7.9059 4.46759L7.70728 4.64012L7.85084 4.76272C8.07145 4.95108 8.42212 5.17014 8.59248 5.226C8.90928 5.32986 9.23663 5.2042 9.39595 4.9175C9.54975 4.64066 9.44461 4.27665 9.16203 4.10777C8.98156 3.99988 8.77418 3.97339 8.59924 4.03582ZM1.32732 9.75328L1.4323 9.9665C1.57838 10.2633 1.76642 10.4481 2.06833 10.5916L2.31896 10.7109H14.6318L14.8824 10.5916C15.3345 10.3766 15.5764 10.0276 15.6381 9.5008C15.6629 9.2894 15.6924 9.18591 15.753 9.09775C15.9094 8.87026 16.2084 8.76739 16.4963 8.84198C16.6669 8.88619 16.8842 9.08256 16.9294 9.23335C16.9503 9.30325 16.9609 8.84246 16.961 7.85408C16.9611 6.99676 16.9493 6.40778 16.9331 6.45968C16.8573 6.70275 16.5757 6.8965 16.2982 6.8965C16.0977 6.8965 15.8813 6.78293 15.7561 6.6121L15.6566 6.47625L15.6349 5.26861L10.6812 5.27222L10.5679 5.50181C10.3565 5.93036 9.90892 6.29198 9.37097 6.46878C9.11765 6.55202 8.53062 6.55269 8.28251 6.46996C8.18555 6.43766 8.09818 6.41895 8.08833 6.4284C8.05579 6.45971 8.35571 6.93129 8.5749 7.19347C8.69348 7.33529 8.90991 7.54331 9.05586 7.65573C9.40165 7.92207 9.51808 8.1109 9.49194 8.36303C9.45582 8.71162 9.15975 8.95555 8.80128 8.93199C8.56292 8.91635 8.35206 8.78702 7.93598 8.40127C7.57788 8.06931 7.27538 7.68934 7.04156 7.27787L6.86832 6.97301L6.66127 7.32217C6.39472 7.77173 6.15955 8.0651 5.79388 8.4043C5.39124 8.77786 5.17132 8.91444 4.94335 8.93263C4.48594 8.96915 4.13722 8.5572 4.26211 8.12788C4.30874 7.96768 4.39114 7.87693 4.72124 7.62244C4.85233 7.52138 5.05284 7.32517 5.16681 7.18648C5.37061 6.93841 5.67666 6.45888 5.64847 6.43178C5.64054 6.42416 5.55317 6.44264 5.45429 6.47286C5.32573 6.51212 5.16585 6.52735 4.89306 6.52623C4.56727 6.52492 4.47897 6.51283 4.28798 6.44334C3.78247 6.25942 3.36941 5.91175 3.16369 5.49706L3.05214 5.27222L1.30861 5.26861L1.32732 9.75328Z" fill="#8D0007"/>
</svg>
