<svg width="14" height="14" viewBox="0 0 14 14" fill="none" xmlns="http://www.w3.org/2000/svg">
<path fill-rule="evenodd" clip-rule="evenodd" d="M11.0417 0.00912376C10.9953 0.0172779 10.8664 0.0402914 10.7552 0.0602724C10.4632 0.112701 10.1061 0.259678 9.84043 0.436777C9.67282 0.548509 8.40928 1.79127 5.24469 4.95682C2.84416 7.35811 0.869366 9.35692 0.856222 9.39867C0.843077 9.44041 0.640418 10.3729 0.405842 11.4708C0.090849 12.9452 -0.0148115 13.4981 0.0016358 13.5859C0.0305534 13.74 0.19415 13.9244 0.34649 13.9747C0.412616 13.9965 0.529399 14.0061 0.606007 13.996C0.709443 13.9823 4.00288 13.282 4.60429 13.1457C4.69663 13.1248 13.1178 4.73737 13.3986 4.38664C13.7298 3.97297 13.9142 3.53208 13.98 2.99704C14.1431 1.67088 13.2923 0.420435 12.0027 0.0906988C11.7473 0.0253984 11.2088 -0.0203254 11.0417 0.00912376ZM10.9541 1.11778C10.5651 1.20239 10.4326 1.29795 9.71037 2.01457L9.0363 2.68347L11.3281 4.98082L11.9763 4.31912C12.7021 3.57807 12.824 3.39507 12.9019 2.92935C13.0392 2.10841 12.4779 1.29104 11.6574 1.11721C11.3815 1.05878 11.2248 1.05888 10.9541 1.11778ZM5.05423 6.66946L1.84744 9.87888L1.5428 11.3102C1.37526 12.0974 1.2424 12.7458 1.24755 12.7509C1.25271 12.7561 1.89257 12.6238 2.6694 12.4569C3.44627 12.2901 4.09685 12.1535 4.11518 12.1534C4.15933 12.1532 10.5361 5.77847 10.5361 5.7345C10.5361 5.70114 8.31083 3.46004 8.27773 3.46004C8.2685 3.46004 6.81793 4.90426 5.05423 6.66946Z" fill="#8D0007"/>
</svg>
