<svg width="29" height="29" viewBox="0 0 29 29" fill="none" xmlns="http://www.w3.org/2000/svg">
<circle cx="14.5" cy="14.5" r="14" fill="white" stroke="#D48B00"/>
<path fill-rule="evenodd" clip-rule="evenodd" d="M17.4585 8.03481C17.3579 8.0894 7.09736 18.3505 7.04501 18.4489C6.9904 18.5516 6.98455 18.7564 7.03259 18.8849C7.07586 19.0007 10.9559 22.8881 11.0933 22.9533C11.2227 23.0147 11.4378 23.0157 11.5512 22.9554C11.6569 22.8991 21.9151 12.6353 21.9657 12.5351C22.0163 12.4349 22.0099 12.213 21.9529 12.0928C21.8877 11.9554 18.0006 8.07507 17.8848 8.03181C17.7679 7.98812 17.5417 7.98974 17.4585 8.03481ZM12.948 13.9638L8.24352 18.6688L11.3309 21.7565L12.3332 20.7557L11.527 19.9467C11.0837 19.5017 10.7055 19.0967 10.6866 19.0466C10.5335 18.6405 10.8566 18.2646 11.2835 18.352C11.3975 18.3754 11.5149 18.4801 12.237 19.2027L13.0605 20.0268L14.0465 19.0423L13.5323 18.5241C13.0981 18.0866 13.0145 17.9865 12.995 17.8815C12.925 17.504 13.2675 17.1822 13.6351 17.2801C13.7488 17.3104 13.859 17.4025 14.2745 17.8145L14.7765 18.3122L15.743 17.344L14.9306 16.527C14.2179 15.8102 14.1135 15.6923 14.0797 15.5658C13.9656 15.1387 14.4087 14.7724 14.8007 14.9699C14.8576 14.9986 15.2609 15.3768 15.697 15.8104L16.4897 16.5988L17.4568 15.6301L16.9511 15.1203C16.5272 14.6929 16.4418 14.5907 16.4227 14.4875C16.3742 14.2267 16.4734 14.0006 16.6787 13.9031C16.8063 13.8426 17.0266 13.8345 17.1292 13.8865C17.1681 13.9062 17.4218 14.1425 17.6931 14.4117L18.1863 14.9011L19.1719 13.9154L18.359 13.0989C17.912 12.6498 17.5301 12.2506 17.5105 12.2117C17.4616 12.1151 17.4655 11.9303 17.5193 11.8017C17.612 11.5797 17.8922 11.4505 18.1295 11.5202C18.2447 11.5541 18.3987 11.6919 19.0837 12.3737L19.9004 13.1868L20.7563 12.3308L19.2207 10.7949C18.3761 9.95009 17.6778 9.2589 17.6688 9.2589C17.6598 9.2589 15.5354 11.3761 12.948 13.9638Z" fill="#D48B00"/>
</svg>
