<svg width="146" height="146" viewBox="0 0 146 146" fill="none" xmlns="http://www.w3.org/2000/svg">
<path d="M83.6963 28.7771L83.9736 29.1296L84.3906 28.9626L101.483 22.1101L104.097 40.3396L104.16 40.7839L104.604 40.8474L122.833 43.4607L115.981 60.5535L115.814 60.9705L116.168 61.2478L130.647 72.6248L116.168 84.0017L115.814 84.2791L115.981 84.696L122.833 101.789L104.604 104.402L104.16 104.466L104.097 104.91L101.483 123.138L84.3906 116.287L83.9736 116.12L83.6963 116.473L72.3193 130.953L60.9424 116.473L60.665 116.12L60.248 116.287L43.1553 123.138L40.542 104.91L40.4785 104.466L40.0342 104.402L21.8047 101.789L28.6572 84.696L28.8242 84.2791L28.4717 84.0017L13.9902 72.6248L28.4717 61.2478L28.8242 60.9705L28.6572 60.5535L21.8047 43.4607L40.0342 40.8474L40.4785 40.7839L40.542 40.3396L43.1553 22.1101L60.248 28.9626L60.665 29.1296L60.9424 28.7771L72.3193 14.2957L83.6963 28.7771Z" stroke="#D48B00" stroke-width="1.19794"/>
<path opacity="0.24" d="M94.9631 33.2157L95.1398 33.628L95.5858 33.5747L113.87 31.3796L111.676 49.6643L111.622 50.1099L112.035 50.2862L128.966 57.5283L117.924 72.2654L117.655 72.6249L117.924 72.9843L128.966 87.7212L112.035 94.9629L111.622 95.1393L111.675 95.5853L113.869 113.869L95.5857 111.675L95.1401 111.622L94.9638 112.034L87.7216 128.965L72.9846 117.923L72.625 117.654L72.2657 117.924L57.5288 128.965L50.2871 112.035L50.1107 111.621L49.6647 111.675L31.381 113.869L33.5747 95.5852L33.6283 95.1396L33.2156 94.9633L16.2836 87.7209L27.3266 72.9841L27.5958 72.6246L27.3271 72.2654L16.2836 57.5281L33.2162 50.2868L33.6285 50.1102L33.5751 49.6642L31.38 31.3803L49.6647 33.5742L50.1104 33.6279L50.2867 33.2151L57.5291 16.2831L72.2658 27.3261L72.6254 27.5953L72.9845 27.3266L87.7219 16.2832L94.9631 33.2157Z" stroke="#D48B00" stroke-width="1.19794"/>
<mask id="path-3-outside-1_403_4533" maskUnits="userSpaceOnUse" x="49.6934" y="56" width="46" height="34" fill="black">
<rect fill="white" x="49.6934" y="56" width="46" height="34"/>
<path fill-rule="evenodd" clip-rule="evenodd" d="M72.2385 57.1542C72.1169 57.2886 72.0962 57.5426 72.0962 58.903C72.0962 60.6918 72.1249 60.7791 72.7129 60.7791C73.266 60.7791 73.2996 60.6698 73.2996 58.8731C73.2996 57.4404 73.2839 57.2674 73.1424 57.1393C72.93 56.947 72.4183 56.9555 72.2385 57.1542ZM68.3705 57.4981C68.1036 57.793 68.1989 58.1334 68.8837 59.3315C69.2442 59.9621 69.5984 60.5459 69.6707 60.6286C69.8486 60.8323 70.3919 60.8282 70.5787 60.6218C70.8474 60.325 70.7513 59.9829 70.0627 58.7859C69.7007 58.1566 69.3465 57.574 69.2758 57.4913C69.1015 57.2875 68.5574 57.2915 68.3705 57.4981ZM76.1201 57.4913C76.0493 57.574 75.6952 58.1566 75.3331 58.7859C74.6338 60.0015 74.5347 60.3677 74.8321 60.6368C75.0409 60.8258 75.557 60.8211 75.7252 60.6286C75.7975 60.5459 76.1516 59.9621 76.5121 59.3315C77.2076 58.1148 77.3058 57.7504 77.0104 57.4831C76.8013 57.2939 76.2848 57.2986 76.1201 57.4913ZM55.4934 62.2742C54.5916 62.5963 53.8336 63.3063 53.5289 64.1143C53.3481 64.5938 50.6934 80.2859 50.6934 80.8753C50.6934 82.0964 51.5814 83.33 52.8206 83.8303L53.315 84.03H81.3511L81.7232 83.7721C81.9914 83.5863 82.1955 83.5142 82.4538 83.5142C82.7122 83.5142 82.9163 83.5863 83.1845 83.7721L83.5566 84.03H86.5084L86.8805 83.7721C87.3859 83.4219 87.8363 83.4219 88.3425 83.7721L88.7152 84.03L90.398 84.0224C91.9153 84.0156 92.1285 83.9964 92.5661 83.8263C93.5134 83.4579 94.2168 82.7467 94.4901 81.8811C94.5647 81.6447 94.6623 81.3842 94.707 81.3021C94.804 81.1243 94.8175 80.1769 94.7222 80.2357C94.6859 80.2582 94.0675 76.7435 93.3482 72.4251C92.5857 67.8483 91.9687 64.3829 91.8688 64.1162C91.6351 63.4924 91.0505 62.8503 90.3904 62.4925L89.846 62.1973L61.4069 62.1524L61.0644 62.3897C60.6016 62.7104 60.1256 62.7107 59.6637 62.3907L59.3226 62.1543L57.5651 62.1581C56.3454 62.1607 55.7115 62.1962 55.4934 62.2742ZM55.7673 63.5393C55.3436 63.7084 54.9673 64.0768 54.7769 64.5089C54.508 65.1191 51.9229 80.6997 52.0131 81.1665C52.1121 81.6785 52.5699 82.2743 53.0548 82.5221L53.4824 82.7406H73.1707L73.5145 82.5551C74.2167 82.1763 74.5889 81.5859 74.5889 80.8515C74.5889 80.5878 74.1635 77.8213 73.6434 74.7038C73.1234 71.5863 72.6979 68.8991 72.6979 68.7323C72.6979 67.953 73.6877 67.8283 73.8997 68.5809C73.9494 68.7574 74.4181 71.474 74.941 74.6179C76.0096 81.041 76.0321 81.3031 75.5935 82.1998C75.4665 82.4594 75.3625 82.697 75.3625 82.7277C75.3625 82.7584 76.5798 82.7836 78.0675 82.7836H80.7726L81.3124 82.5079C81.7679 82.2751 81.9461 82.232 82.4538 82.232C82.9616 82.232 83.1398 82.2751 83.5953 82.5079C84.1009 82.7662 84.1919 82.7836 85.0325 82.7836C85.8731 82.7836 85.9641 82.7662 86.4697 82.5079C86.9252 82.2751 87.1034 82.232 87.6112 82.232C88.1232 82.232 88.2961 82.2746 88.7716 82.5176L89.3303 82.8031L90.6287 82.7684C91.8062 82.7369 91.9664 82.7136 92.3478 82.5186C92.8257 82.2744 93.2844 81.6751 93.3827 81.1665C93.4274 80.9353 93.0886 78.6995 92.1298 72.8988C90.6704 64.0687 90.7116 64.2444 89.989 63.7445L89.6163 63.4867L81.2001 63.464C76.5711 63.4514 72.7839 63.4589 72.7839 63.4805C72.7839 63.5021 72.8638 63.6553 72.9615 63.8209C73.1671 64.1693 73.4688 65.5351 73.4704 66.1249C73.4716 66.5688 73.2745 66.7959 72.8881 66.7959C72.4021 66.7959 72.2759 66.5778 72.0919 65.4206C71.9757 64.6899 71.7921 64.2762 71.438 63.9477C70.8769 63.4273 71.0456 63.4437 66.2626 63.4437H61.8816L61.4253 63.6729C61.0601 63.8563 60.848 63.9021 60.3633 63.9021C59.8786 63.9021 59.6666 63.8563 59.3014 63.6729C58.8599 63.4512 58.7983 63.4438 57.4123 63.4491C56.6244 63.4521 55.884 63.4927 55.7673 63.5393ZM50.7209 80.8066C50.7209 81.1139 50.7365 81.2397 50.7555 81.086C50.7746 80.9323 50.7746 80.681 50.7555 80.5273C50.7365 80.3736 50.7209 80.4994 50.7209 80.8066ZM69.6707 85.5127C69.5984 85.5954 69.2442 86.1792 68.8837 86.8099C68.1883 88.0265 68.09 88.3909 68.3855 88.6582C68.5945 88.8474 69.111 88.8427 69.2758 88.6501C69.3465 88.5674 69.7007 87.9848 70.0627 87.3554C70.762 86.1398 70.8611 85.7737 70.5637 85.5045C70.3549 85.3155 69.8388 85.3202 69.6707 85.5127ZM72.2385 85.5195C72.1169 85.6538 72.0962 85.9078 72.0962 87.2683C72.0962 89.0571 72.1249 89.1443 72.7129 89.1443C73.266 89.1443 73.2996 89.0351 73.2996 87.2383C73.2996 85.8056 73.2839 85.6326 73.1424 85.5045C72.93 85.3123 72.4183 85.3208 72.2385 85.5195ZM74.8171 85.5195C74.5485 85.8164 74.6445 86.1585 75.3331 87.3554C76.1504 88.7761 76.1713 88.8005 76.5659 88.8005C76.9503 88.8005 77.1676 88.5914 77.1676 88.2214C77.1676 87.9737 76.0629 85.8993 75.7252 85.5127C75.5473 85.3091 75.0039 85.3131 74.8171 85.5195Z"/>
</mask>
<path fill-rule="evenodd" clip-rule="evenodd" d="M72.2385 57.1542C72.1169 57.2886 72.0962 57.5426 72.0962 58.903C72.0962 60.6918 72.1249 60.7791 72.7129 60.7791C73.266 60.7791 73.2996 60.6698 73.2996 58.8731C73.2996 57.4404 73.2839 57.2674 73.1424 57.1393C72.93 56.947 72.4183 56.9555 72.2385 57.1542ZM68.3705 57.4981C68.1036 57.793 68.1989 58.1334 68.8837 59.3315C69.2442 59.9621 69.5984 60.5459 69.6707 60.6286C69.8486 60.8323 70.3919 60.8282 70.5787 60.6218C70.8474 60.325 70.7513 59.9829 70.0627 58.7859C69.7007 58.1566 69.3465 57.574 69.2758 57.4913C69.1015 57.2875 68.5574 57.2915 68.3705 57.4981ZM76.1201 57.4913C76.0493 57.574 75.6952 58.1566 75.3331 58.7859C74.6338 60.0015 74.5347 60.3677 74.8321 60.6368C75.0409 60.8258 75.557 60.8211 75.7252 60.6286C75.7975 60.5459 76.1516 59.9621 76.5121 59.3315C77.2076 58.1148 77.3058 57.7504 77.0104 57.4831C76.8013 57.2939 76.2848 57.2986 76.1201 57.4913ZM55.4934 62.2742C54.5916 62.5963 53.8336 63.3063 53.5289 64.1143C53.3481 64.5938 50.6934 80.2859 50.6934 80.8753C50.6934 82.0964 51.5814 83.33 52.8206 83.8303L53.315 84.03H81.3511L81.7232 83.7721C81.9914 83.5863 82.1955 83.5142 82.4538 83.5142C82.7122 83.5142 82.9163 83.5863 83.1845 83.7721L83.5566 84.03H86.5084L86.8805 83.7721C87.3859 83.4219 87.8363 83.4219 88.3425 83.7721L88.7152 84.03L90.398 84.0224C91.9153 84.0156 92.1285 83.9964 92.5661 83.8263C93.5134 83.4579 94.2168 82.7467 94.4901 81.8811C94.5647 81.6447 94.6623 81.3842 94.707 81.3021C94.804 81.1243 94.8175 80.1769 94.7222 80.2357C94.6859 80.2582 94.0675 76.7435 93.3482 72.4251C92.5857 67.8483 91.9687 64.3829 91.8688 64.1162C91.6351 63.4924 91.0505 62.8503 90.3904 62.4925L89.846 62.1973L61.4069 62.1524L61.0644 62.3897C60.6016 62.7104 60.1256 62.7107 59.6637 62.3907L59.3226 62.1543L57.5651 62.1581C56.3454 62.1607 55.7115 62.1962 55.4934 62.2742ZM55.7673 63.5393C55.3436 63.7084 54.9673 64.0768 54.7769 64.5089C54.508 65.1191 51.9229 80.6997 52.0131 81.1665C52.1121 81.6785 52.5699 82.2743 53.0548 82.5221L53.4824 82.7406H73.1707L73.5145 82.5551C74.2167 82.1763 74.5889 81.5859 74.5889 80.8515C74.5889 80.5878 74.1635 77.8213 73.6434 74.7038C73.1234 71.5863 72.6979 68.8991 72.6979 68.7323C72.6979 67.953 73.6877 67.8283 73.8997 68.5809C73.9494 68.7574 74.4181 71.474 74.941 74.6179C76.0096 81.041 76.0321 81.3031 75.5935 82.1998C75.4665 82.4594 75.3625 82.697 75.3625 82.7277C75.3625 82.7584 76.5798 82.7836 78.0675 82.7836H80.7726L81.3124 82.5079C81.7679 82.2751 81.9461 82.232 82.4538 82.232C82.9616 82.232 83.1398 82.2751 83.5953 82.5079C84.1009 82.7662 84.1919 82.7836 85.0325 82.7836C85.8731 82.7836 85.9641 82.7662 86.4697 82.5079C86.9252 82.2751 87.1034 82.232 87.6112 82.232C88.1232 82.232 88.2961 82.2746 88.7716 82.5176L89.3303 82.8031L90.6287 82.7684C91.8062 82.7369 91.9664 82.7136 92.3478 82.5186C92.8257 82.2744 93.2844 81.6751 93.3827 81.1665C93.4274 80.9353 93.0886 78.6995 92.1298 72.8988C90.6704 64.0687 90.7116 64.2444 89.989 63.7445L89.6163 63.4867L81.2001 63.464C76.5711 63.4514 72.7839 63.4589 72.7839 63.4805C72.7839 63.5021 72.8638 63.6553 72.9615 63.8209C73.1671 64.1693 73.4688 65.5351 73.4704 66.1249C73.4716 66.5688 73.2745 66.7959 72.8881 66.7959C72.4021 66.7959 72.2759 66.5778 72.0919 65.4206C71.9757 64.6899 71.7921 64.2762 71.438 63.9477C70.8769 63.4273 71.0456 63.4437 66.2626 63.4437H61.8816L61.4253 63.6729C61.0601 63.8563 60.848 63.9021 60.3633 63.9021C59.8786 63.9021 59.6666 63.8563 59.3014 63.6729C58.8599 63.4512 58.7983 63.4438 57.4123 63.4491C56.6244 63.4521 55.884 63.4927 55.7673 63.5393ZM50.7209 80.8066C50.7209 81.1139 50.7365 81.2397 50.7555 81.086C50.7746 80.9323 50.7746 80.681 50.7555 80.5273C50.7365 80.3736 50.7209 80.4994 50.7209 80.8066ZM69.6707 85.5127C69.5984 85.5954 69.2442 86.1792 68.8837 86.8099C68.1883 88.0265 68.09 88.3909 68.3855 88.6582C68.5945 88.8474 69.111 88.8427 69.2758 88.6501C69.3465 88.5674 69.7007 87.9848 70.0627 87.3554C70.762 86.1398 70.8611 85.7737 70.5637 85.5045C70.3549 85.3155 69.8388 85.3202 69.6707 85.5127ZM72.2385 85.5195C72.1169 85.6538 72.0962 85.9078 72.0962 87.2683C72.0962 89.0571 72.1249 89.1443 72.7129 89.1443C73.266 89.1443 73.2996 89.0351 73.2996 87.2383C73.2996 85.8056 73.2839 85.6326 73.1424 85.5045C72.93 85.3123 72.4183 85.3208 72.2385 85.5195ZM74.8171 85.5195C74.5485 85.8164 74.6445 86.1585 75.3331 87.3554C76.1504 88.7761 76.1713 88.8005 76.5659 88.8005C76.9503 88.8005 77.1676 88.5914 77.1676 88.2214C77.1676 87.9737 76.0629 85.8993 75.7252 85.5127C75.5473 85.3091 75.0039 85.3131 74.8171 85.5195Z" fill="url(#paint0_linear_403_4533)"/>
<path fill-rule="evenodd" clip-rule="evenodd" d="M72.2385 57.1542C72.1169 57.2886 72.0962 57.5426 72.0962 58.903C72.0962 60.6918 72.1249 60.7791 72.7129 60.7791C73.266 60.7791 73.2996 60.6698 73.2996 58.8731C73.2996 57.4404 73.2839 57.2674 73.1424 57.1393C72.93 56.947 72.4183 56.9555 72.2385 57.1542ZM68.3705 57.4981C68.1036 57.793 68.1989 58.1334 68.8837 59.3315C69.2442 59.9621 69.5984 60.5459 69.6707 60.6286C69.8486 60.8323 70.3919 60.8282 70.5787 60.6218C70.8474 60.325 70.7513 59.9829 70.0627 58.7859C69.7007 58.1566 69.3465 57.574 69.2758 57.4913C69.1015 57.2875 68.5574 57.2915 68.3705 57.4981ZM76.1201 57.4913C76.0493 57.574 75.6952 58.1566 75.3331 58.7859C74.6338 60.0015 74.5347 60.3677 74.8321 60.6368C75.0409 60.8258 75.557 60.8211 75.7252 60.6286C75.7975 60.5459 76.1516 59.9621 76.5121 59.3315C77.2076 58.1148 77.3058 57.7504 77.0104 57.4831C76.8013 57.2939 76.2848 57.2986 76.1201 57.4913ZM55.4934 62.2742C54.5916 62.5963 53.8336 63.3063 53.5289 64.1143C53.3481 64.5938 50.6934 80.2859 50.6934 80.8753C50.6934 82.0964 51.5814 83.33 52.8206 83.8303L53.315 84.03H81.3511L81.7232 83.7721C81.9914 83.5863 82.1955 83.5142 82.4538 83.5142C82.7122 83.5142 82.9163 83.5863 83.1845 83.7721L83.5566 84.03H86.5084L86.8805 83.7721C87.3859 83.4219 87.8363 83.4219 88.3425 83.7721L88.7152 84.03L90.398 84.0224C91.9153 84.0156 92.1285 83.9964 92.5661 83.8263C93.5134 83.4579 94.2168 82.7467 94.4901 81.8811C94.5647 81.6447 94.6623 81.3842 94.707 81.3021C94.804 81.1243 94.8175 80.1769 94.7222 80.2357C94.6859 80.2582 94.0675 76.7435 93.3482 72.4251C92.5857 67.8483 91.9687 64.3829 91.8688 64.1162C91.6351 63.4924 91.0505 62.8503 90.3904 62.4925L89.846 62.1973L61.4069 62.1524L61.0644 62.3897C60.6016 62.7104 60.1256 62.7107 59.6637 62.3907L59.3226 62.1543L57.5651 62.1581C56.3454 62.1607 55.7115 62.1962 55.4934 62.2742ZM55.7673 63.5393C55.3436 63.7084 54.9673 64.0768 54.7769 64.5089C54.508 65.1191 51.9229 80.6997 52.0131 81.1665C52.1121 81.6785 52.5699 82.2743 53.0548 82.5221L53.4824 82.7406H73.1707L73.5145 82.5551C74.2167 82.1763 74.5889 81.5859 74.5889 80.8515C74.5889 80.5878 74.1635 77.8213 73.6434 74.7038C73.1234 71.5863 72.6979 68.8991 72.6979 68.7323C72.6979 67.953 73.6877 67.8283 73.8997 68.5809C73.9494 68.7574 74.4181 71.474 74.941 74.6179C76.0096 81.041 76.0321 81.3031 75.5935 82.1998C75.4665 82.4594 75.3625 82.697 75.3625 82.7277C75.3625 82.7584 76.5798 82.7836 78.0675 82.7836H80.7726L81.3124 82.5079C81.7679 82.2751 81.9461 82.232 82.4538 82.232C82.9616 82.232 83.1398 82.2751 83.5953 82.5079C84.1009 82.7662 84.1919 82.7836 85.0325 82.7836C85.8731 82.7836 85.9641 82.7662 86.4697 82.5079C86.9252 82.2751 87.1034 82.232 87.6112 82.232C88.1232 82.232 88.2961 82.2746 88.7716 82.5176L89.3303 82.8031L90.6287 82.7684C91.8062 82.7369 91.9664 82.7136 92.3478 82.5186C92.8257 82.2744 93.2844 81.6751 93.3827 81.1665C93.4274 80.9353 93.0886 78.6995 92.1298 72.8988C90.6704 64.0687 90.7116 64.2444 89.989 63.7445L89.6163 63.4867L81.2001 63.464C76.5711 63.4514 72.7839 63.4589 72.7839 63.4805C72.7839 63.5021 72.8638 63.6553 72.9615 63.8209C73.1671 64.1693 73.4688 65.5351 73.4704 66.1249C73.4716 66.5688 73.2745 66.7959 72.8881 66.7959C72.4021 66.7959 72.2759 66.5778 72.0919 65.4206C71.9757 64.6899 71.7921 64.2762 71.438 63.9477C70.8769 63.4273 71.0456 63.4437 66.2626 63.4437H61.8816L61.4253 63.6729C61.0601 63.8563 60.848 63.9021 60.3633 63.9021C59.8786 63.9021 59.6666 63.8563 59.3014 63.6729C58.8599 63.4512 58.7983 63.4438 57.4123 63.4491C56.6244 63.4521 55.884 63.4927 55.7673 63.5393ZM50.7209 80.8066C50.7209 81.1139 50.7365 81.2397 50.7555 81.086C50.7746 80.9323 50.7746 80.681 50.7555 80.5273C50.7365 80.3736 50.7209 80.4994 50.7209 80.8066ZM69.6707 85.5127C69.5984 85.5954 69.2442 86.1792 68.8837 86.8099C68.1883 88.0265 68.09 88.3909 68.3855 88.6582C68.5945 88.8474 69.111 88.8427 69.2758 88.6501C69.3465 88.5674 69.7007 87.9848 70.0627 87.3554C70.762 86.1398 70.8611 85.7737 70.5637 85.5045C70.3549 85.3155 69.8388 85.3202 69.6707 85.5127ZM72.2385 85.5195C72.1169 85.6538 72.0962 85.9078 72.0962 87.2683C72.0962 89.0571 72.1249 89.1443 72.7129 89.1443C73.266 89.1443 73.2996 89.0351 73.2996 87.2383C73.2996 85.8056 73.2839 85.6326 73.1424 85.5045C72.93 85.3123 72.4183 85.3208 72.2385 85.5195ZM74.8171 85.5195C74.5485 85.8164 74.6445 86.1585 75.3331 87.3554C76.1504 88.7761 76.1713 88.8005 76.5659 88.8005C76.9503 88.8005 77.1676 88.5914 77.1676 88.2214C77.1676 87.9737 76.0629 85.8993 75.7252 85.5127C75.5473 85.3091 75.0039 85.3131 74.8171 85.5195Z" stroke="url(#paint1_linear_403_4533)" stroke-width="0.8" mask="url(#path-3-outside-1_403_4533)"/>
<defs>
<linearGradient id="paint0_linear_403_4533" x1="52.7837" y1="62.0998" x2="90.8031" y2="78.0433" gradientUnits="userSpaceOnUse">
<stop stop-color="#D48B00"/>
<stop offset="0.31808" stop-color="#6E4800"/>
<stop offset="0.667704" stop-color="#D48B00"/>
<stop offset="0.875589" stop-color="#D48B00"/>
<stop offset="1" stop-color="#6E4800"/>
</linearGradient>
<linearGradient id="paint1_linear_403_4533" x1="50.6934" y1="60.444" x2="96.8275" y2="89.5881" gradientUnits="userSpaceOnUse">
<stop stop-color="#D48B00"/>
<stop offset="0.322115" stop-color="#6E4800"/>
<stop offset="0.615385" stop-color="#D48B00"/>
<stop offset="0.783654" stop-color="#D48B00"/>
<stop offset="0.995192" stop-color="#6E4800"/>
</linearGradient>
</defs>
</svg>
