<svg width="146" height="146" viewBox="0 0 146 146" fill="none" xmlns="http://www.w3.org/2000/svg">
<path d="M84.0029 28.7771L84.2803 29.1296L84.6973 28.9626L101.79 22.1101L104.403 40.3396L104.467 40.7839L104.911 40.8474L123.14 43.4607L116.288 60.5535L116.121 60.9705L116.475 61.2478L130.954 72.6248L116.475 84.0017L116.121 84.2791L116.288 84.696L123.14 101.789L104.911 104.402L104.467 104.466L104.403 104.91L101.79 123.138L84.6973 116.287L84.2803 116.12L84.0029 116.473L72.626 130.953L61.249 116.473L60.9717 116.12L60.5547 116.287L43.4619 123.138L40.8486 104.91L40.7852 104.466L40.3408 104.402L22.1113 101.789L28.9639 84.696L29.1309 84.2791L28.7783 84.0017L14.2969 72.6248L28.7783 61.2478L29.1309 60.9705L28.9639 60.5535L22.1113 43.4607L40.3408 40.8474L40.7852 40.7839L40.8486 40.3396L43.4619 22.1101L60.5547 28.9626L60.9717 29.1296L61.249 28.7771L72.626 14.2957L84.0029 28.7771Z" stroke="#D48B00" stroke-width="1.19794"/>
<path opacity="0.24" d="M94.9631 33.2157L95.1398 33.628L95.5858 33.5747L113.87 31.3796L111.676 49.6643L111.622 50.1099L112.035 50.2862L128.966 57.5283L117.924 72.2654L117.655 72.6249L117.924 72.9843L128.966 87.7212L112.035 94.9629L111.622 95.1393L111.675 95.5853L113.869 113.869L95.5857 111.675L95.1401 111.622L94.9638 112.034L87.7216 128.965L72.9846 117.923L72.625 117.654L72.2657 117.924L57.5288 128.965L50.2871 112.035L50.1107 111.621L49.6647 111.675L31.381 113.869L33.5747 95.5852L33.6283 95.1396L33.2156 94.9633L16.2836 87.7209L27.3266 72.9841L27.5958 72.6246L27.3271 72.2654L16.2836 57.5281L33.2162 50.2868L33.6285 50.1102L33.5751 49.6642L31.38 31.3803L49.6647 33.5742L50.1104 33.6279L50.2867 33.2151L57.5291 16.2831L72.2658 27.3261L72.6254 27.5953L72.9845 27.3266L87.7219 16.2832L94.9631 33.2157Z" stroke="#D48B00" stroke-width="1.19794"/>
<mask id="path-3-outside-1_403_4529" maskUnits="userSpaceOnUse" x="51.9941" y="49.7661" width="43" height="43" fill="black">
<rect fill="white" x="51.9941" y="49.7661" width="43" height="43"/>
<path fill-rule="evenodd" clip-rule="evenodd" d="M93.8862 81.7957C93.3588 79.0189 91.6252 76.7387 89.1205 75.5275C86.3495 74.1875 82.9258 74.4853 80.4161 76.2847C79.8163 76.7148 78.7264 77.8186 78.3396 78.3876C77.6923 79.34 77.1604 80.6466 76.952 81.7963C76.8192 82.5281 76.8353 84.0972 76.9834 84.8649C78.1388 90.8574 84.971 93.7651 90.1027 90.4483C91.3765 89.625 92.6177 88.1784 93.2537 86.7756C93.8937 85.3641 94.1623 83.2494 93.8862 81.7957ZM92.9338 82.2635C92.3521 78.464 89.2042 75.7163 85.4392 75.7216C83.3425 75.7245 81.5832 76.4467 80.0997 77.9134C78.6228 79.3736 77.8755 81.1805 77.8759 83.2913C77.8765 86.7496 80.1556 89.6804 83.5627 90.6038C84.5312 90.8662 86.3357 90.8611 87.3156 90.593C88.7002 90.2143 89.8648 89.5196 90.8606 88.4782C92.2356 87.0402 92.8898 85.4783 92.9454 83.5002C92.9606 82.9607 92.9554 82.4042 92.9338 82.2635ZM92.1988 82.9731C92.0284 82.76 85.8041 78.1932 85.5524 78.0965C85.2778 77.991 85.6207 77.7622 81.6435 80.7055C78.8551 82.769 78.6134 82.9679 78.5891 83.2194C78.5693 83.4239 78.6155 83.5384 78.7728 83.6752C78.8884 83.7756 80.378 84.8893 82.0831 86.15C84.2517 87.7532 85.2504 88.4428 85.4067 88.4447C85.5675 88.4466 86.5244 87.7884 88.8185 86.098C90.5721 84.8058 92.0741 83.6693 92.1561 83.5723C92.332 83.3647 92.3467 83.1579 92.1988 82.9731ZM89.1495 83.137C88.5073 82.9514 86.0336 82.3061 85.9643 82.3061C85.9335 82.3061 85.9083 82.7439 85.9083 83.279L85.9083 84.2519L87.337 83.8747C88.1228 83.6672 88.9576 83.4469 89.1921 83.3851L89.6186 83.2727L89.1495 83.137ZM87.8914 81.021C87.1056 80.4425 86.3365 79.8752 86.1822 79.7604L85.9018 79.5515L85.9509 81.2228L86.5053 81.3732C88.0855 81.8019 89.3201 82.1196 89.3201 82.0976C89.3201 82.0838 88.6772 81.5994 87.8914 81.021ZM89.2703 84.4392C89.2273 84.4395 88.4682 84.6314 87.5834 84.8656C86.6986 85.0998 85.9598 85.2914 85.9415 85.2914C85.9232 85.2914 85.9083 85.6561 85.9083 86.1017C85.9083 86.5474 85.9268 86.912 85.9493 86.912C85.9793 86.912 89.055 84.6765 89.313 84.4673C89.3325 84.4514 89.3133 84.4387 89.2703 84.4392ZM83.1902 80.8336C82.2547 81.5262 81.4961 82.1002 81.5045 82.1091C81.5128 82.118 82.2672 81.9254 83.1809 81.6811L84.8421 81.237L84.891 79.5744L83.1902 80.8336ZM84.7352 82.3253C84.653 82.3468 83.8757 82.5492 83.008 82.7751C82.1403 83.001 81.3992 83.2129 81.3611 83.2459C81.3231 83.2789 81.6877 83.4062 82.1714 83.5288C82.6551 83.6513 83.4636 83.8633 83.9678 84L84.8847 84.2484L84.8847 83.2673C84.8847 82.3743 84.8713 82.2897 84.7352 82.3253ZM84.5222 85.2032C84.3228 85.151 83.5894 84.9554 82.8923 84.7686C82.1952 84.5817 81.6104 84.4432 81.5929 84.4607C81.5652 84.4884 84.4564 86.6641 84.7708 86.8523C84.8626 86.9072 84.8847 86.7633 84.8847 86.1092L84.8847 85.298L84.5222 85.2032ZM79.341 71.153C79.0026 70.598 78.2753 70.3761 77.7258 70.6603C77.4415 70.8073 77.0376 71.2639 77.0376 71.4384C77.0376 71.5431 76.4716 71.5575 73.0965 71.5385L69.1554 71.5163L69.0857 71.1806C68.9443 70.4999 68.3691 70.0213 67.5485 69.9017C67.3257 69.8692 67.1434 69.8212 67.1434 69.7952C67.1434 69.3903 65.2334 54.0591 65.1386 53.7031C64.8456 52.6026 64.0723 51.5875 63.1853 51.1387C61.8676 50.472 60.2157 50.7165 59.1212 51.7403C58.6047 52.2234 58.3118 52.6964 58.0922 53.4018C57.9384 53.896 57.9315 54.3787 57.9315 64.6882L57.9315 75.4583L57.4411 75.7613C54.8921 77.3366 53.1497 80.2921 52.928 83.4167C52.8523 84.4827 52.8938 84.5238 54.0491 84.5238L54.9167 84.5238L55.0209 85.2048C55.4123 87.7613 57.001 89.9182 59.3258 91.049C60.546 91.6425 61.2438 91.7989 62.708 91.8069C63.7417 91.8126 64.0639 91.7817 64.6698 91.6189C67.7986 90.779 70.079 88.1674 70.5115 84.9289L70.5657 84.5238L71.454 84.5238C72.3059 84.5238 72.3482 84.5151 72.4811 84.3121C72.6378 84.0729 72.6075 83.4211 72.3804 82.1515C71.9608 79.8058 70.3969 77.3797 68.4437 76.0452L67.8537 75.6421L67.5834 73.4086C67.4348 72.1802 67.3133 71.1038 67.3135 71.0166C67.3139 70.8867 67.3564 70.8684 67.5485 70.9154C67.6775 70.9469 67.8599 71.0479 67.9537 71.14C68.1134 71.2968 68.1259 71.4388 68.15 73.3703C68.1663 74.6729 68.2094 75.4736 68.2671 75.5431C68.3395 75.6302 69.2506 75.6531 72.6536 75.6531L76.9488 75.6531L77.1246 75.9976C77.4514 76.6382 78.1331 76.889 78.7751 76.605C79.49 76.2888 79.5106 76.2063 79.5106 73.6487C79.5106 71.5859 79.4987 71.4115 79.341 71.153ZM78.3586 71.5894C78.2876 71.5621 78.1724 71.5872 78.1027 71.6452C77.9976 71.7324 77.9758 72.067 77.9758 73.6001C77.9758 75.5403 78.0234 75.8129 78.3406 75.6912C78.474 75.64 78.4876 75.4494 78.4876 73.6369C78.4876 71.9321 78.4687 71.6316 78.3586 71.5894ZM69.1905 72.5825L69.1905 74.6296L76.9523 74.6296L76.9523 72.5825L69.1905 72.5825ZM71.488 82.9261C71.0252 79.3685 68.4053 76.4039 64.9359 75.5119C59.766 74.1829 54.6503 77.7016 53.9734 83.0524L53.9168 83.5002L54.9156 83.5002L55.0176 82.8445C55.2806 81.1526 55.9643 79.8377 57.2491 78.553C58.8566 76.9454 60.5209 76.2502 62.7618 76.2502C66.6384 76.2502 69.8158 78.9848 70.4672 82.8818L70.5706 83.5002L71.0746 83.5002C71.3519 83.5002 71.5739 83.4906 71.5679 83.4789C71.5619 83.4672 71.526 83.2184 71.488 82.9261ZM69.4436 82.8464C69.4001 82.6041 69.2511 82.0952 69.1125 81.7153C68.3395 79.597 66.5783 78.0087 64.379 77.4462C63.4606 77.2113 62.0497 77.2101 61.1224 77.4434C58.8325 78.0196 56.9987 79.74 56.2576 82.0076C55.932 83.0035 55.8795 84.5221 56.1335 85.59C56.7051 87.9925 58.5436 89.8978 60.9644 90.596C61.5206 90.7565 61.8403 90.7907 62.7507 90.7873C64.0602 90.7825 64.6125 90.6573 65.736 90.1108C67.4639 89.2702 68.7434 87.7438 69.2772 85.8862C69.4858 85.1605 69.5729 83.5674 69.4436 82.8464ZM67.1119 83.0117C66.388 80.1753 63.2898 78.7562 60.6721 80.0621C60.0364 80.3792 59.0663 81.3539 58.7638 81.9795C57.5422 84.506 58.7106 87.382 61.3261 88.2863C63.5607 89.0589 66.0862 87.8371 66.9414 85.5695C67.2072 84.8647 67.2854 83.6916 67.1119 83.0117ZM66.2394 70.706C65.6557 65.984 65.011 60.6543 65.011 60.5505C65.011 60.5023 63.81 60.4706 61.983 60.4706L58.9551 60.4706L58.9551 74.9384L59.6618 74.702C61.7853 73.9917 64.4208 74.0658 66.3427 74.8895L66.7169 75.05L66.7075 74.7331C66.7023 74.5589 66.4917 72.7467 66.2394 70.706ZM66.1103 83.2118C65.8913 82.2787 65.1134 81.3424 64.1744 80.8812C63.7323 80.6641 63.6053 80.6428 62.7507 80.6428C61.9099 80.6428 61.7614 80.6667 61.3217 80.8728C60.6354 81.1944 59.9482 81.8713 59.6133 82.5557C59.3573 83.0788 59.3389 83.1765 59.3389 84.012C59.3389 84.8423 59.3588 84.9496 59.6112 85.4826C60.401 87.1497 62.2724 87.908 63.9931 87.2581C65.5561 86.6677 66.4987 84.8663 66.1103 83.2118ZM64.5064 56.4191C64.1397 53.5432 64.0265 53.1831 63.2629 52.4608C62.0119 51.2777 60.0466 51.6862 59.1987 53.3058C59.0009 53.6837 58.9973 53.7343 58.9722 56.5683L58.9466 59.447L64.8404 59.447L64.8311 59.1698C64.826 59.0174 64.6799 57.7795 64.5064 56.4191ZM64.5079 66.5398C64.3721 63.824 64.3668 63.7783 64.1692 63.6184C63.9258 63.4213 63.8262 63.4162 63.58 63.5887C63.343 63.7547 63.3421 63.8194 63.5266 67.678C63.6297 69.8313 63.6964 70.6274 63.7858 70.77C63.929 70.9984 64.334 71.0296 64.5358 70.8279C64.6997 70.6639 64.6976 70.3299 64.5079 66.5398ZM64.5737 83.4864C64.5254 83.3146 64.3471 83.012 64.1774 82.8139C62.8345 81.2449 60.3345 82.6317 60.9289 84.6157C61.2707 85.7562 62.6894 86.2937 63.7034 85.6668C64.4383 85.2124 64.8026 84.2998 64.5737 83.4864ZM63.5627 83.7039C63.4534 83.4334 63.0581 83.159 62.7776 83.159C61.992 83.159 61.5765 84.009 62.0735 84.5996C62.7141 85.3609 63.9354 84.6264 63.5627 83.7039ZM62.5596 64.2469C62.5352 63.8187 62.4935 63.6906 62.3438 63.5859C62.1025 63.4168 62.0012 63.422 61.7623 63.6154L61.5653 63.775L61.5891 67.2191C61.6098 70.211 61.6305 70.683 61.7472 70.8126C61.9221 71.007 62.3027 71.0035 62.4816 70.8059C62.6079 70.6663 62.621 70.3408 62.6063 67.7139C62.5973 66.0992 62.5763 64.539 62.5596 64.2469ZM60.5567 63.5887C60.2966 63.4065 60.1761 63.4213 59.9321 63.6653L59.7227 63.8746L59.7227 67.2287C59.7227 70.9294 59.7272 70.9619 60.2332 70.9619C60.7566 70.9619 60.7463 71.0377 60.7463 67.2076L60.7463 63.7214L60.5567 63.5887Z"/>
</mask>
<path fill-rule="evenodd" clip-rule="evenodd" d="M93.8862 81.7957C93.3588 79.0189 91.6252 76.7387 89.1205 75.5275C86.3495 74.1875 82.9258 74.4853 80.4161 76.2847C79.8163 76.7148 78.7264 77.8186 78.3396 78.3876C77.6923 79.34 77.1604 80.6466 76.952 81.7963C76.8192 82.5281 76.8353 84.0972 76.9834 84.8649C78.1388 90.8574 84.971 93.7651 90.1027 90.4483C91.3765 89.625 92.6177 88.1784 93.2537 86.7756C93.8937 85.3641 94.1623 83.2494 93.8862 81.7957ZM92.9338 82.2635C92.3521 78.464 89.2042 75.7163 85.4392 75.7216C83.3425 75.7245 81.5832 76.4467 80.0997 77.9134C78.6228 79.3736 77.8755 81.1805 77.8759 83.2913C77.8765 86.7496 80.1556 89.6804 83.5627 90.6038C84.5312 90.8662 86.3357 90.8611 87.3156 90.593C88.7002 90.2143 89.8648 89.5196 90.8606 88.4782C92.2356 87.0402 92.8898 85.4783 92.9454 83.5002C92.9606 82.9607 92.9554 82.4042 92.9338 82.2635ZM92.1988 82.9731C92.0284 82.76 85.8041 78.1932 85.5524 78.0965C85.2778 77.991 85.6207 77.7622 81.6435 80.7055C78.8551 82.769 78.6134 82.9679 78.5891 83.2194C78.5693 83.4239 78.6155 83.5384 78.7728 83.6752C78.8884 83.7756 80.378 84.8893 82.0831 86.15C84.2517 87.7532 85.2504 88.4428 85.4067 88.4447C85.5675 88.4466 86.5244 87.7884 88.8185 86.098C90.5721 84.8058 92.0741 83.6693 92.1561 83.5723C92.332 83.3647 92.3467 83.1579 92.1988 82.9731ZM89.1495 83.137C88.5073 82.9514 86.0336 82.3061 85.9643 82.3061C85.9335 82.3061 85.9083 82.7439 85.9083 83.279L85.9083 84.2519L87.337 83.8747C88.1228 83.6672 88.9576 83.4469 89.1921 83.3851L89.6186 83.2727L89.1495 83.137ZM87.8914 81.021C87.1056 80.4425 86.3365 79.8752 86.1822 79.7604L85.9018 79.5515L85.9509 81.2228L86.5053 81.3732C88.0855 81.8019 89.3201 82.1196 89.3201 82.0976C89.3201 82.0838 88.6772 81.5994 87.8914 81.021ZM89.2703 84.4392C89.2273 84.4395 88.4682 84.6314 87.5834 84.8656C86.6986 85.0998 85.9598 85.2914 85.9415 85.2914C85.9232 85.2914 85.9083 85.6561 85.9083 86.1017C85.9083 86.5474 85.9268 86.912 85.9493 86.912C85.9793 86.912 89.055 84.6765 89.313 84.4673C89.3325 84.4514 89.3133 84.4387 89.2703 84.4392ZM83.1902 80.8336C82.2547 81.5262 81.4961 82.1002 81.5045 82.1091C81.5128 82.118 82.2672 81.9254 83.1809 81.6811L84.8421 81.237L84.891 79.5744L83.1902 80.8336ZM84.7352 82.3253C84.653 82.3468 83.8757 82.5492 83.008 82.7751C82.1403 83.001 81.3992 83.2129 81.3611 83.2459C81.3231 83.2789 81.6877 83.4062 82.1714 83.5288C82.6551 83.6513 83.4636 83.8633 83.9678 84L84.8847 84.2484L84.8847 83.2673C84.8847 82.3743 84.8713 82.2897 84.7352 82.3253ZM84.5222 85.2032C84.3228 85.151 83.5894 84.9554 82.8923 84.7686C82.1952 84.5817 81.6104 84.4432 81.5929 84.4607C81.5652 84.4884 84.4564 86.6641 84.7708 86.8523C84.8626 86.9072 84.8847 86.7633 84.8847 86.1092L84.8847 85.298L84.5222 85.2032ZM79.341 71.153C79.0026 70.598 78.2753 70.3761 77.7258 70.6603C77.4415 70.8073 77.0376 71.2639 77.0376 71.4384C77.0376 71.5431 76.4716 71.5575 73.0965 71.5385L69.1554 71.5163L69.0857 71.1806C68.9443 70.4999 68.3691 70.0213 67.5485 69.9017C67.3257 69.8692 67.1434 69.8212 67.1434 69.7952C67.1434 69.3903 65.2334 54.0591 65.1386 53.7031C64.8456 52.6026 64.0723 51.5875 63.1853 51.1387C61.8676 50.472 60.2157 50.7165 59.1212 51.7403C58.6047 52.2234 58.3118 52.6964 58.0922 53.4018C57.9384 53.896 57.9315 54.3787 57.9315 64.6882L57.9315 75.4583L57.4411 75.7613C54.8921 77.3366 53.1497 80.2921 52.928 83.4167C52.8523 84.4827 52.8938 84.5238 54.0491 84.5238L54.9167 84.5238L55.0209 85.2048C55.4123 87.7613 57.001 89.9182 59.3258 91.049C60.546 91.6425 61.2438 91.7989 62.708 91.8069C63.7417 91.8126 64.0639 91.7817 64.6698 91.6189C67.7986 90.779 70.079 88.1674 70.5115 84.9289L70.5657 84.5238L71.454 84.5238C72.3059 84.5238 72.3482 84.5151 72.4811 84.3121C72.6378 84.0729 72.6075 83.4211 72.3804 82.1515C71.9608 79.8058 70.3969 77.3797 68.4437 76.0452L67.8537 75.6421L67.5834 73.4086C67.4348 72.1802 67.3133 71.1038 67.3135 71.0166C67.3139 70.8867 67.3564 70.8684 67.5485 70.9154C67.6775 70.9469 67.8599 71.0479 67.9537 71.14C68.1134 71.2968 68.1259 71.4388 68.15 73.3703C68.1663 74.6729 68.2094 75.4736 68.2671 75.5431C68.3395 75.6302 69.2506 75.6531 72.6536 75.6531L76.9488 75.6531L77.1246 75.9976C77.4514 76.6382 78.1331 76.889 78.7751 76.605C79.49 76.2888 79.5106 76.2063 79.5106 73.6487C79.5106 71.5859 79.4987 71.4115 79.341 71.153ZM78.3586 71.5894C78.2876 71.5621 78.1724 71.5872 78.1027 71.6452C77.9976 71.7324 77.9758 72.067 77.9758 73.6001C77.9758 75.5403 78.0234 75.8129 78.3406 75.6912C78.474 75.64 78.4876 75.4494 78.4876 73.6369C78.4876 71.9321 78.4687 71.6316 78.3586 71.5894ZM69.1905 72.5825L69.1905 74.6296L76.9523 74.6296L76.9523 72.5825L69.1905 72.5825ZM71.488 82.9261C71.0252 79.3685 68.4053 76.4039 64.9359 75.5119C59.766 74.1829 54.6503 77.7016 53.9734 83.0524L53.9168 83.5002L54.9156 83.5002L55.0176 82.8445C55.2806 81.1526 55.9643 79.8377 57.2491 78.553C58.8566 76.9454 60.5209 76.2502 62.7618 76.2502C66.6384 76.2502 69.8158 78.9848 70.4672 82.8818L70.5706 83.5002L71.0746 83.5002C71.3519 83.5002 71.5739 83.4906 71.5679 83.4789C71.5619 83.4672 71.526 83.2184 71.488 82.9261ZM69.4436 82.8464C69.4001 82.6041 69.2511 82.0952 69.1125 81.7153C68.3395 79.597 66.5783 78.0087 64.379 77.4462C63.4606 77.2113 62.0497 77.2101 61.1224 77.4434C58.8325 78.0196 56.9987 79.74 56.2576 82.0076C55.932 83.0035 55.8795 84.5221 56.1335 85.59C56.7051 87.9925 58.5436 89.8978 60.9644 90.596C61.5206 90.7565 61.8403 90.7907 62.7507 90.7873C64.0602 90.7825 64.6125 90.6573 65.736 90.1108C67.4639 89.2702 68.7434 87.7438 69.2772 85.8862C69.4858 85.1605 69.5729 83.5674 69.4436 82.8464ZM67.1119 83.0117C66.388 80.1753 63.2898 78.7562 60.6721 80.0621C60.0364 80.3792 59.0663 81.3539 58.7638 81.9795C57.5422 84.506 58.7106 87.382 61.3261 88.2863C63.5607 89.0589 66.0862 87.8371 66.9414 85.5695C67.2072 84.8647 67.2854 83.6916 67.1119 83.0117ZM66.2394 70.706C65.6557 65.984 65.011 60.6543 65.011 60.5505C65.011 60.5023 63.81 60.4706 61.983 60.4706L58.9551 60.4706L58.9551 74.9384L59.6618 74.702C61.7853 73.9917 64.4208 74.0658 66.3427 74.8895L66.7169 75.05L66.7075 74.7331C66.7023 74.5589 66.4917 72.7467 66.2394 70.706ZM66.1103 83.2118C65.8913 82.2787 65.1134 81.3424 64.1744 80.8812C63.7323 80.6641 63.6053 80.6428 62.7507 80.6428C61.9099 80.6428 61.7614 80.6667 61.3217 80.8728C60.6354 81.1944 59.9482 81.8713 59.6133 82.5557C59.3573 83.0788 59.3389 83.1765 59.3389 84.012C59.3389 84.8423 59.3588 84.9496 59.6112 85.4826C60.401 87.1497 62.2724 87.908 63.9931 87.2581C65.5561 86.6677 66.4987 84.8663 66.1103 83.2118ZM64.5064 56.4191C64.1397 53.5432 64.0265 53.1831 63.2629 52.4608C62.0119 51.2777 60.0466 51.6862 59.1987 53.3058C59.0009 53.6837 58.9973 53.7343 58.9722 56.5683L58.9466 59.447L64.8404 59.447L64.8311 59.1698C64.826 59.0174 64.6799 57.7795 64.5064 56.4191ZM64.5079 66.5398C64.3721 63.824 64.3668 63.7783 64.1692 63.6184C63.9258 63.4213 63.8262 63.4162 63.58 63.5887C63.343 63.7547 63.3421 63.8194 63.5266 67.678C63.6297 69.8313 63.6964 70.6274 63.7858 70.77C63.929 70.9984 64.334 71.0296 64.5358 70.8279C64.6997 70.6639 64.6976 70.3299 64.5079 66.5398ZM64.5737 83.4864C64.5254 83.3146 64.3471 83.012 64.1774 82.8139C62.8345 81.2449 60.3345 82.6317 60.9289 84.6157C61.2707 85.7562 62.6894 86.2937 63.7034 85.6668C64.4383 85.2124 64.8026 84.2998 64.5737 83.4864ZM63.5627 83.7039C63.4534 83.4334 63.0581 83.159 62.7776 83.159C61.992 83.159 61.5765 84.009 62.0735 84.5996C62.7141 85.3609 63.9354 84.6264 63.5627 83.7039ZM62.5596 64.2469C62.5352 63.8187 62.4935 63.6906 62.3438 63.5859C62.1025 63.4168 62.0012 63.422 61.7623 63.6154L61.5653 63.775L61.5891 67.2191C61.6098 70.211 61.6305 70.683 61.7472 70.8126C61.9221 71.007 62.3027 71.0035 62.4816 70.8059C62.6079 70.6663 62.621 70.3408 62.6063 67.7139C62.5973 66.0992 62.5763 64.539 62.5596 64.2469ZM60.5567 63.5887C60.2966 63.4065 60.1761 63.4213 59.9321 63.6653L59.7227 63.8746L59.7227 67.2287C59.7227 70.9294 59.7272 70.9619 60.2332 70.9619C60.7566 70.9619 60.7463 71.0377 60.7463 67.2076L60.7463 63.7214L60.5567 63.5887Z" fill="url(#paint0_linear_403_4529)"/>
<path fill-rule="evenodd" clip-rule="evenodd" d="M93.8862 81.7957C93.3588 79.0189 91.6252 76.7387 89.1205 75.5275C86.3495 74.1875 82.9258 74.4853 80.4161 76.2847C79.8163 76.7148 78.7264 77.8186 78.3396 78.3876C77.6923 79.34 77.1604 80.6466 76.952 81.7963C76.8192 82.5281 76.8353 84.0972 76.9834 84.8649C78.1388 90.8574 84.971 93.7651 90.1027 90.4483C91.3765 89.625 92.6177 88.1784 93.2537 86.7756C93.8937 85.3641 94.1623 83.2494 93.8862 81.7957ZM92.9338 82.2635C92.3521 78.464 89.2042 75.7163 85.4392 75.7216C83.3425 75.7245 81.5832 76.4467 80.0997 77.9134C78.6228 79.3736 77.8755 81.1805 77.8759 83.2913C77.8765 86.7496 80.1556 89.6804 83.5627 90.6038C84.5312 90.8662 86.3357 90.8611 87.3156 90.593C88.7002 90.2143 89.8648 89.5196 90.8606 88.4782C92.2356 87.0402 92.8898 85.4783 92.9454 83.5002C92.9606 82.9607 92.9554 82.4042 92.9338 82.2635ZM92.1988 82.9731C92.0284 82.76 85.8041 78.1932 85.5524 78.0965C85.2778 77.991 85.6207 77.7622 81.6435 80.7055C78.8551 82.769 78.6134 82.9679 78.5891 83.2194C78.5693 83.4239 78.6155 83.5384 78.7728 83.6752C78.8884 83.7756 80.378 84.8893 82.0831 86.15C84.2517 87.7532 85.2504 88.4428 85.4067 88.4447C85.5675 88.4466 86.5244 87.7884 88.8185 86.098C90.5721 84.8058 92.0741 83.6693 92.1561 83.5723C92.332 83.3647 92.3467 83.1579 92.1988 82.9731ZM89.1495 83.137C88.5073 82.9514 86.0336 82.3061 85.9643 82.3061C85.9335 82.3061 85.9083 82.7439 85.9083 83.279L85.9083 84.2519L87.337 83.8747C88.1228 83.6672 88.9576 83.4469 89.1921 83.3851L89.6186 83.2727L89.1495 83.137ZM87.8914 81.021C87.1056 80.4425 86.3365 79.8752 86.1822 79.7604L85.9018 79.5515L85.9509 81.2228L86.5053 81.3732C88.0855 81.8019 89.3201 82.1196 89.3201 82.0976C89.3201 82.0838 88.6772 81.5994 87.8914 81.021ZM89.2703 84.4392C89.2273 84.4395 88.4682 84.6314 87.5834 84.8656C86.6986 85.0998 85.9598 85.2914 85.9415 85.2914C85.9232 85.2914 85.9083 85.6561 85.9083 86.1017C85.9083 86.5474 85.9268 86.912 85.9493 86.912C85.9793 86.912 89.055 84.6765 89.313 84.4673C89.3325 84.4514 89.3133 84.4387 89.2703 84.4392ZM83.1902 80.8336C82.2547 81.5262 81.4961 82.1002 81.5045 82.1091C81.5128 82.118 82.2672 81.9254 83.1809 81.6811L84.8421 81.237L84.891 79.5744L83.1902 80.8336ZM84.7352 82.3253C84.653 82.3468 83.8757 82.5492 83.008 82.7751C82.1403 83.001 81.3992 83.2129 81.3611 83.2459C81.3231 83.2789 81.6877 83.4062 82.1714 83.5288C82.6551 83.6513 83.4636 83.8633 83.9678 84L84.8847 84.2484L84.8847 83.2673C84.8847 82.3743 84.8713 82.2897 84.7352 82.3253ZM84.5222 85.2032C84.3228 85.151 83.5894 84.9554 82.8923 84.7686C82.1952 84.5817 81.6104 84.4432 81.5929 84.4607C81.5652 84.4884 84.4564 86.6641 84.7708 86.8523C84.8626 86.9072 84.8847 86.7633 84.8847 86.1092L84.8847 85.298L84.5222 85.2032ZM79.341 71.153C79.0026 70.598 78.2753 70.3761 77.7258 70.6603C77.4415 70.8073 77.0376 71.2639 77.0376 71.4384C77.0376 71.5431 76.4716 71.5575 73.0965 71.5385L69.1554 71.5163L69.0857 71.1806C68.9443 70.4999 68.3691 70.0213 67.5485 69.9017C67.3257 69.8692 67.1434 69.8212 67.1434 69.7952C67.1434 69.3903 65.2334 54.0591 65.1386 53.7031C64.8456 52.6026 64.0723 51.5875 63.1853 51.1387C61.8676 50.472 60.2157 50.7165 59.1212 51.7403C58.6047 52.2234 58.3118 52.6964 58.0922 53.4018C57.9384 53.896 57.9315 54.3787 57.9315 64.6882L57.9315 75.4583L57.4411 75.7613C54.8921 77.3366 53.1497 80.2921 52.928 83.4167C52.8523 84.4827 52.8938 84.5238 54.0491 84.5238L54.9167 84.5238L55.0209 85.2048C55.4123 87.7613 57.001 89.9182 59.3258 91.049C60.546 91.6425 61.2438 91.7989 62.708 91.8069C63.7417 91.8126 64.0639 91.7817 64.6698 91.6189C67.7986 90.779 70.079 88.1674 70.5115 84.9289L70.5657 84.5238L71.454 84.5238C72.3059 84.5238 72.3482 84.5151 72.4811 84.3121C72.6378 84.0729 72.6075 83.4211 72.3804 82.1515C71.9608 79.8058 70.3969 77.3797 68.4437 76.0452L67.8537 75.6421L67.5834 73.4086C67.4348 72.1802 67.3133 71.1038 67.3135 71.0166C67.3139 70.8867 67.3564 70.8684 67.5485 70.9154C67.6775 70.9469 67.8599 71.0479 67.9537 71.14C68.1134 71.2968 68.1259 71.4388 68.15 73.3703C68.1663 74.6729 68.2094 75.4736 68.2671 75.5431C68.3395 75.6302 69.2506 75.6531 72.6536 75.6531L76.9488 75.6531L77.1246 75.9976C77.4514 76.6382 78.1331 76.889 78.7751 76.605C79.49 76.2888 79.5106 76.2063 79.5106 73.6487C79.5106 71.5859 79.4987 71.4115 79.341 71.153ZM78.3586 71.5894C78.2876 71.5621 78.1724 71.5872 78.1027 71.6452C77.9976 71.7324 77.9758 72.067 77.9758 73.6001C77.9758 75.5403 78.0234 75.8129 78.3406 75.6912C78.474 75.64 78.4876 75.4494 78.4876 73.6369C78.4876 71.9321 78.4687 71.6316 78.3586 71.5894ZM69.1905 72.5825L69.1905 74.6296L76.9523 74.6296L76.9523 72.5825L69.1905 72.5825ZM71.488 82.9261C71.0252 79.3685 68.4053 76.4039 64.9359 75.5119C59.766 74.1829 54.6503 77.7016 53.9734 83.0524L53.9168 83.5002L54.9156 83.5002L55.0176 82.8445C55.2806 81.1526 55.9643 79.8377 57.2491 78.553C58.8566 76.9454 60.5209 76.2502 62.7618 76.2502C66.6384 76.2502 69.8158 78.9848 70.4672 82.8818L70.5706 83.5002L71.0746 83.5002C71.3519 83.5002 71.5739 83.4906 71.5679 83.4789C71.5619 83.4672 71.526 83.2184 71.488 82.9261ZM69.4436 82.8464C69.4001 82.6041 69.2511 82.0952 69.1125 81.7153C68.3395 79.597 66.5783 78.0087 64.379 77.4462C63.4606 77.2113 62.0497 77.2101 61.1224 77.4434C58.8325 78.0196 56.9987 79.74 56.2576 82.0076C55.932 83.0035 55.8795 84.5221 56.1335 85.59C56.7051 87.9925 58.5436 89.8978 60.9644 90.596C61.5206 90.7565 61.8403 90.7907 62.7507 90.7873C64.0602 90.7825 64.6125 90.6573 65.736 90.1108C67.4639 89.2702 68.7434 87.7438 69.2772 85.8862C69.4858 85.1605 69.5729 83.5674 69.4436 82.8464ZM67.1119 83.0117C66.388 80.1753 63.2898 78.7562 60.6721 80.0621C60.0364 80.3792 59.0663 81.3539 58.7638 81.9795C57.5422 84.506 58.7106 87.382 61.3261 88.2863C63.5607 89.0589 66.0862 87.8371 66.9414 85.5695C67.2072 84.8647 67.2854 83.6916 67.1119 83.0117ZM66.2394 70.706C65.6557 65.984 65.011 60.6543 65.011 60.5505C65.011 60.5023 63.81 60.4706 61.983 60.4706L58.9551 60.4706L58.9551 74.9384L59.6618 74.702C61.7853 73.9917 64.4208 74.0658 66.3427 74.8895L66.7169 75.05L66.7075 74.7331C66.7023 74.5589 66.4917 72.7467 66.2394 70.706ZM66.1103 83.2118C65.8913 82.2787 65.1134 81.3424 64.1744 80.8812C63.7323 80.6641 63.6053 80.6428 62.7507 80.6428C61.9099 80.6428 61.7614 80.6667 61.3217 80.8728C60.6354 81.1944 59.9482 81.8713 59.6133 82.5557C59.3573 83.0788 59.3389 83.1765 59.3389 84.012C59.3389 84.8423 59.3588 84.9496 59.6112 85.4826C60.401 87.1497 62.2724 87.908 63.9931 87.2581C65.5561 86.6677 66.4987 84.8663 66.1103 83.2118ZM64.5064 56.4191C64.1397 53.5432 64.0265 53.1831 63.2629 52.4608C62.0119 51.2777 60.0466 51.6862 59.1987 53.3058C59.0009 53.6837 58.9973 53.7343 58.9722 56.5683L58.9466 59.447L64.8404 59.447L64.8311 59.1698C64.826 59.0174 64.6799 57.7795 64.5064 56.4191ZM64.5079 66.5398C64.3721 63.824 64.3668 63.7783 64.1692 63.6184C63.9258 63.4213 63.8262 63.4162 63.58 63.5887C63.343 63.7547 63.3421 63.8194 63.5266 67.678C63.6297 69.8313 63.6964 70.6274 63.7858 70.77C63.929 70.9984 64.334 71.0296 64.5358 70.8279C64.6997 70.6639 64.6976 70.3299 64.5079 66.5398ZM64.5737 83.4864C64.5254 83.3146 64.3471 83.012 64.1774 82.8139C62.8345 81.2449 60.3345 82.6317 60.9289 84.6157C61.2707 85.7562 62.6894 86.2937 63.7034 85.6668C64.4383 85.2124 64.8026 84.2998 64.5737 83.4864ZM63.5627 83.7039C63.4534 83.4334 63.0581 83.159 62.7776 83.159C61.992 83.159 61.5765 84.009 62.0735 84.5996C62.7141 85.3609 63.9354 84.6264 63.5627 83.7039ZM62.5596 64.2469C62.5352 63.8187 62.4935 63.6906 62.3438 63.5859C62.1025 63.4168 62.0012 63.422 61.7623 63.6154L61.5653 63.775L61.5891 67.2191C61.6098 70.211 61.6305 70.683 61.7472 70.8126C61.9221 71.007 62.3027 71.0035 62.4816 70.8059C62.6079 70.6663 62.621 70.3408 62.6063 67.7139C62.5973 66.0992 62.5763 64.539 62.5596 64.2469ZM60.5567 63.5887C60.2966 63.4065 60.1761 63.4213 59.9321 63.6653L59.7227 63.8746L59.7227 67.2287C59.7227 70.9294 59.7272 70.9619 60.2332 70.9619C60.7566 70.9619 60.7463 71.0377 60.7463 67.2076L60.7463 63.7214L60.5567 63.5887Z" stroke="url(#paint1_linear_403_4529)" stroke-width="0.8" mask="url(#path-3-outside-1_403_4529)"/>
<defs>
<linearGradient id="paint0_linear_403_4529" x1="87.4751" y1="52.7133" x2="75.8361" y2="90.8003" gradientUnits="userSpaceOnUse">
<stop stop-color="#D48B00"/>
<stop offset="0.31808" stop-color="#6E4800"/>
<stop offset="0.667704" stop-color="#D48B00"/>
<stop offset="0.875589" stop-color="#D48B00"/>
<stop offset="1" stop-color="#6E4800"/>
</linearGradient>
<linearGradient id="paint1_linear_403_4529" x1="89.5917" y1="50.7661" x2="66.7532" y2="100.377" gradientUnits="userSpaceOnUse">
<stop stop-color="#D48B00"/>
<stop offset="0.322115" stop-color="#6E4800"/>
<stop offset="0.615385" stop-color="#D48B00"/>
<stop offset="0.783654" stop-color="#D48B00"/>
<stop offset="0.995192" stop-color="#6E4800"/>
</linearGradient>
</defs>
</svg>
