<svg width="146" height="146" viewBox="0 0 146 146" fill="none" xmlns="http://www.w3.org/2000/svg">
<path d="M83.6748 28.4502L83.9521 28.8027L84.3691 28.6357L101.462 21.7832L104.075 40.0127L104.139 40.457L104.583 40.5205L122.812 43.1338L115.96 60.2266L115.793 60.6436L116.146 60.9209L130.626 72.2979L116.146 83.6748L115.793 83.9521L115.96 84.3691L122.812 101.462L104.583 104.075L104.139 104.139L104.075 104.583L101.462 122.812L84.3691 115.96L83.9521 115.793L83.6748 116.146L72.2979 130.626L60.9209 116.146L60.6436 115.793L60.2266 115.96L43.1338 122.812L40.5205 104.583L40.457 104.139L40.0127 104.075L21.7832 101.462L28.6357 84.3691L28.8027 83.9521L28.4502 83.6748L13.9688 72.2979L28.4502 60.9209L28.8027 60.6436L28.6357 60.2266L21.7832 43.1338L40.0127 40.5205L40.457 40.457L40.5205 40.0127L43.1338 21.7832L60.2266 28.6357L60.6436 28.8027L60.9209 28.4502L72.2979 13.9688L83.6748 28.4502Z" stroke="#D48B00" stroke-width="1.19794"/>
<path opacity="0.24" d="M94.9631 33.2157L95.1398 33.628L95.5858 33.5747L113.87 31.3796L111.676 49.6643L111.622 50.1099L112.035 50.2862L128.966 57.5283L117.924 72.2654L117.655 72.6249L117.924 72.9843L128.966 87.7212L112.035 94.9629L111.622 95.1393L111.675 95.5853L113.869 113.869L95.5857 111.675L95.1401 111.622L94.9638 112.034L87.7216 128.965L72.9846 117.923L72.625 117.654L72.2657 117.924L57.5288 128.965L50.2871 112.035L50.1107 111.621L49.6647 111.675L31.381 113.869L33.5747 95.5852L33.6283 95.1396L33.2156 94.9633L16.2836 87.7209L27.3266 72.9841L27.5958 72.6246L27.3271 72.2654L16.2836 57.5281L33.2162 50.2868L33.6285 50.1102L33.5751 49.6642L31.38 31.3803L49.6647 33.5742L50.1104 33.6279L50.2867 33.2151L57.5291 16.2831L72.2658 27.3261L72.6254 27.5953L72.9845 27.3266L87.7219 16.2832L94.9631 33.2157Z" stroke="#D48B00" stroke-width="1.19794"/>
<path d="M69.7686 58.9033L81.7559 58.9199H81.7979L81.8271 58.9492L82.1172 59.2461C82.2338 59.365 82.3162 59.4686 82.3672 59.585C82.4187 59.7027 82.4349 59.825 82.4336 59.9736C82.4331 60.0327 82.4168 60.1527 82.3906 60.3096C82.3639 60.4702 82.3254 60.6785 82.2783 60.9189C82.1841 61.4 82.0541 62.0137 81.9121 62.6436C81.7703 63.2724 81.6413 63.8475 81.5479 64.2666C81.5012 64.476 81.4636 64.6466 81.4375 64.7656C81.4312 64.7941 81.4248 64.8194 81.4199 64.8418C81.4637 64.8435 81.5197 64.8458 81.5869 64.8477C81.7699 64.8528 82.0351 64.8592 82.3623 64.8652C83.0168 64.8773 83.9199 64.8902 84.9131 64.9014C86.6857 64.9214 87.5963 64.9329 88.1748 64.9697C88.759 65.0069 89.0093 65.071 89.459 65.1934C93.1992 66.2113 95.8474 69.3948 96.1787 73.2725C96.2041 73.5701 96.1917 73.8803 96.0938 74.5605C95.9959 75.2401 95.811 76.2959 95.4873 78.0879C95.282 79.2239 95.0787 80.2903 94.917 81.0928C94.8362 81.4936 94.7664 81.8294 94.7109 82.0752C94.6832 82.1979 94.6585 82.2991 94.6387 82.375C94.62 82.4464 94.6024 82.5068 94.5869 82.5381C94.5327 82.6477 94.4716 82.742 94.3906 82.8193C94.3089 82.8974 94.2108 82.9541 94.0889 82.9951C93.851 83.0752 93.5125 83.0967 93.002 83.0967H92.1787L92.0332 83.5908C91.4472 85.585 89.3727 87.1297 87.2822 87.1299C85.1917 87.1299 83.1174 85.585 82.5312 83.5908L82.3857 83.0967L70.5664 83.1436L70.4746 83.4688C70.0455 84.9791 68.8485 86.2679 67.3643 86.8174C64.7494 87.785 61.8488 86.3284 60.9355 83.6016L60.7656 83.0967H59.1611C58.3923 83.0967 57.9618 83.0935 57.6973 83.0674C57.5644 83.0542 57.4671 83.035 57.3867 83.0049C57.3043 82.974 57.2445 82.9331 57.1855 82.8857C56.8001 82.5767 56.6634 82.0645 56.8486 81.6123C56.9073 81.4692 56.9719 81.3466 57.0693 81.248C57.1684 81.1479 57.2944 81.0797 57.4658 81.0332C57.8 80.9425 58.3342 80.9268 59.2422 80.9268H60.7773L60.9463 80.4072C61.1959 79.6427 61.7776 78.7337 62.3438 78.2256C62.6629 77.9392 63.1134 77.661 63.584 77.4395C64.0544 77.2179 64.553 77.0497 64.9707 76.9893C66.0886 76.8277 67.2915 77.0796 68.3027 77.6846C68.7754 77.9676 69.2787 78.4802 69.6846 79.0371C70.0898 79.5933 70.4087 80.2084 70.5 80.7031L70.542 80.9268H75.6006L75.6318 80.793C75.6587 80.6773 76.4446 77.1618 77.3779 72.9805C78.3112 68.7998 79.2843 64.4513 79.54 63.3174C79.6679 62.7508 79.784 62.2221 79.8682 61.8271C79.9102 61.6297 79.9443 61.466 79.9678 61.3477C79.9776 61.2982 79.9844 61.2568 79.9902 61.2246C79.9871 61.2242 79.9838 61.2241 79.9805 61.2236C79.9091 61.2143 79.7943 61.2052 79.625 61.1973C79.2875 61.1815 78.7433 61.1701 77.918 61.1611C76.2674 61.1432 73.4976 61.1377 69.0225 61.1377C65.9753 61.1377 63.1727 61.1307 61.1123 61.1201C60.0824 61.1148 59.2378 61.1085 58.6406 61.1016C58.3422 61.0981 58.1049 61.0946 57.9375 61.0908C57.8539 61.0889 57.7868 61.087 57.7383 61.085C57.6948 61.0832 57.6554 61.0812 57.6357 61.0771C56.9533 60.9379 56.5718 60.1764 56.8662 59.5439C56.9361 59.3937 57.0232 59.2746 57.1455 59.1758C57.2666 59.0781 57.4179 59.0042 57.6104 58.9385L57.6396 58.9326C57.6454 58.932 57.6524 58.9311 57.6592 58.9307C57.6733 58.9298 57.6927 58.9295 57.7158 58.9287C57.7624 58.9272 57.8292 58.9252 57.9141 58.9238C58.0838 58.921 58.3292 58.9184 58.6416 58.916C59.2671 58.9112 60.1628 58.908 61.2617 58.9053C63.4596 58.8998 66.472 58.8987 69.7686 58.9033ZM87.4873 79.1914C87.0698 79.158 86.6577 79.1749 86.4248 79.248C86.2134 79.3146 85.9366 79.4728 85.6689 79.6729C85.4019 79.8725 85.1533 80.107 84.9961 80.3184C83.7594 81.9804 84.7443 84.4913 86.7852 84.876C88.0305 85.1105 89.3331 84.404 89.877 83.1904C90.0291 82.8507 90.1032 82.4186 90.0957 81.9824C90.0882 81.5464 89.9991 81.1143 89.835 80.7734C89.5613 80.2054 89.088 79.7198 88.5049 79.4131C88.301 79.306 87.9052 79.2249 87.4873 79.1914ZM65.6484 79.1641C65.2785 79.168 64.9176 79.2264 64.6475 79.334C63.3244 79.8612 62.5875 81.3406 62.9492 82.7568C63.1795 83.6584 63.6804 84.2478 64.5889 84.6768C65.911 85.301 67.5672 84.6718 68.2354 83.2754C68.3791 82.9749 68.4661 82.58 68.4873 82.1748C68.5085 81.7696 68.4632 81.3616 68.3516 81.0371C68.2431 80.7222 67.9807 80.3454 67.6611 80.0166C67.3411 79.6874 66.9765 79.4195 66.6758 79.3125C66.3882 79.2101 66.0181 79.1602 65.6484 79.1641ZM80.8936 67.3203C80.8465 67.5113 79.2553 74.6308 77.9043 80.6963L77.8535 80.9268H82.3906L82.4873 80.5996C82.9521 79.016 84.2453 77.6605 85.7646 77.1689C86.1975 77.0289 86.7412 76.9594 87.2803 76.959C87.8192 76.9586 88.3613 77.0276 88.792 77.167C90.3269 77.6638 91.6079 79.0044 92.0762 80.5996C92.1047 80.6969 92.1259 80.7641 92.1465 80.8135C92.1669 80.8623 92.183 80.8829 92.1963 80.8936C92.2086 80.9034 92.2284 80.9129 92.2734 80.9189C92.3204 80.9252 92.383 80.9268 92.4756 80.9268H92.7705L93.4307 77.3232C93.7005 75.8484 93.8658 74.9057 93.957 74.2852C94.0488 73.6609 94.0633 73.3733 94.04 73.2021C93.7931 71.3889 92.924 69.7912 91.5879 68.6885C91.2363 68.3984 90.7332 68.0882 90.2158 67.8291C89.6978 67.5697 89.1732 67.3649 88.7803 67.2812C88.5389 67.2299 88.1825 67.196 87.5273 67.1748C86.8735 67.1537 85.9271 67.1462 84.5078 67.1455L80.9365 67.1436L80.8936 67.3203ZM62.1221 74.9199L62.1514 74.9502L62.4639 75.2695C62.6901 75.5002 62.8147 75.7659 62.8232 76.0352C62.8318 76.3052 62.7234 76.5673 62.5078 76.7871L62.2393 77.0615L62.21 77.0908H49.5742L49.5449 77.0615L49.2207 76.7295C49.0772 76.5832 48.981 76.4766 48.9346 76.3564C48.8868 76.2325 48.8956 76.1055 48.918 75.9355C48.9742 75.5088 49.2032 75.1616 49.5508 75.0166C49.5662 75.0102 49.5828 75.0071 49.5908 75.0059C49.6019 75.0041 49.6155 75.0033 49.6299 75.002C49.6591 74.9992 49.6985 74.9957 49.7461 74.9932C49.8416 74.988 49.976 74.9833 50.1436 74.9785C50.4788 74.969 50.9511 74.9606 51.5254 74.9531C52.6745 74.9381 54.2344 74.9274 55.9268 74.9258L62.0791 74.9199H62.1221ZM62.1221 68.9141L62.1514 68.9443L62.4639 69.2637C62.6901 69.4943 62.8147 69.7601 62.8232 70.0293C62.8318 70.2992 62.7232 70.5606 62.5078 70.7803L62.2393 71.0547L62.21 71.085H56.8887C53.9609 71.085 52.5595 71.0931 51.8594 71.0176C51.5116 70.98 51.3112 70.9202 51.1836 70.8076C51.1187 70.7503 51.0776 70.6839 51.0449 70.6143C51.0145 70.5494 50.9859 70.4678 50.9551 70.3926C50.7578 69.9112 50.9249 69.3832 51.3633 69.1104C51.5272 69.0085 51.685 68.9639 52.3984 68.9404C53.1162 68.9168 54.4183 68.9152 56.8926 68.915L62.0801 68.9141H62.1221ZM62.1221 62.9082L62.1514 62.9385L62.4639 63.2568C62.69 63.4874 62.8145 63.7533 62.8232 64.0225C62.8319 64.2926 62.7234 64.5546 62.5078 64.7744L62.2393 65.0488L62.21 65.0791H53.4443L53.415 65.0488L53.1465 64.7744C52.6702 64.2888 52.766 63.447 53.3398 63.084C53.4103 63.0395 53.4959 63.0096 53.6377 62.9873C53.7786 62.9651 53.9823 62.9494 54.292 62.9385C54.9123 62.9165 55.9761 62.9112 57.8594 62.9102L62.0801 62.9082H62.1221Z" fill="url(#paint0_linear_403_4537)" stroke="url(#paint1_linear_403_4537)" stroke-width="0.2"/>
<defs>
<linearGradient id="paint0_linear_403_4537" x1="51.2324" y1="63.447" x2="89.0105" y2="82.8494" gradientUnits="userSpaceOnUse">
<stop stop-color="#D48B00"/>
<stop offset="0.31808" stop-color="#6E4800"/>
<stop offset="0.667704" stop-color="#D48B00"/>
<stop offset="0.875589" stop-color="#D48B00"/>
<stop offset="1" stop-color="#6E4800"/>
</linearGradient>
<linearGradient id="paint1_linear_403_4537" x1="49" y1="62.0032" x2="92.1199" y2="95.3643" gradientUnits="userSpaceOnUse">
<stop stop-color="#D48B00"/>
<stop offset="0.322115" stop-color="#6E4800"/>
<stop offset="0.615385" stop-color="#D48B00"/>
<stop offset="0.783654" stop-color="#D48B00"/>
<stop offset="0.995192" stop-color="#6E4800"/>
</linearGradient>
</defs>
</svg>
