<svg width="17" height="17" viewBox="0 0 17 17" fill="none" xmlns="http://www.w3.org/2000/svg">
<path fill-rule="evenodd" clip-rule="evenodd" d="M5.3587 0.0188351C4.31832 0.0639346 3.74884 0.153967 3.11519 0.373549C1.80655 0.827036 0.842242 1.78958 0.387926 3.09584C0.0536395 4.05695 -0.00019922 4.80839 5.52477e-07 8.51003C0.000133734 10.8354 0.0300996 12.0754 0.0998203 12.6417C0.188553 13.3624 0.361356 13.9464 0.652392 14.5089C1.16897 15.5073 2.02054 16.2351 3.11519 16.6135C4.07423 16.9451 4.84219 17.0002 8.50599 17C10.7683 16.9999 12.0836 16.9681 12.6611 16.8997C13.9312 16.7492 14.8973 16.2999 15.6596 15.5052C16.4049 14.7281 16.801 13.8175 16.9531 12.5314C17.016 11.9992 17.0154 4.90653 16.9524 4.40555C16.8245 3.38837 16.5188 2.55142 16.0412 1.91029C15.8038 1.59167 15.2995 1.10774 14.982 0.893871C14.2618 0.408811 13.4293 0.151309 12.2517 0.0492781C11.7424 0.00514243 6.23544 -0.0191854 5.3587 0.0188351ZM5.05991 1.5808C3.28453 1.68316 2.26442 2.34244 1.81713 3.67655C1.58377 4.37261 1.5517 4.95233 1.55077 8.49341C1.5498 12.1847 1.58323 12.7035 1.87157 13.4698C2.03955 13.9161 2.17509 14.1219 2.54804 14.4969C2.84863 14.7992 2.91911 14.8515 3.23149 15.0038C3.83767 15.2993 4.30877 15.3886 5.52605 15.439C6.53773 15.4808 10.5075 15.4808 11.5192 15.439C12.4178 15.4018 12.7117 15.3686 13.1435 15.2555C13.7483 15.0971 14.184 14.8437 14.5844 14.4175C15.129 13.8378 15.358 13.2191 15.4555 12.0639C15.4852 11.7114 15.4973 10.677 15.4973 8.49341C15.4973 4.74275 15.4735 4.35261 15.198 3.58319C15.0366 3.13243 14.8511 2.83903 14.5191 2.50931C14.005 1.99879 13.4793 1.76528 12.5256 1.62384C12.2204 1.57857 11.6847 1.5697 8.83895 1.56289C7.0077 1.55847 5.30713 1.56654 5.05991 1.5808ZM12.7413 2.99115C12.0307 3.24413 11.825 4.13801 12.3555 4.6675C12.5637 4.87532 12.7544 4.95176 13.0675 4.95292C13.2928 4.95375 13.363 4.93963 13.523 4.8612C13.86 4.69602 14.0504 4.40598 14.0757 4.01933C14.0981 3.67741 14.0235 3.47674 13.7863 3.24021C13.6597 3.11395 13.5478 3.03681 13.4361 2.99892C13.2402 2.93242 12.9164 2.9288 12.7413 2.99115ZM7.7402 4.19477C7.36695 4.26184 6.8252 4.44875 6.49298 4.62506C5.69299 5.0496 4.99998 5.75654 4.59604 6.56012C4.44844 6.85368 4.27374 7.39109 4.21061 7.74563C4.13433 8.17413 4.13982 8.88675 4.2227 9.31019C4.65337 11.511 6.66315 13.0355 8.88056 12.8434C9.96956 12.7491 10.9001 12.3065 11.6625 11.5203C12.1449 11.0229 12.4549 10.5164 12.6677 9.87834C12.8236 9.41069 12.8841 9.02361 12.8841 8.49341C12.8841 7.75441 12.7567 7.20614 12.4324 6.54919C12.0257 5.72546 11.2884 4.98722 10.4595 4.57358C10.1633 4.42576 9.62435 4.25161 9.27575 4.19105C8.9064 4.12688 8.10724 4.1288 7.7402 4.19477ZM7.94932 5.71689C7.17437 5.88625 6.46371 6.39597 6.07063 7.06432C5.83383 7.4669 5.72059 7.86448 5.70075 8.3629C5.68144 8.8476 5.73754 9.19666 5.89569 9.57627C6.18044 10.2597 6.77999 10.85 7.4764 11.1324C8.03013 11.357 8.80515 11.3805 9.38832 11.1904C9.82669 11.0475 10.1766 10.8335 10.5032 10.5084C10.8233 10.1898 11.0158 9.90512 11.1563 9.5425C11.8011 7.87788 10.8005 6.05057 9.06076 5.71553C8.76676 5.6589 8.21156 5.65959 7.94932 5.71689Z" fill="white"/>
</svg>
