<svg width="14" height="14" viewBox="0 0 14 14" fill="none" xmlns="http://www.w3.org/2000/svg">
<path fill-rule="evenodd" clip-rule="evenodd" d="M0.0498501 0.0762831C0.0772649 0.117651 1.30187 1.86164 2.77121 3.95185C4.24056 6.04209 5.44276 7.7651 5.44276 7.78082C5.44276 7.79654 4.23651 9.18074 2.76218 10.8568C1.28785 12.533 0.0627183 13.9258 0.0396675 13.9522C-5.59411e-05 13.9975 0.0297366 14 0.612916 14H1.2281L3.6035 11.3021C4.90999 9.81818 5.99153 8.60066 6.00691 8.59645C6.0223 8.59224 6.88987 9.80629 7.93487 11.2944L9.83483 14H14L13.9501 13.9248C13.9227 13.8835 12.6547 12.0779 11.1322 9.91243C9.60983 7.74697 8.35905 5.96247 8.35278 5.94688C8.34649 5.9313 9.51069 4.59019 10.9398 2.96665L13.5383 0.0147645L12.3312 0L12.2425 0.0894071C12.1938 0.138567 11.1751 1.2923 9.97867 2.65323C8.78227 4.01416 7.79573 5.12992 7.78636 5.13268C7.77696 5.13547 6.95832 3.98198 5.96713 2.5694L4.16498 0.00109366H0L0.0498501 0.0762831ZM1.68489 0.914632C1.68489 0.920811 3.64591 3.66763 6.04275 7.01865L10.4006 13.1114L11.3463 13.1186C11.9603 13.1233 12.2887 13.1163 12.2826 13.0988C12.2774 13.0839 10.3156 10.3342 7.92315 6.98835L3.57315 0.90498L2.62902 0.90416C2.10976 0.903722 1.68489 0.908425 1.68489 0.914632Z" fill="white"/>
</svg>
