<svg width="22" height="15" viewBox="0 0 22 15" fill="none" xmlns="http://www.w3.org/2000/svg">
<path fill-rule="evenodd" clip-rule="evenodd" d="M9.55135 0.00550516C6.44701 0.0341096 3.51933 0.199881 2.52421 0.403464C1.75953 0.559895 1.01492 1.11254 0.648518 1.79565C0.20495 2.6225 0 4.42712 0 7.50532C0 10.5609 0.206098 12.3936 0.640067 13.1972C0.948916 13.7691 1.48522 14.2394 2.07651 14.4569C2.89259 14.757 5.13257 14.928 8.98799 14.9845C13.881 15.0563 18.5076 14.8724 19.6311 14.5616C20.6446 14.2812 21.3486 13.5324 21.6008 12.4664C22.1508 10.1409 22.1279 4.44473 21.5603 2.39679C21.2438 1.25498 20.4084 0.561861 19.1053 0.359798C17.5456 0.117956 13.5262 -0.0310996 9.55135 0.00550516ZM8.79347 7.50532C8.79347 9.26292 8.80109 10.701 8.81046 10.701C8.871 10.701 14.4496 7.54116 14.4523 7.50532C14.455 7.46938 8.8784 4.30967 8.81225 4.30967C8.80192 4.30967 8.79347 5.74771 8.79347 7.50532Z" fill="white"/>
</svg>
