<svg width="14" height="16" viewBox="0 0 14 16" fill="none" xmlns="http://www.w3.org/2000/svg">
<path d="M8.90247 13.9572C8.94929 13.6001 9.07849 13.2587 9.27987 12.96C9.28465 12.9514 9.28893 12.9424 9.29262 12.9333C13.6064 10.4021 13.8642 4.87116 13.8663 4.80978C13.8686 4.74959 13.8503 4.69042 13.8146 4.64191C13.7789 4.59341 13.7278 4.55844 13.6697 4.54272C13.1656 4.40384 12.6859 4.18792 12.2477 3.90259C12.2789 3.75981 12.2703 3.61121 12.2229 3.47297C12.1754 3.33473 12.091 3.21215 11.9787 3.11858C11.8665 3.025 11.7307 2.96402 11.5862 2.94226C11.4416 2.92051 11.2939 2.93881 11.1591 2.99519C10.848 2.66473 10.5715 2.30331 10.334 1.91656C10.3296 1.90941 10.3249 1.9025 10.32 1.89572C10.1392 1.60869 9.98418 1.30621 9.85675 0.991844C9.75531 0.311906 8.29622 0 6.93325 0C5.57028 0 4.11119 0.311906 4.00975 0.991844C3.88232 1.30621 3.72731 1.60869 3.54653 1.89572C3.54159 1.9025 3.5369 1.90941 3.53247 1.91656C3.29496 2.30331 3.0185 2.66473 2.7074 2.99519C2.57257 2.93838 2.4247 2.91975 2.27999 2.94133C2.13528 2.96292 1.99929 3.02389 1.88689 3.11757C1.7745 3.21125 1.69004 3.33404 1.64275 3.4725C1.59545 3.61096 1.58715 3.75976 1.61875 3.90263C1.18055 4.18793 0.700917 4.40385 0.19681 4.54275C0.138671 4.55848 0.0875776 4.59345 0.0518679 4.64195C0.0161582 4.69045 -0.00206029 4.74962 0.000185307 4.80981C0.00234156 4.87119 0.260029 10.4018 4.57387 12.9333C4.57759 12.9425 4.58184 12.9514 4.58662 12.9601C4.78659 13.2594 4.91519 13.6006 4.96253 13.9574C3.26294 14.116 2.3999 14.4437 2.3999 14.9334C2.3999 15.9486 6.17622 16 6.93325 16C7.69028 16 11.4666 15.9486 11.4666 14.9333C11.4666 14.4435 10.6031 14.1157 8.90247 13.9572ZM11.4666 3.46666C11.5373 3.46671 11.6051 3.49483 11.6551 3.54482C11.7051 3.59482 11.7332 3.66261 11.7332 3.73331C11.7332 3.88059 11.6139 3.99997 11.4666 3.99997C11.3193 3.99997 11.1999 3.88059 11.1999 3.73331C11.1999 3.58603 11.3193 3.46666 11.4666 3.46666ZM10.9332 4.66666C10.9332 4.88756 10.7542 5.06666 10.5332 5.06666C10.3124 5.06641 10.1335 4.88747 10.1332 4.66666C10.1332 4.44575 10.3123 4.26666 10.5332 4.26666C10.7542 4.26666 10.9332 4.44575 10.9332 4.66666ZM6.93325 0.533344C8.47909 0.533344 9.27856 0.91575 9.33247 1.06669C9.27856 1.21759 8.47909 1.6 6.93325 1.6C5.37334 1.6 4.57362 1.21066 4.53272 1.07069C4.57362 0.922656 5.37334 0.533344 6.93325 0.533344ZM3.97806 2.21041L3.989 2.19412V2.19425C4.11115 1.99827 4.22364 1.79644 4.32606 1.58947C4.47378 1.6898 4.6342 1.77002 4.80309 1.82803C4.82166 1.83716 4.84126 1.84401 4.86147 1.84844C5.53333 2.04929 6.23214 2.14536 6.93328 2.13328C7.63449 2.14535 8.33336 2.04924 9.00528 1.84834C9.02516 1.84393 9.04445 1.83719 9.06275 1.82825C9.23189 1.77021 9.39254 1.6899 9.54047 1.58944C9.64291 1.7964 9.7554 1.99823 9.87753 2.19422V2.19409L9.88847 2.21038C10.1418 2.62052 10.4357 3.0041 10.7659 3.35531C10.7017 3.471 10.6675 3.60098 10.6666 3.73331C10.6666 3.73797 10.6679 3.74228 10.668 3.74694C10.6235 3.73909 10.5785 3.73454 10.5333 3.73331C10.0552 3.73484 9.65587 4.09822 9.60934 4.57409C9.51955 4.54833 9.42672 4.53461 9.33331 4.53331C8.81725 4.53437 8.376 4.90481 8.28556 5.41291C7.8014 5.22481 7.25119 5.37759 6.93331 5.78837C6.82208 5.64711 6.68035 5.5328 6.51873 5.454C6.35711 5.3752 6.17977 5.33394 5.99997 5.33331C5.85667 5.33435 5.71475 5.36131 5.58106 5.41291C5.49062 4.90481 5.04937 4.53441 4.53331 4.53331C4.4399 4.5346 4.34707 4.54831 4.25728 4.57409C4.21078 4.09822 3.81147 3.73488 3.33331 3.73331C3.28814 3.73453 3.24312 3.73909 3.19862 3.74694C3.19869 3.74231 3.2 3.738 3.2 3.73331C3.19908 3.60099 3.16494 3.47101 3.10072 3.35531C3.43085 3.0041 3.72479 2.62052 3.97806 2.21041ZM9.86659 5.6C9.86659 5.89456 9.62781 6.13334 9.33325 6.13334C9.03884 6.133 8.80025 5.89444 8.7999 5.6C8.7999 5.30544 9.03868 5.06666 9.33325 5.06666C9.62781 5.06666 9.86659 5.30544 9.86659 5.6ZM8.53325 6.53334C8.53325 6.90153 8.23478 7.2 7.86659 7.2C7.4984 7.2 7.19994 6.90153 7.19994 6.53334C7.20031 6.16531 7.49856 5.86706 7.86659 5.86669C8.23478 5.86666 8.53325 6.16516 8.53325 6.53334ZM6.66659 6.53334C6.66659 6.90153 6.36812 7.2 5.99994 7.2C5.63175 7.2 5.33328 6.90153 5.33328 6.53334C5.33365 6.16531 5.6319 5.86706 5.99994 5.86669C6.36812 5.86666 6.66659 6.16516 6.66659 6.53334ZM5.06659 5.6C5.06659 5.89456 4.82781 6.13334 4.53325 6.13334C4.23869 6.13334 3.9999 5.89456 3.9999 5.6C4.00025 5.30559 4.23884 5.067 4.53325 5.06666C4.82781 5.06666 5.06659 5.30544 5.06659 5.6ZM3.33325 4.26666C3.55415 4.26666 3.73325 4.44575 3.73325 4.66666C3.73325 4.88756 3.55415 5.06666 3.33325 5.06666C3.11234 5.06666 2.93325 4.88756 2.93325 4.66666C2.9335 4.44584 3.11244 4.26691 3.33325 4.26666ZM2.3999 3.46666C2.54719 3.46666 2.66656 3.58603 2.66656 3.73331C2.66656 3.88059 2.54719 3.99997 2.3999 3.99997C2.32918 3.99997 2.26136 3.97187 2.21135 3.92187C2.16134 3.87186 2.13325 3.80403 2.13325 3.73331C2.13333 3.66262 2.16145 3.59484 2.21144 3.54485C2.26143 3.49486 2.32921 3.46674 2.3999 3.46666ZM0.548342 4.99531C1.02629 4.84328 1.4817 4.62788 1.90244 4.35488C2.04293 4.46957 2.21854 4.53256 2.3999 4.53334C2.40459 4.53334 2.40887 4.53203 2.4135 4.53197C2.40567 4.57648 2.40113 4.62151 2.3999 4.66669C2.40053 5.18191 2.81803 5.59941 3.33325 5.60003C3.37842 5.59881 3.42344 5.59425 3.46794 5.58641C3.46787 5.59106 3.46656 5.59534 3.46656 5.60003C3.46719 6.18888 3.94437 6.66606 4.53322 6.66669C4.62663 6.6654 4.71946 6.65169 4.80925 6.62591C4.82606 6.86582 4.91513 7.09503 5.06473 7.28334C5.21434 7.47165 5.41747 7.61023 5.64738 7.68085C5.87728 7.75147 6.12318 7.7508 6.3527 7.67894C6.58222 7.60708 6.7846 7.4674 6.93319 7.27828C7.08178 7.46738 7.28416 7.60705 7.51367 7.6789C7.74319 7.75075 7.98908 7.75141 8.21898 7.6808C8.44888 7.61018 8.652 7.4716 8.80161 7.28331C8.95122 7.09501 9.0403 6.86582 9.05712 6.62591C9.14692 6.65167 9.23974 6.66539 9.33315 6.66669C9.922 6.66606 10.3992 6.18888 10.3998 5.60003C10.3998 5.59534 10.3985 5.59106 10.3984 5.58641C10.4429 5.59425 10.488 5.59881 10.5331 5.60003C11.0483 5.59941 11.4658 5.18191 11.4665 4.66669C11.4652 4.62151 11.4607 4.57648 11.4529 4.53197C11.4575 4.53206 11.4618 4.53334 11.4665 4.53334C11.6478 4.53256 11.8235 4.46957 11.964 4.35488C12.3848 4.62794 12.8403 4.84335 13.3183 4.99534C13.2175 6.10706 12.485 11.4103 7.648 13.1082C7.18519 13.269 6.68171 13.2691 6.21884 13.1085C1.38847 11.4128 0.650435 6.10744 0.548342 4.99531ZM6.93325 15.4667C4.6119 15.4667 3.27647 15.1394 2.97569 14.9346C3.14428 14.8242 3.69709 14.6156 4.97065 14.4923C4.95774 14.617 4.93425 14.7404 4.90044 14.8612C4.89039 14.8951 4.88717 14.9306 4.89099 14.9658C4.8948 15.0009 4.90556 15.035 4.92264 15.0659C4.93972 15.0969 4.96279 15.1241 4.9905 15.1461C5.0182 15.168 5.05 15.1843 5.08403 15.1938C5.11807 15.2034 5.15366 15.2061 5.18875 15.2018C5.22384 15.1975 5.25772 15.1862 5.28842 15.1687C5.31912 15.1512 5.34604 15.1277 5.36759 15.0997C5.38915 15.0717 5.40493 15.0396 5.414 15.0055C5.56757 14.4564 5.54902 13.8735 5.36084 13.3353C5.58022 13.4342 5.80522 13.5284 6.0429 13.6118C6.61981 13.8119 7.2473 13.8118 7.82415 13.6116C8.06165 13.5282 8.28647 13.434 8.50572 13.3353C8.3175 13.8735 8.29893 14.4564 8.45253 15.0055C8.462 15.0392 8.47803 15.0707 8.49968 15.0982C8.52134 15.1258 8.54821 15.1488 8.57875 15.1659C8.60929 15.1831 8.64291 15.194 8.67769 15.1982C8.71247 15.2023 8.74773 15.1996 8.78145 15.1901C8.81517 15.1806 8.8467 15.1646 8.87423 15.143C8.90175 15.1213 8.92475 15.0944 8.94189 15.0639C8.95904 15.0333 8.97 14.9997 8.97415 14.9649C8.9783 14.9302 8.97556 14.8949 8.96609 14.8612C8.93222 14.7404 8.90856 14.617 8.89537 14.4922C10.1693 14.6155 10.7222 14.8242 10.8908 14.9346C10.59 15.1395 9.25459 15.4667 6.93325 15.4667Z" fill="white"/>
</svg>
