<svg width="14" height="9" viewBox="0 0 14 9" fill="none" xmlns="http://www.w3.org/2000/svg">
<path d="M14 3C14 2.4485 13.5515 2 13 2C12.8965 2 12.7985 2.02025 12.7045 2.04975C12.5644 1.90976 12.4104 1.78436 12.245 1.6755C12.2467 1.6585 12.25 1.64225 12.25 1.625C12.25 1.49239 12.1973 1.36521 12.1036 1.27145C12.0098 1.17768 11.8826 1.125 11.75 1.125C11.6255 1.125 11.513 1.17225 11.4253 1.24775C11.2839 1.18969 11.1408 1.13616 10.996 1.08725C10.9866 0.862376 10.8908 0.649804 10.7285 0.493829C10.5663 0.337855 10.3501 0.250512 10.125 0.25C9.7995 0.25 9.5185 0.43075 9.36775 0.695C9.21275 0.669 9.05775 0.646 8.903 0.62525C8.86809 0.585981 8.82528 0.554526 8.77737 0.532943C8.72947 0.511359 8.67754 0.500134 8.625 0.5C8.5445 0.5 8.4705 0.526 8.40925 0.569C8.27301 0.555943 8.13657 0.544942 8 0.536V0.5C8 0.22425 7.77575 0 7.5 0H6.25C6.1837 0 6.12011 0.0263393 6.07322 0.0732234C6.02634 0.120107 6 0.183696 6 0.25V0.53925C5.865 0.54875 5.7305 0.56 5.59575 0.573C5.53181 0.5258 5.45448 0.500227 5.375 0.5C5.26175 0.5 5.16125 0.5515 5.0925 0.631C4.93725 0.6515 4.7845 0.67425 4.6345 0.69925C4.4845 0.4325 4.202 0.25 3.875 0.25C3.6497 0.250523 3.4333 0.338031 3.27097 0.494264C3.10863 0.650497 3.0129 0.863383 3.00375 1.0885C2.853 1.13825 2.70775 1.19025 2.57175 1.24525C2.48228 1.16807 2.36816 1.12542 2.25 1.125C2.11739 1.125 1.99021 1.17768 1.89645 1.27145C1.80268 1.36521 1.75 1.49239 1.75 1.625C1.75 1.63825 1.753 1.6505 1.754 1.6635C1.58338 1.77358 1.42506 1.90165 1.28175 2.0455C1.19055 2.01671 1.09563 2.00138 1 2C0.4485 2 0 2.4485 0 3C0 3.534 0.4215 3.96775 0.949 3.99475C1.002 4.0905 1.067 4.18325 1.1405 4.27375C1.1315 4.30625 1.125 4.33975 1.125 4.375C1.125 4.47446 1.16451 4.56984 1.23483 4.64017C1.30516 4.71049 1.40054 4.75 1.5 4.75C1.54425 4.75 1.58625 4.741 1.62575 4.72675C1.73975 4.8105 1.8645 4.891 2 4.96825V5.5355C1.56975 5.64725 1.25 6.0355 1.25 6.5C1.25 7.0515 1.6985 7.5 2.25 7.5C2.8015 7.5 3.25 7.0515 3.25 6.5C3.25 6.0355 2.93025 5.64725 2.5 5.5355V5.221C2.60525 5.267 2.7165 5.31225 2.837 5.3575C3.05741 5.43688 3.28092 5.50735 3.507 5.56875C3.543 6.0875 3.972 6.5 4.5 6.5C4.69164 6.49952 4.8791 6.44399 5.04007 6.34001C5.20105 6.23603 5.32876 6.08799 5.408 5.9135C5.85396 5.95952 6.30172 5.98588 6.75 5.9925V6.49975C6.64825 6.40975 6.53325 6.33375 6.40675 6.2925C6.32022 6.26319 6.22856 6.25207 6.13752 6.25986C6.04649 6.26765 5.95805 6.29417 5.87775 6.33775C5.62675 6.4705 5.48925 6.7345 5.50075 7.062C5.519 7.5955 5.95275 8.3175 6.87925 8.72825C6.9102 8.742 6.94363 8.74932 6.97749 8.74975C7.01136 8.75018 7.04496 8.74371 7.07625 8.73075C8.0145 8.34225 8.4665 7.6305 8.49825 7.09725C8.5175 6.77075 8.38725 6.50375 8.13975 6.365C8.06056 6.31965 7.97288 6.29109 7.88216 6.28111C7.79145 6.27113 7.69966 6.27994 7.6125 6.307C7.4785 6.34725 7.35725 6.427 7.25 6.52075V5.99275C7.69838 5.98637 8.14625 5.95985 8.59225 5.91325C8.67134 6.08782 8.79897 6.23596 8.95992 6.33999C9.12087 6.44403 9.30835 6.49957 9.5 6.5C10.028 6.5 10.457 6.0875 10.493 5.56875C10.7198 5.50625 10.945 5.437 11.165 5.35675C11.2845 5.312 11.3953 5.267 11.5 5.22125V5.30275C11.1917 5.41475 10.8212 5.725 10.7785 6.411C10.7577 6.7425 10.8413 6.974 10.9148 7.17825C11.0268 7.49025 11.1155 7.7365 10.7782 8.385C10.7543 8.43103 10.7452 8.48339 10.7523 8.5348C10.7594 8.58622 10.7824 8.63414 10.818 8.67193C10.8536 8.70971 10.9 8.73548 10.9509 8.74567C11.0018 8.75585 11.0546 8.74994 11.102 8.72875C12.9065 7.92275 12.7898 6.65525 12.711 6.28575C12.6103 5.81275 12.3252 5.4375 12 5.30525V4.96875C12.1292 4.89557 12.2541 4.81494 12.374 4.72725C12.4135 4.741 12.4555 4.75 12.5 4.75C12.5995 4.75 12.6948 4.71049 12.7652 4.64017C12.8355 4.56984 12.875 4.47446 12.875 4.375C12.875 4.33975 12.8685 4.30625 12.8595 4.27375C12.9332 4.18325 12.9983 4.0905 13.0513 3.99475C13.5785 3.96775 14 3.534 14 3ZM13.5 3C13.5 3.27575 13.2758 3.5 13 3.5C12.7242 3.5 12.5 3.27575 12.5 3C12.5 2.72425 12.7242 2.5 13 2.5C13.2758 2.5 13.5 2.72425 13.5 3ZM10.125 0.75C10.3317 0.75 10.5 0.91825 10.5 1.125C10.5 1.33175 10.3317 1.5 10.125 1.5C9.91825 1.5 9.75 1.33175 9.75 1.125C9.75 0.91825 9.91825 0.75 10.125 0.75ZM6.5 0.5H7.5V1H6.5V0.5ZM3.875 0.75C4.08175 0.75 4.25 0.91825 4.25 1.125C4.25 1.33175 4.08175 1.5 3.875 1.5C3.78811 1.49984 3.70397 1.46956 3.63691 1.4143C3.56985 1.35905 3.52403 1.28225 3.50725 1.197C3.50675 1.1955 3.50725 1.194 3.50675 1.19225C3.50246 1.17008 3.5002 1.14758 3.5 1.125C3.5 0.91825 3.66825 0.75 3.875 0.75ZM0.5 3C0.5 2.72425 0.72425 2.5 1 2.5C1.27575 2.5 1.5 2.72425 1.5 3C1.5 3.27575 1.27575 3.5 1 3.5C0.72425 3.5 0.5 3.27575 0.5 3ZM2.75 6.5C2.75 6.77575 2.52575 7 2.25 7C1.97425 7 1.75 6.77575 1.75 6.5C1.75 6.22425 1.97425 6 2.25 6C2.52575 6 2.75 6.22425 2.75 6.5ZM4.5 6C4.22425 6 4 5.77575 4 5.5C4 5.22425 4.22425 5 4.5 5C4.77575 5 5 5.22425 5 5.5C5 5.77575 4.77575 6 4.5 6ZM7.757 6.786C7.77971 6.77823 7.80385 6.77556 7.8277 6.7782C7.85156 6.78083 7.87454 6.78871 7.895 6.80125C7.991 6.85525 8.0045 6.976 7.999 7.06775C7.97825 7.41625 7.6515 7.91625 6.98375 8.2255C6.32575 7.9005 6.01225 7.3935 6 7.04475C5.99675 6.95225 6.01375 6.83125 6.11125 6.7795C6.13224 6.76737 6.15564 6.76001 6.17979 6.75794C6.20394 6.75586 6.22825 6.75913 6.251 6.7675C6.4535 6.83325 6.68 7.1655 6.77525 7.3595C6.86525 7.54325 7.133 7.5365 7.222 7.3645C7.32125 7.173 7.55425 6.84675 7.757 6.786ZM9.5 6C9.22425 6 9 5.77575 9 5.5C9 5.22425 9.22425 5 9.5 5C9.77575 5 10 5.22425 10 5.5C10 5.77575 9.77575 6 9.5 6ZM10.9917 4.88775C10.7976 4.95764 10.6009 5.02018 10.402 5.07525C10.3216 4.90373 10.1942 4.75859 10.0345 4.65675C9.87477 4.5549 9.68941 4.50054 9.5 4.5C8.976 4.5 8.55 4.90625 8.50825 5.41925C8.08959 5.46183 7.66928 5.48627 7.2485 5.4925C7.2445 5.35825 7.1355 5.25 7 5.25C6.8645 5.25 6.756 5.358 6.7515 5.49225C6.33073 5.48579 5.91043 5.46135 5.49175 5.419C5.44975 4.906 5.02375 4.5 4.5 4.5C4.31062 4.50052 4.12529 4.55488 3.96563 4.65674C3.80597 4.75859 3.67855 4.90374 3.59825 5.07525C3.39998 5.02038 3.20384 4.95809 3.01025 4.8885C2.83658 4.82444 2.66628 4.75159 2.5 4.67025V4.5C2.5004 4.44285 2.48113 4.3873 2.44542 4.34268C2.40971 4.29806 2.35973 4.26708 2.30389 4.25494C2.24804 4.24281 2.18971 4.25025 2.13871 4.27603C2.0877 4.3018 2.04711 4.34434 2.02375 4.3965C1.9681 4.35901 1.91374 4.31966 1.86075 4.2785C1.84263 4.2104 1.80566 4.1488 1.75409 4.10078C1.70253 4.05275 1.63846 4.02025 1.56925 4.007C1.53303 3.96599 1.49891 3.92319 1.467 3.87875C1.7825 3.71025 2 3.38175 2 3C1.99963 2.74443 1.90078 2.49882 1.724 2.31425C1.81575 2.23225 1.91875 2.15225 2.03675 2.07575C2.10175 2.1065 2.1735 2.125 2.25 2.125C2.495 2.125 2.698 1.9485 2.74075 1.716C2.86824 1.66458 2.9973 1.61714 3.12775 1.57375C3.20486 1.70331 3.31423 1.81067 3.44519 1.88537C3.57615 1.96008 3.72423 1.99957 3.875 2C4.336 2 4.71075 1.6405 4.74375 1.18775C4.8625 1.16825 4.98225 1.15025 5.1045 1.1335C5.17275 1.205 5.2685 1.25 5.375 1.25C5.51225 1.25 5.631 1.1755 5.69625 1.0655C5.79875 1.05575 5.90125 1.04775 6.004 1.04025C6.01391 1.16514 6.07041 1.28174 6.1623 1.3669C6.25418 1.45207 6.37472 1.49958 6.5 1.5H7.5C7.763 1.5 7.97725 1.295 7.99625 1.03675C8.09825 1.04375 8.2 1.05175 8.301 1.06075C8.36575 1.17325 8.486 1.25 8.625 1.25C8.6766 1.24993 8.72762 1.23913 8.77483 1.2183C8.82204 1.19747 8.86441 1.16706 8.89925 1.129C9.018 1.14525 9.137 1.1635 9.25575 1.18325C9.2865 1.638 9.6625 2 10.125 2C10.4432 2 10.7195 1.8275 10.8725 1.573C11.0075 1.62 11.1377 1.66875 11.2595 1.72025C11.2816 1.83415 11.3426 1.93681 11.4321 2.01065C11.5216 2.0845 11.634 2.12492 11.75 2.125C11.8223 2.125 11.8902 2.109 11.9522 2.0815C12.071 2.1595 12.175 2.2405 12.2677 2.324C12.0963 2.50739 12.0006 2.74892 12 3C12 3.38175 12.2175 3.71025 12.5328 3.87875C12.501 3.92331 12.4669 3.96612 12.4305 4.007C12.3614 4.02024 12.2973 4.05272 12.2458 4.1007C12.1943 4.14868 12.1574 4.21022 12.1392 4.27825C12.088 4.31825 12.0335 4.35775 11.9762 4.3965C11.9527 4.34458 11.9121 4.3023 11.8611 4.27671C11.8102 4.25112 11.752 4.24377 11.6963 4.25587C11.6406 4.26798 11.5907 4.29882 11.555 4.34324C11.5193 4.38767 11.4999 4.44299 11.5 4.5V4.667C11.348 4.7425 11.184 4.81575 10.9917 4.88775ZM11.479 7.9455C11.571 7.5255 11.474 7.25575 11.3853 7.0085C11.3197 6.82675 11.2635 6.67 11.2775 6.4415C11.3153 5.8325 11.6885 5.75875 11.7615 5.75C11.8988 5.7595 12.1405 6.0065 12.222 6.38925C12.2718 6.6225 12.3355 7.336 11.479 7.9455Z" fill="white"/>
</svg>
