<svg width="13" height="13" viewBox="0 0 13 13" fill="none" xmlns="http://www.w3.org/2000/svg">
<path d="M10.4926 3.33875C10.4728 3.30783 10.4456 3.28239 10.4134 3.26477C10.3812 3.24714 10.3451 3.23789 10.3084 3.23787H2.59263C2.55592 3.23789 2.5198 3.24714 2.48761 3.26477C2.45541 3.28239 2.42816 3.30783 2.40838 3.33875L1.95438 4.04825C1.79356 3.85935 1.70528 3.61934 1.70537 3.37125C1.70537 3.31323 1.68233 3.25759 1.6413 3.21657C1.60028 3.17555 1.54464 3.1525 1.48662 3.1525C1.42861 3.1525 1.37297 3.17555 1.33195 3.21657C1.29092 3.25759 1.26787 3.31323 1.26787 3.37125C1.26764 3.64942 1.15704 3.91614 0.960337 4.11284C0.763638 4.30954 0.496924 4.42014 0.21875 4.42037C0.160734 4.42037 0.105094 4.44342 0.0640703 4.48445C0.0230468 4.52547 0 4.58111 0 4.63912C0 4.69714 0.0230468 4.75278 0.0640703 4.7938C0.105094 4.83483 0.160734 4.85787 0.21875 4.85787C0.398639 4.8581 0.575444 4.9046 0.732165 4.99291C0.888885 5.08122 1.02025 5.20837 1.11363 5.36212L0.479375 6.353C0.453223 6.39389 0.441413 6.44231 0.445803 6.49065C0.450193 6.53899 0.470535 6.58449 0.503625 6.62L6.29112 12.8312C6.31156 12.8533 6.33632 12.8708 6.36385 12.8828C6.39138 12.8948 6.42109 12.901 6.45112 12.901C6.48116 12.901 6.51087 12.8948 6.5384 12.8828C6.56593 12.8708 6.59069 12.8533 6.61113 12.8312L8.9505 10.3199C9.11221 10.4569 9.24215 10.6275 9.3313 10.8197C9.42045 11.012 9.46667 11.2214 9.46675 11.4334C9.46675 11.4914 9.4898 11.547 9.53082 11.5881C9.57184 11.6291 9.62748 11.6521 9.6855 11.6521C9.74352 11.6521 9.79916 11.6291 9.84018 11.5881C9.8812 11.547 9.90425 11.4914 9.90425 11.4334C9.90471 11.0454 10.059 10.6735 10.3333 10.3992C10.6076 10.1249 10.9796 9.97059 11.3675 9.97013C11.4255 9.97013 11.4812 9.94708 11.5222 9.90606C11.5632 9.86503 11.5863 9.80939 11.5863 9.75138C11.5863 9.69336 11.5632 9.63772 11.5222 9.59669C11.4812 9.55567 11.4255 9.53263 11.3675 9.53263C11.1445 9.53246 10.9245 9.48121 10.7244 9.38282C10.5242 9.28442 10.3493 9.1415 10.213 8.965L12.3976 6.62C12.4307 6.58449 12.4511 6.53899 12.4554 6.49065C12.4598 6.44231 12.448 6.39389 12.4219 6.353L10.4926 3.33875ZM11.838 6.25225H8.77913L10.3084 3.863L11.838 6.25225ZM4.52187 6.06475L2.99225 3.6755H6.0505L4.52187 6.06475ZM6.4505 3.863L7.97975 6.25225H4.92125L6.4505 3.863ZM4.3605 6.68975L5.9575 11.8321L1.1665 6.68975H4.3605ZM4.8185 6.68975H8.0825L6.4505 11.9447L4.8185 6.68975ZM8.3795 6.06475L6.8505 3.6755H9.90875L8.3795 6.06475ZM2.59263 3.863L4.12187 6.25225H1.063L1.26975 5.92912C1.27511 5.98504 1.30183 6.03673 1.34436 6.07343C1.38688 6.11014 1.44192 6.12902 1.49802 6.12615C1.55411 6.12328 1.60694 6.09889 1.6455 6.05804C1.68406 6.01719 1.70537 5.96304 1.705 5.90688C1.70526 5.62872 1.81589 5.36204 2.01258 5.16537C2.20928 4.9687 2.47597 4.85811 2.75413 4.85787C2.81214 4.85787 2.86778 4.83483 2.9088 4.7938C2.94983 4.75278 2.97288 4.69714 2.97288 4.63912C2.97288 4.58111 2.94983 4.52547 2.9088 4.48445C2.86778 4.44342 2.81214 4.42037 2.75413 4.42037C2.59742 4.42023 2.44278 4.38468 2.30175 4.31637L2.59263 3.863ZM1.48662 4.14675C1.58488 4.30574 1.71208 4.44489 1.86162 4.557C1.86738 4.56205 1.87339 4.56681 1.87963 4.57125C1.88238 4.573 1.8855 4.574 1.88838 4.57562C1.91825 4.59725 1.94762 4.61975 1.97925 4.63912C1.77872 4.76224 1.61004 4.93088 1.48688 5.13137C1.36372 4.93091 1.19509 4.76228 0.994625 4.63912C1.19503 4.51593 1.36359 4.34725 1.48662 4.14675ZM10.4826 9.75138C10.1428 9.93103 9.86503 10.2088 9.68538 10.5486C9.53728 10.2693 9.32224 10.0312 9.0595 9.85538C9.05051 9.848 9.04089 9.84144 9.03075 9.83575C8.98438 9.80575 8.93712 9.77725 8.88812 9.75138C9.22795 9.57178 9.50578 9.29395 9.68538 8.95412C9.69975 8.98137 9.71575 9.00738 9.73137 9.03375C9.73772 9.04814 9.74559 9.0618 9.75488 9.0745C9.93357 9.36031 10.1846 9.59383 10.4826 9.75138ZM9.90413 8.0695C9.90413 8.01148 9.88108 7.95584 9.84006 7.91482C9.79903 7.8738 9.74339 7.85075 9.68538 7.85075C9.62736 7.85075 9.57172 7.8738 9.53069 7.91482C9.48967 7.95584 9.46663 8.01148 9.46663 8.0695C9.466 8.45732 9.31161 8.82906 9.03731 9.10321C8.76301 9.37737 8.39119 9.53157 8.00337 9.532C7.94536 9.532 7.88972 9.55505 7.8487 9.59607C7.80767 9.63709 7.78462 9.69273 7.78462 9.75075C7.78462 9.80877 7.80767 9.86441 7.8487 9.90543C7.88972 9.94645 7.94536 9.9695 8.00337 9.9695C8.1985 9.96927 8.39167 10.0083 8.57137 10.0844L6.9435 11.8321L8.5405 6.68975H11.7345L9.991 8.56125C9.93387 8.40358 9.90448 8.2372 9.90413 8.0695ZM6.4505 2.03975C6.47923 2.03977 6.50768 2.03412 6.53423 2.02313C6.56078 2.01214 6.5849 1.99603 6.60522 1.97572C6.62553 1.9554 6.64164 1.93128 6.65263 1.90473C6.66362 1.87818 6.66927 1.84973 6.66925 1.821V0.21875C6.66925 0.160734 6.6462 0.105094 6.60518 0.0640703C6.56416 0.0230468 6.50852 0 6.4505 0C6.39248 0 6.33684 0.0230468 6.29582 0.0640703C6.2548 0.105094 6.23175 0.160734 6.23175 0.21875V1.821C6.23173 1.84973 6.23738 1.87818 6.24837 1.90473C6.25936 1.93128 6.27547 1.9554 6.29578 1.97572C6.3161 1.99603 6.34022 2.01214 6.36677 2.02313C6.39332 2.03412 6.42177 2.03977 6.4505 2.03975ZM4.743 2.3075C4.78401 2.34851 4.83963 2.37155 4.89762 2.37155C4.95562 2.37155 5.01124 2.34851 5.05225 2.3075C5.09326 2.26649 5.1163 2.21087 5.1163 2.15287C5.1163 2.09488 5.09326 2.03926 5.05225 1.99825L3.91937 0.86525C3.8992 0.844353 3.87507 0.827683 3.84838 0.816214C3.82169 0.804744 3.79299 0.798703 3.76395 0.798445C3.7349 0.798187 3.70609 0.803716 3.67921 0.814709C3.65232 0.825703 3.62789 0.841941 3.60735 0.862476C3.58681 0.883011 3.57056 0.907431 3.55956 0.934313C3.54855 0.961194 3.54301 0.989997 3.54326 1.01904C3.5435 1.04809 3.54953 1.07679 3.56099 1.10348C3.57245 1.13018 3.58911 1.15432 3.61 1.1745L4.743 2.3075ZM8.00337 2.37162C8.0321 2.37166 8.06055 2.36601 8.08709 2.355C8.11363 2.344 8.13773 2.32786 8.158 2.3075L9.291 1.1745C9.31189 1.15432 9.32855 1.13018 9.34001 1.10348C9.35147 1.07679 9.3575 1.04809 9.35774 1.01904C9.35799 0.989997 9.35245 0.961194 9.34144 0.934313C9.33044 0.907431 9.31419 0.883011 9.29365 0.862476C9.2731 0.841941 9.24868 0.825703 9.22179 0.814709C9.19491 0.803716 9.1661 0.798187 9.13705 0.798445C9.10801 0.798703 9.07931 0.804744 9.05262 0.816214C9.02593 0.827683 9.0018 0.844353 8.98162 0.86525L7.84875 1.99825C7.81818 2.02884 7.79736 2.06781 7.78893 2.11023C7.7805 2.15265 7.78483 2.19661 7.80138 2.23657C7.81793 2.27653 7.84595 2.31069 7.8819 2.33472C7.91785 2.35876 7.96013 2.3716 8.00337 2.37162ZM12.6798 1.93412C12.4622 1.93389 12.2537 1.84737 12.0999 1.69354C11.9461 1.53972 11.8596 1.33115 11.8594 1.11363C11.8594 1.05561 11.8363 0.999969 11.7953 0.958946C11.7543 0.917922 11.6986 0.894875 11.6406 0.894875C11.5826 0.894875 11.527 0.917922 11.4859 0.958946C11.4449 0.999969 11.4219 1.05561 11.4219 1.11363C11.4216 1.33118 11.3351 1.53974 11.1812 1.69356C11.0274 1.84738 10.8188 1.93389 10.6012 1.93412C10.5432 1.93412 10.4876 1.95717 10.4466 1.9982C10.4055 2.03922 10.3825 2.09486 10.3825 2.15287C10.3825 2.21089 10.4055 2.26653 10.4466 2.30755C10.4876 2.34858 10.5432 2.37162 10.6012 2.37162C10.8188 2.37186 11.0274 2.45837 11.1812 2.61219C11.3351 2.76601 11.4216 2.97457 11.4219 3.19212C11.4219 3.25014 11.4449 3.30578 11.4859 3.3468C11.527 3.38783 11.5826 3.41087 11.6406 3.41087C11.6986 3.41087 11.7543 3.38783 11.7953 3.3468C11.8363 3.30578 11.8594 3.25014 11.8594 3.19212C11.8596 2.9746 11.9461 2.76603 12.0999 2.61221C12.2537 2.45838 12.4622 2.37186 12.6798 2.37162C12.7378 2.37162 12.7934 2.34858 12.8344 2.30755C12.8755 2.26653 12.8985 2.21089 12.8985 2.15287C12.8985 2.09486 12.8755 2.03922 12.8344 1.9982C12.7934 1.95717 12.7378 1.93412 12.6798 1.93412ZM11.6406 2.48413C11.5518 2.35415 11.4395 2.24186 11.3095 2.153C11.4395 2.06419 11.5518 1.95194 11.6406 1.822C11.7294 1.95197 11.8417 2.06422 11.9716 2.153C11.8417 2.24179 11.7294 2.35417 11.6406 2.48413Z" fill="white"/>
</svg>
