<svg width="15" height="12" viewBox="0 0 15 12" fill="none" xmlns="http://www.w3.org/2000/svg">
<path d="M14.5221 0.0345506C14.4096 -0.0279494 14.2846 0.0220507 14.2221 0.122051C13.2346 1.95955 12.2471 3.43455 11.3096 4.49705C10.9596 4.33455 10.5346 4.49705 10.3721 4.84705C10.2846 5.03455 10.2846 5.24705 10.3721 5.43455C10.2346 5.55955 10.0971 5.67205 9.95955 5.77205C9.60955 5.47205 9.09705 5.52205 8.79705 5.85955C8.63455 6.04705 8.57205 6.29705 8.60955 6.54705C8.47205 6.59705 8.33455 6.64705 8.18455 6.68455C7.99705 6.19705 7.45955 5.95955 6.97205 6.13455C6.72205 6.23455 6.52205 6.43455 6.42205 6.68455C6.28455 6.64705 6.14705 6.60955 6.00955 6.54705C6.09705 6.09705 5.80955 5.67205 5.35955 5.58455C5.10955 5.53455 4.84705 5.60955 4.65955 5.77205C4.52205 5.67205 4.38455 5.55955 4.24705 5.43455C4.40955 5.08455 4.27205 4.65955 3.92205 4.49705C3.73455 4.40955 3.50955 4.40955 3.32205 4.49705C2.38455 3.42205 1.39705 1.95955 0.409551 0.109551C0.347051 0.00955066 0.222051 -0.0279494 0.109551 0.0220506C0.00955056 0.0845506 -0.0279494 0.209551 0.0220506 0.309551C1.04705 2.20955 2.02205 3.67205 2.99705 4.78455C2.80955 5.12205 2.93455 5.55955 3.27205 5.74705C3.48455 5.85955 3.73455 5.87205 3.94705 5.74705C4.09705 5.88455 4.25955 6.00955 4.40955 6.13455C4.27205 6.57205 4.49705 7.03455 4.93455 7.17205C5.24705 7.27205 5.58455 7.18455 5.80955 6.93455C5.98455 7.00955 6.17205 7.05955 6.35955 7.10955C6.39705 7.50955 6.68455 7.83455 7.07205 7.92205V8.43455L6.58455 9.32205L5.64705 9.83455C5.49705 9.92205 5.49705 10.1346 5.64705 10.2221L6.58455 10.7346L7.09705 11.6721C7.18455 11.8221 7.39705 11.8221 7.48455 11.6721L7.99705 10.7346L8.93455 10.2221C9.08455 10.1346 9.08455 9.92205 8.93455 9.83455L7.99705 9.32205L7.50955 8.43455V7.92205C7.89705 7.83455 8.18455 7.49705 8.22205 7.10955C8.40955 7.05955 8.59705 6.99705 8.78455 6.93455C9.08455 7.27205 9.60955 7.30955 9.94705 7.00955C10.1971 6.78455 10.2846 6.43455 10.1846 6.12205C10.3346 6.00955 10.4846 5.88455 10.6471 5.74705C10.9846 5.93455 11.4221 5.80955 11.6096 5.47205C11.7221 5.25955 11.7221 4.99705 11.6096 4.78455C12.5846 3.68455 13.5596 2.22205 14.5846 0.322051C14.6721 0.222051 14.6346 0.0970506 14.5221 0.0345506ZM3.64705 4.87205C3.79705 4.87205 3.90955 4.99705 3.92205 5.13455C3.92205 5.37205 3.63455 5.49705 3.45955 5.32205C3.29705 5.17205 3.40955 4.87205 3.64705 4.87205ZM5.23455 6.79705C5.02205 6.79705 4.84705 6.62205 4.84705 6.40955C4.84705 6.19705 5.02205 6.02205 5.23455 6.02205C5.44705 6.02205 5.62205 6.19705 5.62205 6.40955C5.62205 6.62205 5.44705 6.79705 5.23455 6.79705ZM7.77205 9.70955L8.42205 10.0596L7.77205 10.4096C7.73455 10.4346 7.70955 10.4595 7.68455 10.4971L7.33455 11.1471L6.98455 10.4971C6.95955 10.4595 6.93455 10.4346 6.89705 10.4096L6.24705 10.0596L6.89705 9.70955C6.93455 9.68455 6.95955 9.65955 6.98455 9.62205L7.33455 8.97205L7.68455 9.62205C7.70955 9.65955 7.73455 9.69705 7.77205 9.70955ZM7.33455 7.53455C7.05955 7.53455 6.83455 7.30955 6.83455 7.03455C6.83455 6.75955 7.05955 6.53455 7.33455 6.53455C7.60955 6.53455 7.83455 6.75955 7.83455 7.03455C7.83455 7.30955 7.60955 7.53455 7.33455 7.53455ZM9.44705 6.79705C9.23455 6.79705 9.05955 6.62205 9.05955 6.40955C9.05955 6.19705 9.23455 6.02205 9.44705 6.02205C9.65955 6.02205 9.83455 6.19705 9.83455 6.40955C9.83455 6.62205 9.65955 6.79705 9.44705 6.79705ZM11.0221 5.40955C10.8721 5.40955 10.7596 5.28455 10.7596 5.14705C10.7596 5.00955 10.8846 4.88455 11.0221 4.88455C11.1971 4.88455 11.2846 4.99705 11.2846 5.14705C11.2971 5.29705 11.1721 5.40955 11.0221 5.40955Z" fill="white"/>
</svg>
