<svg width="16" height="14" viewBox="0 0 16 14" fill="none" xmlns="http://www.w3.org/2000/svg">
<path d="M15.7244 6.77851C15.7144 6.70677 15.6805 6.64052 15.6281 6.5905L9.93091 1.61331C9.87378 1.56391 9.79943 1.53914 9.72409 1.54441C9.64875 1.54968 9.57857 1.58456 9.52887 1.64142C9.47918 1.69829 9.45402 1.77252 9.4589 1.84788C9.46378 1.92324 9.49829 1.99361 9.5549 2.0436L14.9264 6.73651L12.6249 7.84766L5.15114 1.13044L7.89431 0.593295L8.69175 1.29187C8.74873 1.34185 8.82324 1.36714 8.89887 1.36218C8.9745 1.35723 9.04507 1.32243 9.09504 1.26545C9.14502 1.20846 9.17031 1.13396 9.16535 1.05833C9.16039 0.982695 9.1256 0.91213 9.06861 0.862155L8.16574 0.0707178C8.13283 0.041996 8.09379 0.0211712 8.0516 0.00983207C8.00941 -0.0015071 7.96519 -0.00306111 7.92231 0.00528844L4.47941 0.679582C4.40356 0.702848 4.33704 0.749563 4.28941 0.813012L2.66368 3.52161C2.62903 3.57947 2.61596 3.64772 2.62678 3.71428C2.63761 3.78084 2.67163 3.84144 2.72282 3.88533L4.7897 5.65849L1.11366 7.8548C1.05667 7.89479 1.01266 7.95062 0.987089 8.01538L0.0127918 11.1526C-0.00902077 11.223 -0.00276664 11.2991 0.0302469 11.365C0.0632604 11.4309 0.120478 11.4816 0.189937 11.5063L1.36709 11.9263C1.43829 11.9509 1.51634 11.9465 1.58427 11.9139C1.65219 11.8813 1.70449 11.8231 1.72977 11.7522C1.75504 11.6812 1.75126 11.6031 1.71925 11.5349C1.68723 11.4667 1.62957 11.4139 1.55881 11.388L0.639942 11.0606L1.44567 8.46567L4.42456 9.48568L4.53799 12.4471L2.63568 11.7711C2.56426 11.7457 2.48568 11.7498 2.41723 11.7823C2.34878 11.8149 2.29606 11.8733 2.27068 11.9447C2.24529 12.0161 2.24932 12.0947 2.28187 12.1632C2.31442 12.2316 2.37283 12.2843 2.44425 12.3097L4.74428 13.1269C4.78581 13.1406 4.82985 13.145 4.87329 13.1399C4.91672 13.1348 4.95851 13.1202 4.99571 13.0971L7.93003 11.1914C7.96149 11.171 7.98861 11.1445 8.00985 11.1136C8.0311 11.0827 8.04604 11.0478 8.05382 11.0111C8.06161 10.9744 8.06209 10.9365 8.05524 10.8997C8.04839 10.8628 8.03433 10.8276 8.01388 10.7961C7.99344 10.7647 7.96699 10.7375 7.93606 10.7163C7.90513 10.6951 7.87031 10.6801 7.83361 10.6723C7.7969 10.6645 7.75902 10.6641 7.72213 10.6709C7.68524 10.6778 7.65006 10.6918 7.61859 10.7123L5.10599 12.3443L4.99399 9.42596L7.32659 7.8348L9.36033 9.57939L8.57575 10.0894C8.54429 10.1098 8.51716 10.1363 8.49592 10.1672C8.47468 10.1982 8.45974 10.233 8.45195 10.2697C8.44417 10.3064 8.44368 10.3443 8.45054 10.3812C8.45739 10.418 8.47144 10.4532 8.49189 10.4847C8.51234 10.5161 8.53878 10.5433 8.56972 10.5645C8.60065 10.5858 8.63546 10.6007 8.67217 10.6085C8.70887 10.6163 8.74675 10.6168 8.78365 10.6099C8.82054 10.603 8.85572 10.589 8.88718 10.5685L9.81233 9.96683C9.81948 9.96911 11.8446 11.7168 11.8544 11.7154C11.8962 11.7486 11.9465 11.7693 11.9996 11.7751C12.0527 11.781 12.1063 11.7716 12.1544 11.7483L13.9915 10.8483C14.058 10.814 14.1083 10.7551 14.1318 10.6841C14.1553 10.6132 14.1501 10.5358 14.1172 10.4687C14.0844 10.4016 14.0265 10.35 13.9561 10.325C13.8856 10.3 13.8082 10.3037 13.7404 10.3351L12.4004 10.9914L12.8341 8.38138L15.1947 7.24165L15.4115 9.51911L14.7658 9.83511C14.6978 9.86845 14.6458 9.92746 14.6212 9.99915C14.5967 10.0708 14.6016 10.1494 14.635 10.2174C14.6683 10.2854 14.7273 10.3375 14.799 10.362C14.8707 10.3865 14.9492 10.3816 15.0173 10.3483L15.8401 9.9454C15.8923 9.9199 15.9354 9.87911 15.9637 9.82846C15.992 9.77782 16.0042 9.71973 15.9987 9.66197L15.7244 6.77851ZM4.65942 8.96196L1.93567 8.02909L5.24714 6.05078L6.87744 7.44937L4.65942 8.96196ZM11.8292 10.944L3.27769 3.60876L4.60085 1.40416L12.2692 8.29566L11.8292 10.944Z" fill="white"/>
<path d="M9.54832 11.0748C9.47254 11.0748 9.39987 11.1049 9.34629 11.1585C9.2927 11.2121 9.2626 11.2848 9.2626 11.3606V11.6231C9.2626 11.6989 9.2927 11.7716 9.34629 11.8252C9.39987 11.8788 9.47254 11.9089 9.54832 11.9089C9.6241 11.9089 9.69677 11.8788 9.75035 11.8252C9.80393 11.7716 9.83404 11.6989 9.83404 11.6231V11.3606C9.83404 11.2848 9.80393 11.2121 9.75035 11.1585C9.69677 11.1049 9.6241 11.0748 9.54832 11.0748ZM8.95088 11.9349H8.68831C8.61253 11.9349 8.53986 11.965 8.48628 12.0185C8.43269 12.0721 8.40259 12.1448 8.40259 12.2206C8.40259 12.2964 8.43269 12.369 8.48628 12.4226C8.53986 12.4762 8.61253 12.5063 8.68831 12.5063H8.9506C9.02637 12.5063 9.09905 12.4762 9.15263 12.4226C9.20621 12.369 9.23631 12.2964 9.23631 12.2206C9.23631 12.1448 9.20621 12.0721 9.15263 12.0185C9.09905 11.965 9.02637 11.9349 8.9506 11.9349H8.95088ZM9.54832 12.5329C9.47254 12.5329 9.39987 12.563 9.34629 12.6165C9.2927 12.6701 9.2626 12.7428 9.2626 12.8186V13.0812C9.2626 13.1569 9.2927 13.2296 9.34629 13.2832C9.39987 13.3368 9.47254 13.3669 9.54832 13.3669C9.6241 13.3669 9.69677 13.3368 9.75035 13.2832C9.80393 13.2296 9.83404 13.1569 9.83404 13.0812V12.8186C9.83404 12.7428 9.80393 12.6701 9.75035 12.6165C9.69677 12.563 9.6241 12.5329 9.54832 12.5329ZM10.4086 11.9349H10.1463C10.0705 11.9349 9.99788 11.965 9.94429 12.0185C9.89071 12.0721 9.86061 12.1448 9.86061 12.2206C9.86061 12.2964 9.89071 12.369 9.94429 12.4226C9.99788 12.4762 10.0705 12.5063 10.1463 12.5063H10.4086C10.4844 12.5063 10.5571 12.4762 10.6106 12.4226C10.6642 12.369 10.6943 12.2964 10.6943 12.2206C10.6943 12.1448 10.6642 12.0721 10.6106 12.0185C10.5571 11.965 10.4844 11.9349 10.4086 11.9349ZM1.83937 5.32736C1.91515 5.32736 1.98782 5.29725 2.04141 5.24367C2.09499 5.19009 2.12509 5.11741 2.12509 5.04164V4.77906C2.12509 4.70329 2.09499 4.63061 2.04141 4.57703C1.98782 4.52345 1.91515 4.49335 1.83937 4.49335C1.7636 4.49335 1.69092 4.52345 1.63734 4.57703C1.58376 4.63061 1.55365 4.70329 1.55365 4.77906V5.04164C1.55365 5.11741 1.58376 5.19009 1.63734 5.24367C1.69092 5.29725 1.7636 5.32736 1.83937 5.32736ZM0.979077 5.92508H1.24137C1.31714 5.92508 1.38982 5.89497 1.4434 5.84139C1.49698 5.78781 1.52708 5.71514 1.52708 5.63936C1.52708 5.56358 1.49698 5.49091 1.4434 5.43733C1.38982 5.38374 1.31714 5.35364 1.24137 5.35364H0.979077C0.9033 5.35364 0.830627 5.38374 0.777044 5.43733C0.723462 5.49091 0.693359 5.56358 0.693359 5.63936C0.693359 5.71514 0.723462 5.78781 0.777044 5.84139C0.830627 5.89497 0.9033 5.92508 0.979077 5.92508ZM1.83937 6.78537C1.91515 6.78537 1.98782 6.75527 2.04141 6.70169C2.09499 6.6481 2.12509 6.57543 2.12509 6.49965V6.23708C2.12509 6.1613 2.09499 6.08863 2.04141 6.03505C1.98782 5.98146 1.91515 5.95136 1.83937 5.95136C1.7636 5.95136 1.69092 5.98146 1.63734 6.03505C1.58376 6.08863 1.55365 6.1613 1.55365 6.23708V6.49965C1.55365 6.57543 1.58376 6.6481 1.63734 6.70169C1.69092 6.75527 1.7636 6.78537 1.83937 6.78537ZM2.43681 5.92508H2.69938C2.77516 5.92508 2.84783 5.89497 2.90142 5.84139C2.955 5.78781 2.9851 5.71514 2.9851 5.63936C2.9851 5.56358 2.955 5.49091 2.90142 5.43733C2.84783 5.38374 2.77516 5.35364 2.69938 5.35364H2.43681C2.36103 5.35364 2.28836 5.38374 2.23478 5.43733C2.18119 5.49091 2.15109 5.56358 2.15109 5.63936C2.15109 5.71514 2.18119 5.78781 2.23478 5.84139C2.28836 5.89497 2.36103 5.92508 2.43681 5.92508ZM12.9201 1.77046C12.9958 1.77046 13.0685 1.74036 13.1221 1.68677C13.1757 1.63319 13.2058 1.56052 13.2058 1.48474V1.22188C13.2058 1.14611 13.1757 1.07343 13.1221 1.01985C13.0685 0.966267 12.9958 0.936165 12.9201 0.936165C12.8443 0.936165 12.7716 0.966267 12.718 1.01985C12.6645 1.07343 12.6344 1.14611 12.6344 1.22188V1.48474C12.6344 1.56052 12.6645 1.63319 12.718 1.68677C12.7716 1.74036 12.8443 1.77046 12.9201 1.77046ZM12.0598 2.36789H12.3226C12.3984 2.36789 12.4711 2.33779 12.5247 2.28421C12.5783 2.23063 12.6084 2.15795 12.6084 2.08218C12.6084 2.0064 12.5783 1.93373 12.5247 1.88014C12.4711 1.82656 12.3984 1.79646 12.3226 1.79646H12.0598C11.984 1.79646 11.9113 1.82656 11.8577 1.88014C11.8042 1.93373 11.7741 2.0064 11.7741 2.08218C11.7741 2.15795 11.8042 2.23063 11.8577 2.28421C11.9113 2.33779 11.984 2.36789 12.0598 2.36789ZM12.9201 3.22819C12.9958 3.22819 13.0685 3.19809 13.1221 3.14451C13.1757 3.09092 13.2058 3.01825 13.2058 2.94247V2.68018C13.2058 2.60441 13.1757 2.53173 13.1221 2.47815C13.0685 2.42457 12.9958 2.39447 12.9201 2.39447C12.8443 2.39447 12.7716 2.42457 12.718 2.47815C12.6645 2.53173 12.6344 2.60441 12.6344 2.68018V2.94247C12.6344 3.01825 12.6645 3.09092 12.718 3.14451C12.7716 3.19809 12.8443 3.22819 12.9201 3.22819ZM13.5178 2.36789H13.7804C13.8561 2.36789 13.9288 2.33779 13.9824 2.28421C14.036 2.23063 14.0661 2.15795 14.0661 2.08218C14.0661 2.0064 14.036 1.93373 13.9824 1.88014C13.9288 1.82656 13.8561 1.79646 13.7804 1.79646H13.5175C13.4417 1.79646 13.3691 1.82656 13.3155 1.88014C13.2619 1.93373 13.2318 2.0064 13.2318 2.08218C13.2318 2.15795 13.2619 2.23063 13.3155 2.28421C13.3691 2.33779 13.442 2.36789 13.5178 2.36789Z" fill="white"/>
</svg>
