<svg width="28" height="25" viewBox="0 0 28 25" fill="none" xmlns="http://www.w3.org/2000/svg">
<path d="M27.0944 5.98229L23.5811 1.74479C23.1491 1.20556 22.5793 0.766009 21.919 0.46258C21.2587 0.15915 20.5269 0.000576792 19.7843 1.83582e-06H8.22123C7.48221 -0.000617432 6.75359 0.155442 6.09533 0.455338C5.43707 0.755234 4.86799 1.19039 4.43493 1.725L0.858657 5.99271C0.276377 6.72572 -0.0243315 7.60737 0.00153994 8.50569C0.0274113 9.40402 0.378471 10.2707 1.00217 10.976L11.2608 23.8177C11.5877 24.1873 12.0044 24.4857 12.4794 24.6905C12.9544 24.8953 13.4753 25.0012 14.0028 25C14.5393 24.999 15.0685 24.8882 15.5495 24.676C16.0305 24.4638 16.4506 24.1559 16.7774 23.776L26.9544 11.0771C27.606 10.3614 27.9733 9.47301 27.9986 8.55102C28.0239 7.62904 27.7059 6.7256 27.0944 5.98229ZM21.6944 2.96979L25.2158 7.21771C25.2345 7.24062 25.2391 7.26771 25.2578 7.29167H19.5498L17.8836 2.08333H19.7843C20.1588 2.08437 20.5276 2.16538 20.8599 2.31959C21.1921 2.4738 21.4783 2.69674 21.6944 2.96979ZM14.0028 19.9146L10.8524 9.375H17.1532L14.0028 19.9146ZM10.8827 7.29167L12.5489 2.08333H15.4566L17.1228 7.29167H10.8827ZM6.32166 2.95521C6.53816 2.68582 6.82333 2.46627 7.15361 2.31467C7.4839 2.16307 7.84984 2.08378 8.22123 2.08333H10.122L8.45575 7.29167H2.70572C2.72205 7.26875 2.72672 7.24062 2.74539 7.21875L6.32166 2.95521ZM2.8574 9.71354C2.77315 9.6073 2.70085 9.49391 2.64154 9.375H8.43942L11.9328 21.0729L2.8574 9.71354ZM16.0692 21.0833L19.5696 9.375H25.3873C25.3122 9.53048 25.217 9.67765 25.1038 9.81354L16.0692 21.0833Z" fill="#8D0007"/>
</svg>
