<svg width="34" height="34" viewBox="0 0 34 34" fill="none" xmlns="http://www.w3.org/2000/svg">
<path d="M19.3904 10.6931C18.7851 10.7025 18.1929 10.8715 17.6738 11.183C17.1547 11.4944 16.727 11.9374 16.4338 12.467C16.1407 11.9374 15.7129 11.4944 15.1938 11.183C14.6747 10.8715 14.0826 10.7025 13.4773 10.6931C12.5123 10.735 11.6032 11.1572 10.9485 11.8673C10.2938 12.5774 9.94677 13.5177 9.98319 14.4829C9.98319 16.9271 12.5559 19.5966 14.7137 21.4065C15.1954 21.8114 15.8045 22.0333 16.4338 22.0333C17.0631 22.0333 17.6722 21.8114 18.154 21.4065C20.3117 19.5966 22.8845 16.9271 22.8845 14.4829C22.9209 13.5177 22.5738 12.5774 21.9191 11.8673C21.2644 11.1572 20.3553 10.735 19.3904 10.6931ZM17.4632 20.5841C17.1751 20.8267 16.8105 20.9598 16.4338 20.9598C16.0571 20.9598 15.6926 20.8267 15.4044 20.5841C12.6425 18.2667 11.0583 16.0434 11.0583 14.4829C11.0216 13.8027 11.2552 13.1356 11.7084 12.6271C12.1616 12.1185 12.7974 11.8098 13.4773 11.7682C14.1572 11.8098 14.793 12.1185 15.2462 12.6271C15.6993 13.1356 15.933 13.8027 15.8963 14.4829C15.8963 14.6254 15.9529 14.7622 16.0537 14.863C16.1545 14.9638 16.2913 15.0204 16.4338 15.0204C16.5764 15.0204 16.7131 14.9638 16.8139 14.863C16.9147 14.7622 16.9714 14.6254 16.9714 14.4829C16.9346 13.8027 17.1683 13.1356 17.6215 12.6271C18.0746 12.1185 18.7105 11.8098 19.3904 11.7682C20.0702 11.8098 20.7061 12.1185 21.1593 12.6271C21.6124 13.1356 21.8461 13.8027 21.8094 14.4829C21.8094 16.0434 20.2252 18.2667 17.4632 20.5819V20.5841Z" fill="#ABABAB"/>
<circle cx="16.7525" cy="16.7525" r="16.2178" stroke="#F0F0F0" stroke-width="1.06931"/>
</svg>
