<svg width="26" height="26" viewBox="0 0 26 26" fill="none" xmlns="http://www.w3.org/2000/svg">
<path fill-rule="evenodd" clip-rule="evenodd" d="M0.199951 4.85717V20.5669L4.83765 25.2001H20.5622L25.2 20.5669V4.85825L20.5623 0.225057L4.88806 0.200134L0.199951 4.85717ZM5.27164 0.622334C5.27133 0.643469 5.46148 1.12672 5.69425 1.69626L6.11747 2.7318H19.2824L19.7057 1.69626C19.9384 1.12672 20.1286 0.643469 20.1283 0.622334C20.1279 0.601198 16.7852 0.583952 12.7 0.583952C8.61472 0.583952 5.27199 0.601198 5.27164 0.622334ZM2.78756 2.84126C1.66075 3.9702 0.761844 4.90415 0.790018 4.91679C0.818192 4.92944 1.30227 5.13153 1.86575 5.36591L2.89026 5.79205L5.77303 2.92458L5.38981 1.99737C5.17907 1.48736 4.98344 1.00677 4.95516 0.929388C4.92684 0.85201 4.88852 0.788655 4.86998 0.788655C4.85148 0.788655 3.91442 1.71233 2.78756 2.84126ZM20.4447 0.929388C20.4165 1.00677 20.2208 1.48736 20.0101 1.99737L19.6269 2.92458L22.5096 5.79349L23.5598 5.35931C24.1373 5.12053 24.6204 4.9147 24.6332 4.90195C24.6596 4.87575 20.5823 0.788655 20.5299 0.788655C20.5114 0.788655 20.4731 0.85201 20.4447 0.929388ZM6.40321 3.40875C6.46094 3.55511 6.51959 3.69329 6.53358 3.7158C6.56672 3.76944 18.8332 3.76944 18.8663 3.7158C18.8803 3.69329 18.939 3.55511 18.9967 3.40875L19.1017 3.14274H6.29825L6.40321 3.40875ZM4.61293 4.64582C3.89854 5.35993 3.33516 5.9572 3.36092 5.97311C3.38669 5.98903 3.52387 6.04778 3.66577 6.10366L3.92369 6.20519L6.198 3.93146L6.06876 3.63945C5.99766 3.47886 5.93326 3.34744 5.92563 3.34744C5.91805 3.34744 5.32732 3.93171 4.61293 4.64582ZM19.3311 3.63965L19.2017 3.93182L21.4893 6.21712L22.0924 5.9507L20.7902 4.64904C20.0741 3.93315 19.4819 3.34744 19.4743 3.34744C19.4666 3.34744 19.4022 3.47891 19.3311 3.63965ZM6.89318 4.58845C6.99368 4.82064 7.0988 5.07396 7.12677 5.15138L7.17763 5.29212H18.2223L18.2731 5.15138C18.3011 5.07396 18.4062 4.82069 18.5067 4.58845L18.6894 4.16625H6.71046L6.89318 4.58845ZM5.32537 5.36699C4.77757 5.91482 4.33979 6.3728 4.35255 6.38472C4.36535 6.39669 4.61405 6.50483 4.90527 6.62509L5.43474 6.84371L6.82428 5.45552L6.60135 4.91326C6.47871 4.61501 6.36556 4.37095 6.34988 4.37095C6.33421 4.37095 5.87318 4.81915 5.32537 5.36699ZM18.7986 4.91326L18.5756 5.45552L19.9652 6.84371L20.4946 6.62509C20.7858 6.50483 21.0345 6.39669 21.0474 6.38472C21.0722 6.36154 19.0979 4.37095 19.05 4.37095C19.0343 4.37095 18.9212 4.61501 18.7986 4.91326ZM0.559503 12.7126C0.559503 16.7939 0.576766 20.1332 0.597922 20.1334C0.619078 20.1336 1.10306 19.9436 1.67345 19.7112L2.71057 19.2887V6.13652L1.67345 5.71396C1.10306 5.48157 0.619078 5.29155 0.597922 5.29176C0.576766 5.29196 0.559503 8.63133 0.559503 12.7126ZM23.7018 5.71918L22.6912 6.13652V19.2887L23.7274 19.7109C24.2973 19.9431 24.7809 20.1331 24.802 20.1331C24.8231 20.1331 24.8404 16.7939 24.8404 12.7126C24.8404 6.80774 24.8273 5.29309 24.7764 5.29698C24.7412 5.29964 24.2576 5.4896 23.7018 5.71918ZM8.02726 6.40519C8.33226 6.79223 8.87566 7.4831 9.2348 7.94046L9.88777 8.77207H15.5098L16.1637 7.94046C16.5234 7.4831 17.0673 6.79223 17.3724 6.40519L17.9273 5.70152H7.47264L8.02726 6.40519ZM6.40674 6.436L5.77657 7.0671L7.27522 8.23943C8.09949 8.88419 8.81214 9.43924 8.85886 9.47281C8.93088 9.52455 8.9881 9.48919 9.23321 9.24176L9.52259 8.94959L8.34097 7.44073C7.69107 6.61081 7.13179 5.90326 7.09813 5.86836C7.04998 5.81846 6.9024 5.93964 6.40674 6.436ZM17.1566 7.32246C16.4997 8.16195 15.9435 8.87334 15.9207 8.90323C15.8956 8.93624 15.9951 9.07221 16.1731 9.2482L16.4671 9.53878L17.9772 8.35831C18.8078 7.70904 19.5159 7.15021 19.5509 7.11648C19.6008 7.06812 19.4802 6.92135 18.9827 6.42561L18.3511 5.79615L17.1566 7.32246ZM3.12078 12.7126C3.12078 16.2309 3.12944 19.1096 3.14004 19.1096C3.15059 19.1096 3.2889 19.0523 3.44739 18.9823L3.73549 18.855V6.57023L3.44739 6.44291C3.2889 6.3729 3.15059 6.31563 3.14004 6.31563C3.12944 6.31563 3.12078 9.19427 3.12078 12.7126ZM21.69 6.55222V18.873L22.2535 19.0993L22.2667 15.9059C22.2739 14.1496 22.2739 11.2756 22.2667 9.51928L22.2535 6.32592L21.69 6.55222ZM4.14529 18.6963L4.5679 18.5137C4.80036 18.4133 5.05388 18.3083 5.13138 18.2804L5.27225 18.2295V7.19565L5.13138 7.14483C5.05388 7.11689 4.80031 7.01188 4.5679 6.91147L4.14529 6.72893V18.6963ZM20.6271 6.99407L20.1277 7.20379V18.2219L20.6527 18.436C20.9415 18.5537 21.195 18.6498 21.2162 18.6495C21.2374 18.6492 21.2546 15.9776 21.2546 12.7126C21.2546 7.99542 21.2414 6.77703 21.1906 6.78031C21.1554 6.78256 20.9018 6.87877 20.6271 6.99407ZM5.68205 17.9369L6.02783 17.6629C6.21803 17.5122 6.90952 16.969 7.56459 16.4558L8.75559 15.5228V9.90243L7.56459 8.9694C6.90957 8.45621 6.21803 7.91303 6.02783 7.76232L5.68205 7.48832V17.9369ZM18.1683 8.70318L16.6443 9.90469V15.5204L19.7178 17.9292V12.711C19.7178 9.84087 19.7121 7.49472 19.705 7.49718C19.698 7.49963 19.0065 8.04235 18.1683 8.70318ZM9.16539 9.92592V15.4993L9.9056 16.2437H15.4943L16.2345 15.4993V9.92592L15.4943 9.18147H9.9056L9.16539 9.92592ZM7.42372 17.0688C6.59259 17.7176 5.88399 18.2759 5.84905 18.3093C5.79921 18.3571 5.92118 18.5053 6.41719 18.9996L7.0488 19.629L8.24328 18.1027C8.90025 17.2632 9.4564 16.5518 9.4792 16.522C9.5043 16.489 9.40523 16.3535 9.22778 16.1783L8.93487 15.8891L7.42372 17.0688ZM16.0951 16.2583L15.7314 16.6275L16.8445 18.1628C17.83 19.5221 17.9747 19.6998 18.1077 19.7126C18.2396 19.7254 18.341 19.6439 18.9408 19.0426L19.6236 18.3579L18.0955 17.1645C17.2551 16.5081 16.543 15.9526 16.5132 15.9301C16.4803 15.9053 16.3151 16.035 16.0951 16.2583ZM7.49493 19.6981L9.99888 19.7113C11.3761 19.7187 13.6206 19.7187 14.9867 19.7113L17.4706 19.6981L15.2868 16.6588L9.88772 16.6531L7.49493 19.6981ZM4.88806 18.805C4.63449 18.9143 4.40398 19.0135 4.3758 19.0254C4.32909 19.0452 6.28395 21.0542 6.34988 21.0542C6.36556 21.0542 6.47866 20.8103 6.60119 20.5123L6.82397 19.9703L6.13847 19.2841C5.76145 18.9066 5.42962 18.5997 5.40103 18.602C5.37245 18.6043 5.14163 18.6957 4.88806 18.805ZM19.2049 19.3441C18.7968 19.7547 18.424 20.1058 18.3766 20.1246C18.3044 20.1531 18.3444 20.2334 18.6231 20.6192C18.806 20.8726 18.9717 21.0857 18.9914 21.0927C19.0361 21.1089 21.0791 19.07 21.0474 19.0408C21.0156 19.0116 20.0168 18.5978 19.978 18.5978C19.961 18.5978 19.6131 18.9337 19.2049 19.3441ZM3.65865 19.3217C3.51778 19.3778 3.38572 19.4401 3.36518 19.4601C3.34469 19.48 3.9137 20.0812 4.62968 20.7961L5.93147 22.0959L6.19815 21.4934L3.91477 19.2196L3.65865 19.3217ZM20.3431 20.3528L19.2019 21.4937L19.4684 22.0959L20.7714 20.795C21.4879 20.0795 22.0742 19.4879 22.0742 19.4803C22.0742 19.4692 21.5154 19.2119 21.4911 19.2119C21.4874 19.2119 20.9707 19.7253 20.3431 20.3528ZM1.86575 20.0593C1.30227 20.2937 0.818192 20.4958 0.790018 20.5084C0.741251 20.5302 4.7997 24.6365 4.86998 24.6365C4.88852 24.6365 4.92684 24.5732 4.95516 24.4958C4.98344 24.4184 5.17907 23.9378 5.38981 23.4278L5.77303 22.5006L2.89026 19.6331L1.86575 20.0593ZM19.6258 22.5127L20.0604 23.5618C20.2994 24.1389 20.5054 24.6214 20.5182 24.6343C20.5444 24.6606 24.6355 20.5873 24.6355 20.535C24.6355 20.5164 24.5721 20.4782 24.4946 20.4499C24.4172 20.4216 23.9361 20.2262 23.4256 20.0156L22.4975 19.6328L19.6258 22.5127ZM6.72383 21.2334L9.6863 21.2466C11.3156 21.2538 13.9828 21.2538 15.6134 21.2466L18.5781 21.2334L17.7969 20.1357L7.18885 20.1331L6.72383 21.2334ZM6.53358 21.7094C6.51959 21.7319 6.46094 21.8701 6.40321 22.0164L6.29825 22.2825H19.1017L18.9967 22.0164C18.939 21.8701 18.8803 21.7319 18.8663 21.7094C18.8332 21.6558 6.56672 21.6558 6.53358 21.7094ZM5.69425 23.7289C5.46148 24.2985 5.27133 24.7817 5.27164 24.8029C5.27199 24.824 8.61472 24.8412 12.7 24.8412C16.7852 24.8412 20.1279 24.824 20.1283 24.8029C20.1286 24.7817 19.9384 24.2985 19.7057 23.7289L19.2824 22.6934H6.11747L5.69425 23.7289Z" fill="#8D0007" stroke="#8D0007" stroke-width="0.4"/>
</svg>
