<svg width="34" height="34" viewBox="0 0 34 34" fill="none" xmlns="http://www.w3.org/2000/svg">
<path d="M15.4844 17.755L18.52 19.745M18.5156 14.255L15.4844 16.245M21 13.5C21 14.3284 20.403 15 19.6667 15C18.9303 15 18.3333 14.3284 18.3333 13.5C18.3333 12.6716 18.9303 12 19.6667 12C20.403 12 21 12.6716 21 13.5ZM15.6667 17C15.6667 17.8284 15.0697 18.5 14.3333 18.5C13.597 18.5 13 17.8284 13 17C13 16.1716 13.597 15.5 14.3333 15.5C15.0697 15.5 15.6667 16.1716 15.6667 17ZM21 20.5C21 21.3284 20.403 22 19.6667 22C18.9303 22 18.3333 21.3284 18.3333 20.5C18.3333 19.6716 18.9303 19 19.6667 19C20.403 19 21 19.6716 21 20.5Z" stroke="#ABABAB" stroke-linecap="round" stroke-linejoin="round"/>
<circle cx="16.7525" cy="16.7525" r="16.2178" stroke="#F0F0F0" stroke-width="1.06931"/>
</svg>
