<svg width="46" height="24" viewBox="0 0 46 24" fill="none" xmlns="http://www.w3.org/2000/svg">
<path fill-rule="evenodd" clip-rule="evenodd" d="M19.5476 0.0908771C19.0265 0.305203 1.02326 12.0562 0.917636 12.2511C0.851817 12.3724 0.601189 13.6426 0.360743 15.0736C-0.040036 17.459 -0.0633814 17.6948 0.0809072 17.9076C0.191258 18.0704 1.61933 18.755 4.85364 20.1957C10.686 22.7937 10.4168 22.6813 10.6437 22.6118C10.7494 22.5793 12.0089 21.7004 13.4426 20.6586L16.0493 18.7644L16.1176 19.0871C16.1551 19.2646 16.2713 19.4587 16.3755 19.5184C16.4798 19.5781 18.7961 20.6237 21.5228 21.8418C25.1368 23.4563 26.5444 24.0408 26.7164 23.9978C26.8462 23.9655 28.7572 22.6219 30.9632 21.0122C33.1692 19.4023 37.4395 16.2887 40.4528 14.0928C44.4319 11.1933 45.9488 10.0338 45.9948 9.8566C46.0368 9.69457 45.8242 8.90735 45.3615 7.51215C44.3033 4.32172 44.3459 4.41437 43.8477 4.22161C43.6134 4.13095 41.742 3.45646 39.6892 2.72263C36.6092 1.62157 35.9123 1.40466 35.7027 1.48171C35.563 1.533 34.0582 2.47182 32.3587 3.5678C30.6593 4.66388 29.2306 5.56065 29.1838 5.56065C29.137 5.56065 28.9299 5.03219 28.7235 4.38643C28.517 3.74057 28.2654 3.14154 28.1644 3.05535C28.0634 2.96916 27.5411 2.74082 27.0037 2.54797C26.4664 2.35501 24.6473 1.7014 22.9613 1.0955C21.2753 0.489505 19.8638 -0.00336262 19.8246 1.72803e-05C19.7854 0.00349659 19.6607 0.0444532 19.5476 0.0908771ZM18.5585 2.59837C17.8016 3.09104 14.0657 5.51115 10.2566 7.97629C4.92985 11.4237 3.37476 12.4749 3.52038 12.53C3.62456 12.5694 5.02878 13.1422 6.64084 13.8028L9.57186 15.0041L10.2403 14.555C12.9808 12.7135 25.763 3.90798 25.7659 3.85957C25.768 3.82616 24.7399 3.42923 23.4814 2.97761C22.2228 2.526 20.91 2.0543 20.5639 1.92944L19.9346 1.70249L18.5585 2.59837ZM35.0769 3.71612C34.5678 4.05182 30.9118 6.42103 26.9523 8.98101C22.9929 11.5411 19.693 13.6904 19.6194 13.7572C19.5122 13.8544 20.1059 14.1317 22.5809 15.1402L25.6763 16.4016L33.5864 10.9754C37.9369 7.9909 41.5925 5.47337 41.7097 5.38092C41.9316 5.20586 41.5983 5.07106 36.6195 3.32256L36.0025 3.10585L35.0769 3.71612ZM18.9306 10.5397C14.462 13.6054 10.7509 16.1661 10.6834 16.2301C10.5748 16.3332 10.7336 17.8968 11.0808 20.1438C11.1104 20.3357 11.4168 20.1433 13.5827 18.5738C14.9403 17.5899 16.1487 16.6864 16.2681 16.5658C16.4352 16.397 16.5368 16.0387 16.7092 15.0101C16.8323 14.275 16.9884 13.6092 17.0559 13.5305C17.1236 13.4516 19.5257 11.8721 22.394 10.0203C25.2623 8.16854 27.6284 6.62005 27.652 6.57929C27.7112 6.4771 27.2211 4.964 27.1292 4.96509C27.0885 4.96559 23.3991 7.47417 18.9306 10.5397ZM35.0769 11.891C30.6649 14.9255 26.9655 17.4701 26.8558 17.5459C26.6591 17.682 26.6595 17.7062 26.8908 19.5004C27.0197 20.4994 27.1485 21.4159 27.1773 21.5366C27.2246 21.7353 27.4295 21.61 29.3021 20.2382C30.442 19.4031 32.9943 17.5403 34.974 16.0987C36.9538 14.6571 39.8515 12.5447 41.4134 11.4047L44.2533 9.33173L43.7736 7.87529C43.5097 7.07425 43.2499 6.40871 43.1962 6.39628C43.1425 6.38386 39.4888 8.85645 35.0769 11.891ZM2.2186 13.858C2.2186 13.8836 2.10012 14.6042 1.95542 15.4593C1.81062 16.3144 1.70644 17.0272 1.72403 17.0433C1.74151 17.0595 3.46814 17.8355 5.56099 18.7677C8.66263 20.1495 9.37132 20.4315 9.39415 20.2934C9.4249 20.1065 8.95316 16.508 8.89094 16.455C8.80476 16.3816 2.41801 13.8116 2.32196 13.8116C2.26508 13.8116 2.2186 13.8325 2.2186 13.858ZM18.3213 15.3163C18.296 15.3908 18.1638 16.1133 18.0275 16.9217C17.8521 17.9616 17.8126 18.4121 17.8923 18.4617C18.1206 18.6038 25.4917 21.8673 25.5208 21.8391C25.5738 21.7879 25.0326 17.9396 24.9627 17.8708C24.8916 17.8009 18.8523 15.3157 18.5461 15.2305C18.4478 15.2031 18.3467 15.2418 18.3213 15.3163Z" fill="#8D0007"/>
</svg>
