<svg width="146" height="146" viewBox="0 0 146 146" fill="none" xmlns="http://www.w3.org/2000/svg">
<path d="M83.6958 28.7771L83.9731 29.1296L84.3901 28.9626L101.483 22.1101L104.096 40.3396L104.16 40.7839L104.604 40.8474L122.833 43.4607L115.981 60.5535L115.814 60.9705L116.167 61.2478L130.647 72.6248L116.167 84.0017L115.814 84.2791L115.981 84.696L122.833 101.789L104.604 104.402L104.16 104.466L104.096 104.91L101.483 123.138L84.3901 116.287L83.9731 116.12L83.6958 116.473L72.3188 130.953L60.9419 116.473L60.6646 116.12L60.2476 116.287L43.1548 123.138L40.5415 104.91L40.478 104.466L40.0337 104.402L21.8042 101.789L28.6567 84.696L28.8237 84.2791L28.4712 84.0017L13.9897 72.6248L28.4712 61.2478L28.8237 60.9705L28.6567 60.5535L21.8042 43.4607L40.0337 40.8474L40.478 40.7839L40.5415 40.3396L43.1548 22.1101L60.2476 28.9626L60.6646 29.1296L60.9419 28.7771L72.3188 14.2957L83.6958 28.7771Z" stroke="#D48B00" stroke-width="1.19794"/>
<path opacity="0.24" d="M94.9626 33.2157L95.1393 33.628L95.5853 33.5747L113.869 31.3796L111.675 49.6643L111.622 50.1099L112.034 50.2862L128.965 57.5283L117.923 72.2654L117.654 72.6249L117.924 72.9843L128.965 87.7212L112.035 94.9629L111.621 95.1393L111.675 95.5853L113.869 113.869L95.5852 111.675L95.1396 111.622L94.9633 112.034L87.7212 128.965L72.9841 117.923L72.6246 117.654L72.2652 117.924L57.5283 128.965L50.2866 112.035L50.1102 111.621L49.6642 111.675L31.3805 113.869L33.5742 95.5852L33.6279 95.1396L33.2151 94.9633L16.2831 87.7209L27.3261 72.9841L27.5953 72.6246L27.3266 72.2654L16.2832 57.5281L33.2157 50.2868L33.628 50.1102L33.5747 49.6642L31.3795 31.3803L49.6643 33.5742L50.1099 33.6279L50.2862 33.2151L57.5286 16.2831L72.2654 27.3261L72.6249 27.5953L72.9841 27.3266L87.7214 16.2832L94.9626 33.2157Z" stroke="#D48B00" stroke-width="1.19794"/>
<mask id="path-3-outside-1_751_1410" maskUnits="userSpaceOnUse" x="48.9995" y="54" width="49" height="38" fill="black">
<rect fill="white" x="48.9995" y="54" width="49" height="38"/>
<path fill-rule="evenodd" clip-rule="evenodd" d="M51.6629 55.1265C51.3047 55.2832 50.8503 55.7979 50.7636 56.1452C50.6409 56.6363 50.8216 57.2191 51.5568 58.7034C54.8226 65.297 59.8781 69.657 65.9893 71.1507C69.2973 71.9592 73.3649 71.9987 76.9207 71.257C77.1271 71.214 77.4649 70.8646 78.2437 69.8888C78.8188 69.168 79.3296 68.5634 79.3789 68.5452C79.428 68.5269 79.4683 68.8716 79.4683 69.3112C79.4683 70.0243 79.4921 70.1271 79.6886 70.2655C80.0132 70.494 80.3463 70.4581 81.3712 70.0844C83.1777 69.4258 87.9353 67.1997 88.1817 66.8976C88.5246 66.4775 88.1997 65.7405 87.6716 65.7405C87.5622 65.7405 86.3792 66.2598 85.0429 66.8944C83.7065 67.5292 82.229 68.1979 81.7593 68.3805L80.9054 68.7125L80.8558 67.3667C80.8092 66.1023 80.7921 66.0094 80.5723 65.8309C80.2603 65.5775 79.9042 65.5909 79.6372 65.8662C79.517 65.9902 78.7336 66.9488 77.8961 67.9966L76.3735 69.9017L75.6661 70.0068C73.8843 70.2711 72.6175 70.3452 70.7584 70.2936C67.5198 70.2038 65.3354 69.6874 62.6691 68.3812C59.3656 66.763 56.8147 64.4372 54.4757 60.9111C53.6048 59.5983 52.0359 56.5559 52.2012 56.5005C52.2585 56.4813 52.6302 56.578 53.0272 56.7153C54.1723 57.1112 55.6 57.3653 57.3972 57.4931C59.4044 57.6358 62.0759 57.5264 67.4333 57.082C73.1844 56.6049 76.8449 56.4443 77.1432 56.6558C77.1999 56.696 77.6426 57.2219 78.1268 57.8243C79.4192 59.4321 79.5575 59.567 79.9089 59.5653C80.4881 59.5624 80.6576 59.2611 80.6576 58.235C80.6576 57.8239 80.6964 57.4633 80.744 57.4339C80.8935 57.341 82.8569 58.3963 83.6402 58.9903C84.5651 59.6917 85.7197 60.8946 86.3938 61.8589C86.6735 62.259 86.8885 62.6004 86.8716 62.6173C86.8548 62.6342 86.2414 62.4967 85.5084 62.3117C82.907 61.6549 82.3882 61.6178 75.603 61.6025C72.2506 61.5951 69.1063 61.5571 68.6157 61.5183C64.739 61.2112 61.6284 60.5304 58.2826 59.2569C57.1263 58.8167 56.9808 58.7984 56.6674 59.0534C56.393 59.2767 56.3653 59.7782 56.6122 60.0524C57.0833 60.5753 61.413 61.919 64.3449 62.452C67.059 62.9454 67.76 62.9841 74.5203 63.0142C81.1163 63.0436 82.3619 63.1061 84.2821 63.5046C86.8404 64.0356 89.1161 65.0334 90.9524 66.4296C92.0601 67.2718 92.0995 67.292 92.42 67.1787C92.8063 67.0422 93.0023 66.6122 92.8482 66.2387C92.6619 65.7866 90.7775 64.4051 89.5978 63.8556C89.1098 63.6283 89.0489 63.5571 88.5858 62.6735C87.2397 60.1043 84.9613 57.8064 82.5477 56.5834C81.8444 56.2271 80.3155 55.6834 80.0164 55.6834C79.6591 55.6834 79.3724 55.988 79.2927 56.4526L79.2205 56.8733L78.5876 56.0812C78.0915 55.4605 77.8879 55.2789 77.646 55.2419C76.2503 55.0286 73.7022 55.1181 67.9219 55.5839C62.36 56.0318 61.5421 56.0796 59.4193 56.0807C56.5662 56.0821 54.7483 55.8339 53.1274 55.2213C52.426 54.9563 52.1001 54.9351 51.6629 55.1265ZM57.1685 73.325C56.8141 73.3755 55.1416 73.664 53.4518 73.9662C50.1163 74.5628 49.9995 74.6048 49.9995 75.21C49.9995 75.5722 50.3158 75.8971 50.6682 75.8971C50.7877 75.8971 52.2658 75.6499 53.9527 75.3477C57.8613 74.6476 59.0974 74.5236 60.5479 74.6856C61.6962 74.8138 62.9362 75.1569 63.7593 75.574C64.0318 75.7121 64.8162 76.1772 65.5024 76.6077C66.6038 77.2985 67.2523 77.5941 71.0373 79.1295C73.3954 80.086 75.4654 80.9512 75.6373 81.0521C76.0644 81.3027 76.637 82.0893 76.8304 82.6911C77.0036 83.2296 77.042 84.2245 76.8986 84.4522C76.8256 84.5681 75.6372 84.2352 70.2337 82.5851C66.6168 81.4808 63.5356 80.5771 63.3863 80.5771C62.8494 80.5771 62.5217 81.2643 62.8462 81.71C62.9325 81.8287 65.2784 82.5904 70.106 84.0676C74.0288 85.268 77.3114 86.2507 77.4007 86.2515C77.8688 86.2556 78.3288 85.2589 78.4545 83.968L78.5267 83.2266L81.2027 82.6658C82.6745 82.3573 83.9942 82.0758 84.1355 82.0402C84.2767 82.0045 86.0556 80.7849 88.0887 79.33C90.1217 77.8751 91.9239 76.609 92.0936 76.5164C92.3179 76.394 92.6464 76.3476 93.2962 76.3466C94.0588 76.3454 94.2618 76.3821 94.6761 76.5961C94.9434 76.7341 95.1739 76.891 95.1883 76.9446C95.2335 77.1129 85.5217 85.4579 84.8698 85.811C84.3235 86.1067 76.2502 88.7712 74.4388 89.2536C73.3397 89.5462 71.1123 89.6166 69.8644 89.398C68.4653 89.1531 67.9039 88.9326 63.1326 86.7545L58.7397 84.7491L56.409 84.7791C54.0956 84.8088 54.0768 84.8108 53.8889 85.0441C53.6157 85.3833 53.6454 85.7973 53.9608 86.0465C54.2067 86.2409 54.3468 86.2529 56.3771 86.2529H58.5322L62.4837 88.0562C64.6571 89.048 66.8173 90.0089 67.2842 90.1914C69.5642 91.0827 72.4632 91.2499 74.8781 90.6294C76.4137 90.2349 84.7019 87.5141 85.3848 87.1803C86.2036 86.7802 86.3869 86.6292 92.4517 81.3526C96.8081 77.5625 96.9623 77.4163 96.9927 77.0481C97.0218 76.6977 96.9778 76.6218 96.4476 76.1078C94.8763 74.5841 92.6825 74.3947 90.7909 75.6195L90.1707 76.021L89.3538 75.6091C88.1539 75.0043 87.2033 74.7914 85.7838 74.8095C84.6921 74.8236 84.5922 74.8084 84.2426 74.576C82.3873 73.3424 80.0847 73.1421 78.1303 74.0441C77.8577 74.1699 76.3211 75.0713 74.7157 76.0472L71.7966 77.8215L71.2964 77.6432C69.3932 76.9654 67.2283 75.9793 66.1875 75.3163C63.6064 73.672 62.0528 73.1984 59.3132 73.2208C58.4879 73.2276 57.5228 73.2745 57.1685 73.325ZM79.5923 75.0494C79.3061 75.13 78.8824 75.2916 78.6507 75.4085C78.112 75.6802 73.8123 78.2788 73.6382 78.4378C73.5332 78.5337 73.72 78.6438 74.5689 78.9866C75.153 79.2224 75.6823 79.4154 75.7451 79.4154C75.8825 79.4154 82.7335 75.4734 82.7366 75.3926C82.7379 75.3615 82.4825 75.2536 82.169 75.153C81.4123 74.9098 80.2529 74.8632 79.5923 75.0494ZM84.833 76.3014C84.5402 76.3538 84.0496 76.4992 83.7428 76.6244C82.9585 76.9442 77.1887 80.3035 77.1887 80.4402C77.1887 80.5021 77.2607 80.6128 77.3487 80.6861C77.4367 80.7594 77.6388 81.0511 77.7978 81.3343C78.0854 81.8462 78.0889 81.8486 78.4555 81.7673C78.6582 81.7224 79.9167 81.457 81.2522 81.1774C83.0155 80.8084 83.7758 80.606 84.0285 80.4383C84.8762 79.8758 88.7378 77.0718 88.7635 77.0001C88.7956 76.9103 88.045 76.5704 87.4466 76.4039C86.8777 76.2456 85.4553 76.1897 84.833 76.3014Z"/>
</mask>
<path fill-rule="evenodd" clip-rule="evenodd" d="M51.6629 55.1265C51.3047 55.2832 50.8503 55.7979 50.7636 56.1452C50.6409 56.6363 50.8216 57.2191 51.5568 58.7034C54.8226 65.297 59.8781 69.657 65.9893 71.1507C69.2973 71.9592 73.3649 71.9987 76.9207 71.257C77.1271 71.214 77.4649 70.8646 78.2437 69.8888C78.8188 69.168 79.3296 68.5634 79.3789 68.5452C79.428 68.5269 79.4683 68.8716 79.4683 69.3112C79.4683 70.0243 79.4921 70.1271 79.6886 70.2655C80.0132 70.494 80.3463 70.4581 81.3712 70.0844C83.1777 69.4258 87.9353 67.1997 88.1817 66.8976C88.5246 66.4775 88.1997 65.7405 87.6716 65.7405C87.5622 65.7405 86.3792 66.2598 85.0429 66.8944C83.7065 67.5292 82.229 68.1979 81.7593 68.3805L80.9054 68.7125L80.8558 67.3667C80.8092 66.1023 80.7921 66.0094 80.5723 65.8309C80.2603 65.5775 79.9042 65.5909 79.6372 65.8662C79.517 65.9902 78.7336 66.9488 77.8961 67.9966L76.3735 69.9017L75.6661 70.0068C73.8843 70.2711 72.6175 70.3452 70.7584 70.2936C67.5198 70.2038 65.3354 69.6874 62.6691 68.3812C59.3656 66.763 56.8147 64.4372 54.4757 60.9111C53.6048 59.5983 52.0359 56.5559 52.2012 56.5005C52.2585 56.4813 52.6302 56.578 53.0272 56.7153C54.1723 57.1112 55.6 57.3653 57.3972 57.4931C59.4044 57.6358 62.0759 57.5264 67.4333 57.082C73.1844 56.6049 76.8449 56.4443 77.1432 56.6558C77.1999 56.696 77.6426 57.2219 78.1268 57.8243C79.4192 59.4321 79.5575 59.567 79.9089 59.5653C80.4881 59.5624 80.6576 59.2611 80.6576 58.235C80.6576 57.8239 80.6964 57.4633 80.744 57.4339C80.8935 57.341 82.8569 58.3963 83.6402 58.9903C84.5651 59.6917 85.7197 60.8946 86.3938 61.8589C86.6735 62.259 86.8885 62.6004 86.8716 62.6173C86.8548 62.6342 86.2414 62.4967 85.5084 62.3117C82.907 61.6549 82.3882 61.6178 75.603 61.6025C72.2506 61.5951 69.1063 61.5571 68.6157 61.5183C64.739 61.2112 61.6284 60.5304 58.2826 59.2569C57.1263 58.8167 56.9808 58.7984 56.6674 59.0534C56.393 59.2767 56.3653 59.7782 56.6122 60.0524C57.0833 60.5753 61.413 61.919 64.3449 62.452C67.059 62.9454 67.76 62.9841 74.5203 63.0142C81.1163 63.0436 82.3619 63.1061 84.2821 63.5046C86.8404 64.0356 89.1161 65.0334 90.9524 66.4296C92.0601 67.2718 92.0995 67.292 92.42 67.1787C92.8063 67.0422 93.0023 66.6122 92.8482 66.2387C92.6619 65.7866 90.7775 64.4051 89.5978 63.8556C89.1098 63.6283 89.0489 63.5571 88.5858 62.6735C87.2397 60.1043 84.9613 57.8064 82.5477 56.5834C81.8444 56.2271 80.3155 55.6834 80.0164 55.6834C79.6591 55.6834 79.3724 55.988 79.2927 56.4526L79.2205 56.8733L78.5876 56.0812C78.0915 55.4605 77.8879 55.2789 77.646 55.2419C76.2503 55.0286 73.7022 55.1181 67.9219 55.5839C62.36 56.0318 61.5421 56.0796 59.4193 56.0807C56.5662 56.0821 54.7483 55.8339 53.1274 55.2213C52.426 54.9563 52.1001 54.9351 51.6629 55.1265ZM57.1685 73.325C56.8141 73.3755 55.1416 73.664 53.4518 73.9662C50.1163 74.5628 49.9995 74.6048 49.9995 75.21C49.9995 75.5722 50.3158 75.8971 50.6682 75.8971C50.7877 75.8971 52.2658 75.6499 53.9527 75.3477C57.8613 74.6476 59.0974 74.5236 60.5479 74.6856C61.6962 74.8138 62.9362 75.1569 63.7593 75.574C64.0318 75.7121 64.8162 76.1772 65.5024 76.6077C66.6038 77.2985 67.2523 77.5941 71.0373 79.1295C73.3954 80.086 75.4654 80.9512 75.6373 81.0521C76.0644 81.3027 76.637 82.0893 76.8304 82.6911C77.0036 83.2296 77.042 84.2245 76.8986 84.4522C76.8256 84.5681 75.6372 84.2352 70.2337 82.5851C66.6168 81.4808 63.5356 80.5771 63.3863 80.5771C62.8494 80.5771 62.5217 81.2643 62.8462 81.71C62.9325 81.8287 65.2784 82.5904 70.106 84.0676C74.0288 85.268 77.3114 86.2507 77.4007 86.2515C77.8688 86.2556 78.3288 85.2589 78.4545 83.968L78.5267 83.2266L81.2027 82.6658C82.6745 82.3573 83.9942 82.0758 84.1355 82.0402C84.2767 82.0045 86.0556 80.7849 88.0887 79.33C90.1217 77.8751 91.9239 76.609 92.0936 76.5164C92.3179 76.394 92.6464 76.3476 93.2962 76.3466C94.0588 76.3454 94.2618 76.3821 94.6761 76.5961C94.9434 76.7341 95.1739 76.891 95.1883 76.9446C95.2335 77.1129 85.5217 85.4579 84.8698 85.811C84.3235 86.1067 76.2502 88.7712 74.4388 89.2536C73.3397 89.5462 71.1123 89.6166 69.8644 89.398C68.4653 89.1531 67.9039 88.9326 63.1326 86.7545L58.7397 84.7491L56.409 84.7791C54.0956 84.8088 54.0768 84.8108 53.8889 85.0441C53.6157 85.3833 53.6454 85.7973 53.9608 86.0465C54.2067 86.2409 54.3468 86.2529 56.3771 86.2529H58.5322L62.4837 88.0562C64.6571 89.048 66.8173 90.0089 67.2842 90.1914C69.5642 91.0827 72.4632 91.2499 74.8781 90.6294C76.4137 90.2349 84.7019 87.5141 85.3848 87.1803C86.2036 86.7802 86.3869 86.6292 92.4517 81.3526C96.8081 77.5625 96.9623 77.4163 96.9927 77.0481C97.0218 76.6977 96.9778 76.6218 96.4476 76.1078C94.8763 74.5841 92.6825 74.3947 90.7909 75.6195L90.1707 76.021L89.3538 75.6091C88.1539 75.0043 87.2033 74.7914 85.7838 74.8095C84.6921 74.8236 84.5922 74.8084 84.2426 74.576C82.3873 73.3424 80.0847 73.1421 78.1303 74.0441C77.8577 74.1699 76.3211 75.0713 74.7157 76.0472L71.7966 77.8215L71.2964 77.6432C69.3932 76.9654 67.2283 75.9793 66.1875 75.3163C63.6064 73.672 62.0528 73.1984 59.3132 73.2208C58.4879 73.2276 57.5228 73.2745 57.1685 73.325ZM79.5923 75.0494C79.3061 75.13 78.8824 75.2916 78.6507 75.4085C78.112 75.6802 73.8123 78.2788 73.6382 78.4378C73.5332 78.5337 73.72 78.6438 74.5689 78.9866C75.153 79.2224 75.6823 79.4154 75.7451 79.4154C75.8825 79.4154 82.7335 75.4734 82.7366 75.3926C82.7379 75.3615 82.4825 75.2536 82.169 75.153C81.4123 74.9098 80.2529 74.8632 79.5923 75.0494ZM84.833 76.3014C84.5402 76.3538 84.0496 76.4992 83.7428 76.6244C82.9585 76.9442 77.1887 80.3035 77.1887 80.4402C77.1887 80.5021 77.2607 80.6128 77.3487 80.6861C77.4367 80.7594 77.6388 81.0511 77.7978 81.3343C78.0854 81.8462 78.0889 81.8486 78.4555 81.7673C78.6582 81.7224 79.9167 81.457 81.2522 81.1774C83.0155 80.8084 83.7758 80.606 84.0285 80.4383C84.8762 79.8758 88.7378 77.0718 88.7635 77.0001C88.7956 76.9103 88.045 76.5704 87.4466 76.4039C86.8777 76.2456 85.4553 76.1897 84.833 76.3014Z" fill="url(#paint0_linear_751_1410)"/>
<path fill-rule="evenodd" clip-rule="evenodd" d="M51.6629 55.1265C51.3047 55.2832 50.8503 55.7979 50.7636 56.1452C50.6409 56.6363 50.8216 57.2191 51.5568 58.7034C54.8226 65.297 59.8781 69.657 65.9893 71.1507C69.2973 71.9592 73.3649 71.9987 76.9207 71.257C77.1271 71.214 77.4649 70.8646 78.2437 69.8888C78.8188 69.168 79.3296 68.5634 79.3789 68.5452C79.428 68.5269 79.4683 68.8716 79.4683 69.3112C79.4683 70.0243 79.4921 70.1271 79.6886 70.2655C80.0132 70.494 80.3463 70.4581 81.3712 70.0844C83.1777 69.4258 87.9353 67.1997 88.1817 66.8976C88.5246 66.4775 88.1997 65.7405 87.6716 65.7405C87.5622 65.7405 86.3792 66.2598 85.0429 66.8944C83.7065 67.5292 82.229 68.1979 81.7593 68.3805L80.9054 68.7125L80.8558 67.3667C80.8092 66.1023 80.7921 66.0094 80.5723 65.8309C80.2603 65.5775 79.9042 65.5909 79.6372 65.8662C79.517 65.9902 78.7336 66.9488 77.8961 67.9966L76.3735 69.9017L75.6661 70.0068C73.8843 70.2711 72.6175 70.3452 70.7584 70.2936C67.5198 70.2038 65.3354 69.6874 62.6691 68.3812C59.3656 66.763 56.8147 64.4372 54.4757 60.9111C53.6048 59.5983 52.0359 56.5559 52.2012 56.5005C52.2585 56.4813 52.6302 56.578 53.0272 56.7153C54.1723 57.1112 55.6 57.3653 57.3972 57.4931C59.4044 57.6358 62.0759 57.5264 67.4333 57.082C73.1844 56.6049 76.8449 56.4443 77.1432 56.6558C77.1999 56.696 77.6426 57.2219 78.1268 57.8243C79.4192 59.4321 79.5575 59.567 79.9089 59.5653C80.4881 59.5624 80.6576 59.2611 80.6576 58.235C80.6576 57.8239 80.6964 57.4633 80.744 57.4339C80.8935 57.341 82.8569 58.3963 83.6402 58.9903C84.5651 59.6917 85.7197 60.8946 86.3938 61.8589C86.6735 62.259 86.8885 62.6004 86.8716 62.6173C86.8548 62.6342 86.2414 62.4967 85.5084 62.3117C82.907 61.6549 82.3882 61.6178 75.603 61.6025C72.2506 61.5951 69.1063 61.5571 68.6157 61.5183C64.739 61.2112 61.6284 60.5304 58.2826 59.2569C57.1263 58.8167 56.9808 58.7984 56.6674 59.0534C56.393 59.2767 56.3653 59.7782 56.6122 60.0524C57.0833 60.5753 61.413 61.919 64.3449 62.452C67.059 62.9454 67.76 62.9841 74.5203 63.0142C81.1163 63.0436 82.3619 63.1061 84.2821 63.5046C86.8404 64.0356 89.1161 65.0334 90.9524 66.4296C92.0601 67.2718 92.0995 67.292 92.42 67.1787C92.8063 67.0422 93.0023 66.6122 92.8482 66.2387C92.6619 65.7866 90.7775 64.4051 89.5978 63.8556C89.1098 63.6283 89.0489 63.5571 88.5858 62.6735C87.2397 60.1043 84.9613 57.8064 82.5477 56.5834C81.8444 56.2271 80.3155 55.6834 80.0164 55.6834C79.6591 55.6834 79.3724 55.988 79.2927 56.4526L79.2205 56.8733L78.5876 56.0812C78.0915 55.4605 77.8879 55.2789 77.646 55.2419C76.2503 55.0286 73.7022 55.1181 67.9219 55.5839C62.36 56.0318 61.5421 56.0796 59.4193 56.0807C56.5662 56.0821 54.7483 55.8339 53.1274 55.2213C52.426 54.9563 52.1001 54.9351 51.6629 55.1265ZM57.1685 73.325C56.8141 73.3755 55.1416 73.664 53.4518 73.9662C50.1163 74.5628 49.9995 74.6048 49.9995 75.21C49.9995 75.5722 50.3158 75.8971 50.6682 75.8971C50.7877 75.8971 52.2658 75.6499 53.9527 75.3477C57.8613 74.6476 59.0974 74.5236 60.5479 74.6856C61.6962 74.8138 62.9362 75.1569 63.7593 75.574C64.0318 75.7121 64.8162 76.1772 65.5024 76.6077C66.6038 77.2985 67.2523 77.5941 71.0373 79.1295C73.3954 80.086 75.4654 80.9512 75.6373 81.0521C76.0644 81.3027 76.637 82.0893 76.8304 82.6911C77.0036 83.2296 77.042 84.2245 76.8986 84.4522C76.8256 84.5681 75.6372 84.2352 70.2337 82.5851C66.6168 81.4808 63.5356 80.5771 63.3863 80.5771C62.8494 80.5771 62.5217 81.2643 62.8462 81.71C62.9325 81.8287 65.2784 82.5904 70.106 84.0676C74.0288 85.268 77.3114 86.2507 77.4007 86.2515C77.8688 86.2556 78.3288 85.2589 78.4545 83.968L78.5267 83.2266L81.2027 82.6658C82.6745 82.3573 83.9942 82.0758 84.1355 82.0402C84.2767 82.0045 86.0556 80.7849 88.0887 79.33C90.1217 77.8751 91.9239 76.609 92.0936 76.5164C92.3179 76.394 92.6464 76.3476 93.2962 76.3466C94.0588 76.3454 94.2618 76.3821 94.6761 76.5961C94.9434 76.7341 95.1739 76.891 95.1883 76.9446C95.2335 77.1129 85.5217 85.4579 84.8698 85.811C84.3235 86.1067 76.2502 88.7712 74.4388 89.2536C73.3397 89.5462 71.1123 89.6166 69.8644 89.398C68.4653 89.1531 67.9039 88.9326 63.1326 86.7545L58.7397 84.7491L56.409 84.7791C54.0956 84.8088 54.0768 84.8108 53.8889 85.0441C53.6157 85.3833 53.6454 85.7973 53.9608 86.0465C54.2067 86.2409 54.3468 86.2529 56.3771 86.2529H58.5322L62.4837 88.0562C64.6571 89.048 66.8173 90.0089 67.2842 90.1914C69.5642 91.0827 72.4632 91.2499 74.8781 90.6294C76.4137 90.2349 84.7019 87.5141 85.3848 87.1803C86.2036 86.7802 86.3869 86.6292 92.4517 81.3526C96.8081 77.5625 96.9623 77.4163 96.9927 77.0481C97.0218 76.6977 96.9778 76.6218 96.4476 76.1078C94.8763 74.5841 92.6825 74.3947 90.7909 75.6195L90.1707 76.021L89.3538 75.6091C88.1539 75.0043 87.2033 74.7914 85.7838 74.8095C84.6921 74.8236 84.5922 74.8084 84.2426 74.576C82.3873 73.3424 80.0847 73.1421 78.1303 74.0441C77.8577 74.1699 76.3211 75.0713 74.7157 76.0472L71.7966 77.8215L71.2964 77.6432C69.3932 76.9654 67.2283 75.9793 66.1875 75.3163C63.6064 73.672 62.0528 73.1984 59.3132 73.2208C58.4879 73.2276 57.5228 73.2745 57.1685 73.325ZM79.5923 75.0494C79.3061 75.13 78.8824 75.2916 78.6507 75.4085C78.112 75.6802 73.8123 78.2788 73.6382 78.4378C73.5332 78.5337 73.72 78.6438 74.5689 78.9866C75.153 79.2224 75.6823 79.4154 75.7451 79.4154C75.8825 79.4154 82.7335 75.4734 82.7366 75.3926C82.7379 75.3615 82.4825 75.2536 82.169 75.153C81.4123 74.9098 80.2529 74.8632 79.5923 75.0494ZM84.833 76.3014C84.5402 76.3538 84.0496 76.4992 83.7428 76.6244C82.9585 76.9442 77.1887 80.3035 77.1887 80.4402C77.1887 80.5021 77.2607 80.6128 77.3487 80.6861C77.4367 80.7594 77.6388 81.0511 77.7978 81.3343C78.0854 81.8462 78.0889 81.8486 78.4555 81.7673C78.6582 81.7224 79.9167 81.457 81.2522 81.1774C83.0155 80.8084 83.7758 80.606 84.0285 80.4383C84.8762 79.8758 88.7378 77.0718 88.7635 77.0001C88.7956 76.9103 88.045 76.5704 87.4466 76.4039C86.8777 76.2456 85.4553 76.1897 84.833 76.3014Z" stroke="url(#paint1_linear_751_1410)" stroke-width="0.8" mask="url(#path-3-outside-1_751_1410)"/>
<defs>
<linearGradient id="paint0_linear_751_1410" x1="52.2277" y1="60.7115" x2="93.3318" y2="77.1169" gradientUnits="userSpaceOnUse">
<stop stop-color="#D48B00"/>
<stop offset="0.31808" stop-color="#6E4800"/>
<stop offset="0.667704" stop-color="#D48B00"/>
<stop offset="0.875589" stop-color="#D48B00"/>
<stop offset="1" stop-color="#6E4800"/>
</linearGradient>
<linearGradient id="paint1_linear_751_1410" x1="49.9995" y1="58.8571" x2="100.532" y2="89.2393" gradientUnits="userSpaceOnUse">
<stop stop-color="#D48B00"/>
<stop offset="0.322115" stop-color="#6E4800"/>
<stop offset="0.615385" stop-color="#D48B00"/>
<stop offset="0.783654" stop-color="#D48B00"/>
<stop offset="0.995192" stop-color="#6E4800"/>
</linearGradient>
</defs>
</svg>
