<svg width="146" height="146" viewBox="0 0 146 146" fill="none" xmlns="http://www.w3.org/2000/svg">
<path d="M84.0027 28.7771L84.28 29.1296L84.697 28.9626L101.79 22.1101L104.403 40.3396L104.467 40.7839L104.911 40.8474L123.139 43.4607L116.288 60.5535L116.121 60.9705L116.474 61.2478L130.954 72.6248L116.474 84.0017L116.121 84.2791L116.288 84.696L123.139 101.789L104.911 104.402L104.467 104.466L104.403 104.91L101.79 123.138L84.697 116.287L84.28 116.12L84.0027 116.473L72.6257 130.953L61.2488 116.473L60.9714 116.12L60.5544 116.287L43.4617 123.138L40.8484 104.91L40.7849 104.466L40.3406 104.402L22.1111 101.789L28.9636 84.696L29.1306 84.2791L28.7781 84.0017L14.2966 72.6248L28.7781 61.2478L29.1306 60.9705L28.9636 60.5535L22.1111 43.4607L40.3406 40.8474L40.7849 40.7839L40.8484 40.3396L43.4617 22.1101L60.5544 28.9626L60.9714 29.1296L61.2488 28.7771L72.6257 14.2957L84.0027 28.7771Z" stroke="#D48B00" stroke-width="1.19794"/>
<path d="M69.0994 58.8008C69.1259 58.7984 69.1474 58.8022 69.1511 58.8027C69.1592 58.804 69.1661 58.8056 69.1707 58.8066C69.18 58.8088 69.1897 58.8111 69.198 58.8135C69.2152 58.8185 69.2374 58.8257 69.2625 58.834C69.313 58.8508 69.3838 58.8751 69.4714 58.9062C69.6474 58.9687 69.896 59.0601 70.199 59.1719C70.8053 59.3955 71.6307 59.7049 72.5291 60.0459C74.325 60.7275 76.2633 61.4626 76.8357 61.6797C77.1257 61.7896 77.4127 61.91 77.6414 62.0156C77.7554 62.0683 77.8572 62.1184 77.9382 62.1621C78.013 62.2024 78.0876 62.2468 78.1345 62.2891C78.1698 62.3208 78.1982 62.3618 78.2185 62.3945C78.241 62.4309 78.2644 62.4743 78.2878 62.5215C78.3348 62.6163 78.3872 62.7377 78.4421 62.876C78.4973 63.0148 78.5563 63.1731 78.615 63.3428L78.7878 63.877L78.949 64.3848C79.0006 64.5405 79.049 64.6807 79.0925 64.7979C79.1184 64.8676 79.1442 64.9274 79.1648 64.9775C79.1967 64.9575 79.234 64.9359 79.2742 64.9102C79.4508 64.7972 79.7015 64.6335 80.0076 64.4307C80.6196 64.0249 81.4517 63.4648 82.3562 62.8486C83.2619 62.2318 84.1158 61.6585 84.7625 61.2324C85.0857 61.0195 85.3584 60.8431 85.5593 60.7158C85.6594 60.6524 85.7427 60.6006 85.8064 60.5625C85.8631 60.5286 85.921 60.4951 85.9587 60.4805L86.0476 60.457C86.1417 60.4429 86.2488 60.4554 86.366 60.4785C86.5307 60.511 86.7567 60.5747 87.0701 60.6777C87.6986 60.8844 88.709 61.257 90.3484 61.876C92.5329 62.7007 94.5301 63.4611 94.783 63.5645C94.9018 63.613 95.037 63.6598 95.156 63.7637C95.2777 63.8699 95.3717 64.0223 95.4734 64.2559C95.6748 64.7184 95.9496 65.6056 96.5105 67.3916C96.7572 68.1772 96.9385 68.7947 97.0525 69.2402C97.1094 69.4627 97.1506 69.6461 97.1746 69.7871C97.1865 69.8574 97.1945 69.9205 97.198 69.9746C97.2012 70.0247 97.2013 70.0835 97.1882 70.1367C97.1753 70.1889 97.1461 70.2316 97.1277 70.2568C97.1055 70.2872 97.078 70.32 97.0466 70.3535C96.9836 70.4209 96.8948 70.5054 96.781 70.6074C96.5524 70.8123 96.2096 71.0986 95.739 71.4785C94.7971 72.2389 93.3319 73.3817 91.2126 75.0127C88.0029 77.483 83.4541 80.9858 81.1042 82.7969C79.9286 83.7029 78.8316 84.5348 78.0105 85.1445C77.6001 85.4493 77.2573 85.6986 77.0085 85.875C76.8844 85.963 76.7821 86.0338 76.7058 86.084C76.6679 86.1089 76.6346 86.1305 76.6072 86.1465C76.5886 86.1574 76.5491 86.181 76.5095 86.1914C76.4613 86.2041 76.4142 86.2008 76.3845 86.1973C76.3506 86.1932 76.3137 86.1854 76.2761 86.1758C76.2005 86.1564 76.1046 86.1245 75.989 86.082C75.7567 85.9966 75.4274 85.86 74.9871 85.667C74.1053 85.2804 72.7654 84.6611 70.8406 83.7529C69.3884 83.0678 68.0455 82.4309 67.0515 81.957C66.5545 81.7201 66.1441 81.5241 65.8513 81.3828C65.5666 81.2454 65.3779 81.153 65.3396 81.1299V81.1289C65.2406 81.0689 65.1609 80.9626 65.1052 80.8643C65.0462 80.76 64.997 80.6354 64.9724 80.5127L64.9626 80.4639L62.4412 82.3994C61.6768 82.986 60.9584 83.5275 60.4167 83.9268C60.1461 84.1263 59.918 84.2908 59.7507 84.4082C59.6675 84.4666 59.5979 84.5142 59.5447 84.5488C59.5181 84.5661 59.4939 84.5818 59.4734 84.5938C59.4582 84.6026 59.4291 84.6192 59.3992 84.6289C59.3874 84.6327 59.3839 84.6345 59.364 84.6416C59.3477 84.6474 59.324 84.6547 59.2957 84.6602C59.2344 84.6719 59.1731 84.6686 59.1033 84.6533C58.976 84.6254 58.7754 84.5479 58.4119 84.3877C57.6737 84.0624 56.1887 83.3616 53.0847 81.9014C51.3619 81.0908 50.1182 80.4917 49.2898 80.0723C48.876 79.8627 48.5633 79.6964 48.3455 79.5703C48.2368 79.5074 48.1482 79.4528 48.0818 79.4062C48.0488 79.3831 48.0185 79.3602 47.9929 79.3379C47.9695 79.3175 47.9402 79.2889 47.9177 79.2539C47.8646 79.1711 47.8259 79.0816 47.8093 78.9492C47.7939 78.8265 47.7976 78.6694 47.8181 78.4502C47.8592 78.0105 47.9734 77.2651 48.1863 75.9268C48.3145 75.1206 48.4456 74.3589 48.5535 73.7812C48.6074 73.4926 48.6565 73.2485 48.696 73.0674C48.7158 72.977 48.7333 72.9 48.7488 72.8408C48.7621 72.7899 48.7792 72.7312 48.7996 72.6914L48.8396 72.6357C48.8478 72.6273 48.8567 72.6197 48.864 72.6133C48.8788 72.6002 48.8971 72.5848 48.9177 72.5684C48.9599 72.5349 49.0196 72.4894 49.0935 72.4346C49.2418 72.3245 49.4551 72.1701 49.7234 71.9785C50.2603 71.5951 51.0214 71.0597 51.9324 70.4229C53.7551 69.1486 56.1809 67.4674 58.6199 65.7861C61.0589 64.1048 63.5122 62.4225 65.3904 61.1455C66.3294 60.5071 67.1254 59.9695 67.7039 59.584C67.993 59.3913 68.2288 59.236 68.4011 59.125C68.4871 59.0697 68.5585 59.0245 68.613 58.9912C68.6625 58.961 68.7105 58.933 68.7429 58.9189C68.8075 58.891 68.875 58.864 68.9333 58.8438C68.9826 58.8267 69.0494 58.8054 69.0984 58.8008H69.0994ZM67.696 76.3359C67.6897 76.3661 67.6821 76.4075 67.6726 76.458C67.6536 76.5588 67.6296 76.6954 67.6013 76.8584C67.5448 77.1847 67.4726 77.6143 67.4001 78.0684C67.3068 78.6528 67.2509 79.066 67.2283 79.3379C67.2169 79.4747 67.2145 79.5677 67.2185 79.626V79.6289C67.2355 79.6377 67.2562 79.6482 67.28 79.6602C67.3497 79.6952 67.4456 79.7422 67.5642 79.7998C67.8014 79.915 68.1274 80.071 68.5125 80.2539C69.2827 80.6198 70.2876 81.0928 71.2859 81.5596C72.2843 82.0264 73.2765 82.4871 74.0203 82.8291C74.3922 83.0001 74.7015 83.142 74.9187 83.2393C74.9351 83.2466 74.9513 83.253 74.9666 83.2598C74.9563 83.1545 74.944 83.0263 74.9275 82.8809C74.8804 82.4675 74.8121 81.9198 74.739 81.3711C74.6659 80.8222 74.5885 80.2724 74.5251 79.8564C74.4934 79.6484 74.4654 79.4746 74.4431 79.3516C74.4349 79.3061 74.4258 79.2692 74.4197 79.2402L74.4177 79.2393C74.3683 79.2154 74.2963 79.1825 74.2048 79.1406C74.0221 79.057 73.764 78.9409 73.4548 78.8037C72.8367 78.5294 72.016 78.1697 71.1873 77.8096C70.3583 77.4493 69.5214 77.0881 68.8718 76.8115C68.5471 76.6733 68.2695 76.5561 68.0632 76.4707C67.96 76.428 67.8749 76.3934 67.8113 76.3682C67.7798 76.3557 67.754 76.3463 67.7341 76.3389C67.7244 76.3352 67.7159 76.3322 67.7097 76.3301C67.7066 76.329 67.7038 76.3278 67.7019 76.3271L67.7 76.3262H67.699L67.698 76.3252C67.6973 76.3285 67.6969 76.3321 67.696 76.3359ZM93.9294 66.4834C93.8099 66.5637 93.6358 66.684 93.4128 66.8398C92.9673 67.1514 92.3291 67.6041 91.5457 68.1641C89.9787 69.284 87.8315 70.8325 85.4822 72.5391C80.7873 75.9493 76.8499 78.8095 76.7253 78.9004C76.6722 78.9392 76.6733 78.9437 76.6716 78.9473C76.6658 78.9602 76.6528 79.0031 76.655 79.1357C76.6595 79.4005 76.7185 79.8977 76.8425 80.9141C76.9111 81.4753 76.9797 82.0134 77.0349 82.4277C77.0727 82.7114 77.1058 82.9303 77.1257 83.0605C77.1578 83.0425 77.1982 83.0227 77.2439 82.9932C77.5451 82.7988 78.0897 82.3837 79.0906 81.6094C80.3052 80.6697 83.0238 78.5739 85.1326 76.9521C87.2413 75.3304 90.3282 72.9543 91.9919 71.6719L94.906 69.4248L94.4373 67.9189C94.2975 67.4708 94.1585 67.0621 94.0486 66.7646C94.0061 66.6497 93.9667 66.5536 93.9353 66.4785C93.9332 66.4799 93.9316 66.482 93.9294 66.4834ZM50.5388 74.7783C50.5245 74.8739 50.5037 75.0085 50.4783 75.1719C50.4274 75.4988 50.3571 75.9427 50.28 76.4238C50.2031 76.9037 50.1369 77.343 50.0925 77.6641C50.0703 77.8249 50.0536 77.955 50.0437 78.0449C50.0434 78.0479 50.043 78.0508 50.0427 78.0537C50.0963 78.0798 50.1678 78.1141 50.2556 78.1562C50.465 78.2568 50.7663 78.4005 51.1365 78.5762C51.877 78.9277 52.894 79.4083 54.0085 79.9326C55.6614 80.7103 56.6721 81.1764 57.2722 81.4287C57.5139 81.5303 57.6835 81.591 57.7976 81.627C57.797 81.6192 57.7973 81.6107 57.7966 81.6025C57.7861 81.474 57.7685 81.2999 57.7468 81.0957C57.7035 80.6873 57.6417 80.1607 57.5769 79.6387C57.5121 79.1166 57.4441 78.5994 57.3884 78.21C57.3606 78.0152 57.3367 77.8532 57.3171 77.7393C57.3109 77.7031 57.3044 77.673 57.2996 77.6484C57.2975 77.6475 57.2948 77.6465 57.2927 77.6455C57.2395 77.6206 57.163 77.5862 57.0662 77.543C56.8721 77.4565 56.5991 77.3375 56.2732 77.1963C55.6215 76.9139 54.7595 76.5442 53.8972 76.1777C53.0352 75.8114 52.1732 75.4478 51.5203 75.1758C51.1936 75.0397 50.9194 74.9265 50.7244 74.8477C50.6503 74.8177 50.5879 74.7936 50.5388 74.7744C50.5386 74.7756 50.539 74.7771 50.5388 74.7783ZM76.8201 64.8779C76.7 64.9613 76.5248 65.085 76.3005 65.2441C75.8521 65.5624 75.2081 66.0225 74.4167 66.5908C72.8341 67.7273 70.6617 69.2953 68.282 71.0195C65.9023 72.7438 63.7246 74.3262 62.1326 75.4863C61.3367 76.0663 60.687 76.5402 60.2322 76.874C60.0048 77.041 59.8257 77.1726 59.7019 77.2646C59.6401 77.3106 59.5925 77.3468 59.5593 77.3721C59.5565 77.3742 59.5531 77.3759 59.5505 77.3779C59.5499 77.3831 59.5492 77.3889 59.5486 77.3955C59.5439 77.4486 59.5421 77.5283 59.5447 77.6357C59.5499 77.8494 59.5713 78.1539 59.6082 78.5371C59.6787 79.2704 59.8046 80.281 59.9773 81.4736C60.0251 81.4466 60.0894 81.41 60.1716 81.3555C60.5385 81.1123 61.1904 80.6211 62.3464 79.7363C63.0688 79.1834 63.7518 78.6538 64.2693 78.2451C64.5281 78.0407 64.7451 77.867 64.905 77.7363C65.0713 77.6005 65.163 77.5218 65.1833 77.5C65.2377 77.4419 65.299 77.3327 65.3689 77.0723C65.4381 76.8143 65.5095 76.433 65.6013 75.8545C65.6674 75.438 65.7423 75.0397 65.8103 74.7334C65.8442 74.5807 65.8766 74.448 65.906 74.3467C65.9206 74.2964 65.9355 74.2506 65.95 74.2129C65.9616 74.1825 65.9814 74.134 66.0125 74.0957L66.0525 74.0566C66.0625 74.0481 66.074 74.0382 66.0867 74.0283C66.1124 74.0081 66.1472 73.9822 66.1892 73.9512C66.2735 73.889 66.3926 73.8032 66.5417 73.6973C66.8403 73.4851 67.2628 73.1889 67.7781 72.8311C68.8093 72.1149 70.2139 71.1493 71.7419 70.1074C73.2692 69.0661 74.6628 68.1105 75.6775 67.4092C76.1848 67.0586 76.5967 66.7712 76.8835 66.5693C77.0271 66.4683 77.1395 66.3892 77.2156 66.334C77.2295 66.3239 77.2414 66.3139 77.2527 66.3057C77.245 66.2577 77.232 66.193 77.2136 66.1152C77.1733 65.9451 77.1123 65.726 77.0457 65.5088C76.979 65.2914 76.9079 65.0793 76.8484 64.9238C76.8414 64.9057 76.8333 64.8891 76.8269 64.873C76.8246 64.8746 76.8224 64.8763 76.8201 64.8779ZM49.9441 78.0049C49.9427 78.004 49.9417 78.0033 49.9412 78.0029C49.9392 78.0017 49.9376 78.0016 49.9382 78.002C49.9393 78.0025 49.9414 78.0035 49.9441 78.0049ZM85.4783 63.3447C84.9343 63.7235 81.0395 66.3894 76.823 69.2686C74.7143 70.7085 72.7805 72.0331 71.365 73.0068C70.6575 73.4935 70.0796 73.8928 69.6736 74.1748C69.4705 74.3158 69.3102 74.4274 69.199 74.5059C69.1972 74.5071 69.1949 74.5076 69.1931 74.5088C69.271 74.5548 69.3806 74.6162 69.533 74.6914C70.0008 74.9222 70.8134 75.2809 72.1326 75.8486L75.324 77.2227L83.6589 71.1855C85.976 69.5068 88.1083 67.959 89.6765 66.8184C90.4605 66.2481 91.1035 65.7797 91.5583 65.4473C91.7858 65.281 91.9663 65.1484 92.0935 65.0547C92.1358 65.0235 92.1717 64.996 92.2019 64.9736C92.1802 64.9611 92.155 64.9463 92.1248 64.9307C92.0286 64.8809 91.8961 64.8194 91.7175 64.7432C91.0011 64.4372 89.5924 63.9102 86.9382 62.9258L86.3787 62.7178L85.4783 63.3447ZM67.8816 62.0879C67.0747 62.6426 63.095 65.3656 59.0378 68.1387C56.2007 70.0779 54.3694 71.3421 53.2673 72.1289C52.7157 72.5227 52.3504 72.7948 52.1335 72.9707C52.1126 72.9877 52.0936 73.0038 52.0759 73.0186C52.59 73.2384 53.8056 73.7615 55.1531 74.3447L58.1716 75.6514L58.7917 75.2109C60.2502 74.176 64.3836 71.183 68.1531 68.4404C70.0376 67.0693 71.8308 65.7606 73.1531 64.792C73.8141 64.3078 74.3573 63.9087 74.7351 63.6289C74.8674 63.5309 74.9787 63.4468 75.0681 63.3799C74.9582 63.3325 74.8195 63.2743 74.657 63.208C74.2179 63.029 73.6104 62.7907 72.9412 62.5371C71.6008 62.0291 70.2027 61.498 69.8337 61.3574L69.2605 61.1396L67.8816 62.0879Z" fill="url(#paint0_linear_751_1402)" stroke="url(#paint1_linear_751_1402)" stroke-width="0.4"/>
<path opacity="0.24" d="M94.9629 33.2157L95.1395 33.628L95.5855 33.5747L113.869 31.3796L111.676 49.6643L111.622 50.1099L112.035 50.2862L128.966 57.5283L117.924 72.2654L117.654 72.6249L117.924 72.9843L128.966 87.7212L112.035 94.9629L111.622 95.1393L111.675 95.5853L113.869 113.869L95.5855 111.675L95.1398 111.622L94.9635 112.034L87.7214 128.965L72.9844 117.923L72.6248 117.654L72.2654 117.924L57.5286 128.965L50.2868 112.035L50.1104 111.621L49.6644 111.675L31.3808 113.869L33.5744 95.5852L33.6281 95.1396L33.2153 94.9633L16.2834 87.7209L27.3263 72.9841L27.5956 72.6246L27.3268 72.2654L16.2834 57.5281L33.216 50.2868L33.6283 50.1102L33.5749 49.6642L31.3798 31.3803L49.6645 33.5742L50.1101 33.6279L50.2864 33.2151L57.5288 16.2831L72.2656 27.3261L72.6252 27.5953L72.9843 27.3266L87.7217 16.2832L94.9629 33.2157Z" stroke="#D48B00" stroke-width="1.19794"/>
<defs>
<linearGradient id="paint0_linear_751_1402" x1="50.3227" y1="63.2837" x2="88.3097" y2="84.3589" gradientUnits="userSpaceOnUse">
<stop stop-color="#D48B00"/>
<stop offset="0.31808" stop-color="#6E4800"/>
<stop offset="0.667704" stop-color="#D48B00"/>
<stop offset="0.875589" stop-color="#D48B00"/>
<stop offset="1" stop-color="#6E4800"/>
</linearGradient>
<linearGradient id="paint1_linear_751_1402" x1="47.9998" y1="61.8929" x2="90.2291" y2="97.1869" gradientUnits="userSpaceOnUse">
<stop stop-color="#D48B00"/>
<stop offset="0.322115" stop-color="#6E4800"/>
<stop offset="0.615385" stop-color="#D48B00"/>
<stop offset="0.783654" stop-color="#D48B00"/>
<stop offset="0.995192" stop-color="#6E4800"/>
</linearGradient>
</defs>
</svg>
