<svg width="146" height="146" viewBox="0 0 146 146" fill="none" xmlns="http://www.w3.org/2000/svg">
<path d="M83.6726 28.4502L83.95 28.8027L84.3669 28.6357L101.46 21.7832L104.073 40.0127L104.136 40.457L104.581 40.5205L122.809 43.1338L115.958 60.2266L115.791 60.6436L116.144 60.9209L130.624 72.2979L116.144 83.6748L115.791 83.9521L115.958 84.3691L122.809 101.462L104.581 104.075L104.136 104.139L104.073 104.583L101.46 122.812L84.3669 115.96L83.95 115.793L83.6726 116.146L72.2957 130.626L60.9187 116.146L60.6414 115.793L60.2244 115.96L43.1316 122.812L40.5183 104.583L40.4548 104.139L40.0105 104.075L21.781 101.462L28.6335 84.3691L28.8005 83.9521L28.448 83.6748L13.9666 72.2979L28.448 60.9209L28.8005 60.6436L28.6335 60.2266L21.781 43.1338L40.0105 40.5205L40.4548 40.457L40.5183 40.0127L43.1316 21.7832L60.2244 28.6357L60.6414 28.8027L60.9187 28.4502L72.2957 13.9688L83.6726 28.4502Z" stroke="#D48B00" stroke-width="1.19794"/>
<path opacity="0.24" d="M94.9629 33.2157L95.1395 33.628L95.5855 33.5747L113.869 31.3796L111.676 49.6643L111.622 50.1099L112.035 50.2862L128.966 57.5283L117.924 72.2654L117.654 72.6249L117.924 72.9843L128.966 87.7212L112.035 94.9629L111.622 95.1393L111.675 95.5853L113.869 113.869L95.5855 111.675L95.1398 111.622L94.9635 112.034L87.7214 128.965L72.9844 117.923L72.6248 117.654L72.2654 117.924L57.5286 128.965L50.2868 112.035L50.1104 111.621L49.6644 111.675L31.3808 113.869L33.5744 95.5852L33.6281 95.1396L33.2153 94.9633L16.2834 87.7209L27.3263 72.9841L27.5956 72.6246L27.3268 72.2654L16.2834 57.5281L33.216 50.2868L33.6283 50.1102L33.5749 49.6642L31.3798 31.3803L49.6645 33.5742L50.1101 33.6279L50.2864 33.2151L57.5288 16.2831L72.2656 27.3261L72.6252 27.5953L72.9843 27.3266L87.7217 16.2832L94.9629 33.2157Z" stroke="#D48B00" stroke-width="1.19794"/>
<path d="M78.8513 56C79.7092 56.0007 80.5554 56.2061 81.3181 56.5986C82.0807 56.9912 82.7391 57.5603 83.238 58.2578L87.2957 63.7393C88.0021 64.7009 88.3698 65.8706 88.3406 67.0635C88.3112 68.2561 87.8871 69.4053 87.1345 70.3311L75.3787 86.7607C75.0011 87.2522 74.5154 87.6503 73.9597 87.9248C73.4042 88.1993 72.7932 88.3434 72.1736 88.3447C71.5644 88.3462 70.9624 88.2092 70.4138 87.9443C69.8651 87.6794 69.3833 87.2926 69.0056 86.8145L57.155 70.2002C56.4348 69.2878 56.0297 68.1668 55.9998 67.0049C55.9699 65.8427 56.3174 64.7013 56.99 63.7529L61.1208 58.2314C61.6211 57.5399 62.2785 56.9768 63.0388 56.5889C63.7992 56.2009 64.6412 55.9992 65.4949 56H78.8513ZM78.6033 68.1289L74.5603 83.2773L84.9968 68.6963C85.1275 68.5205 85.2372 68.33 85.324 68.1289H78.6033ZM59.0496 68.1289C59.1181 68.2827 59.2013 68.4299 59.2986 68.5674L69.782 83.2637L65.7468 68.1289H59.0496ZM68.5339 68.1289L72.1736 81.7646L75.8123 68.1289H68.5339ZM65.4949 58.6953C65.0659 58.6959 64.643 58.799 64.2615 58.9951C63.88 59.1912 63.5506 59.4748 63.3005 59.8232L59.1687 65.3398C59.1475 65.368 59.1424 65.4042 59.1238 65.4336H65.7654L67.6902 58.6953H65.4949ZM70.4939 58.6953L68.5691 65.4336H75.7771L73.8523 58.6953H70.4939ZM76.656 58.6953L78.5808 65.4336H85.1746C85.153 65.4026 85.1473 65.3675 85.1257 65.3379L81.0583 59.8418C80.8088 59.4887 80.4781 59.2004 80.0945 59.001C79.7106 58.8015 79.2839 58.6967 78.8513 58.6953H76.656Z" fill="url(#paint0_linear_751_1406)"/>
<path d="M78.8513 56C79.7092 56.0007 80.5554 56.2061 81.3181 56.5986C82.0807 56.9912 82.7391 57.5603 83.238 58.2578L87.2957 63.7393C88.0021 64.7009 88.3698 65.8706 88.3406 67.0635C88.3112 68.2561 87.8871 69.4053 87.1345 70.3311L75.3787 86.7607C75.0011 87.2522 74.5154 87.6503 73.9597 87.9248C73.4042 88.1993 72.7932 88.3434 72.1736 88.3447C71.5644 88.3462 70.9624 88.2092 70.4138 87.9443C69.8651 87.6794 69.3833 87.2926 69.0056 86.8145L57.155 70.2002C56.4348 69.2878 56.0297 68.1668 55.9998 67.0049C55.9699 65.8427 56.3174 64.7013 56.99 63.7529L61.1208 58.2314C61.6211 57.5399 62.2785 56.9768 63.0388 56.5889C63.7992 56.2009 64.6412 55.9992 65.4949 56H78.8513ZM78.6033 68.1289L74.5603 83.2773L84.9968 68.6963C85.1275 68.5205 85.2372 68.33 85.324 68.1289H78.6033ZM59.0496 68.1289C59.1181 68.2827 59.2013 68.4299 59.2986 68.5674L69.782 83.2637L65.7468 68.1289H59.0496ZM68.5339 68.1289L72.1736 81.7646L75.8123 68.1289H68.5339ZM65.4949 58.6953C65.0659 58.6959 64.643 58.799 64.2615 58.9951C63.88 59.1912 63.5506 59.4748 63.3005 59.8232L59.1687 65.3398C59.1475 65.368 59.1424 65.4042 59.1238 65.4336H65.7654L67.6902 58.6953H65.4949ZM70.4939 58.6953L68.5691 65.4336H75.7771L73.8523 58.6953H70.4939ZM76.656 58.6953L78.5808 65.4336H85.1746C85.153 65.4026 85.1473 65.3675 85.1257 65.3379L81.0583 59.8418C80.8088 59.4887 80.4781 59.2004 80.0945 59.001C79.7106 58.8015 79.2839 58.6967 78.8513 58.6953H76.656Z" stroke="url(#paint1_linear_751_1406)"/>
<defs>
<linearGradient id="paint0_linear_751_1406" x1="57.5312" y1="61.1316" x2="87.5213" y2="70.2997" gradientUnits="userSpaceOnUse">
<stop stop-color="#D48B00"/>
<stop offset="0.31808" stop-color="#6E4800"/>
<stop offset="0.667704" stop-color="#D48B00"/>
<stop offset="0.875589" stop-color="#D48B00"/>
<stop offset="1" stop-color="#6E4800"/>
</linearGradient>
<linearGradient id="paint1_linear_751_1406" x1="55.9978" y1="59.4655" x2="95.0596" y2="77.4544" gradientUnits="userSpaceOnUse">
<stop stop-color="#D48B00"/>
<stop offset="0.322115" stop-color="#6E4800"/>
<stop offset="0.615385" stop-color="#D48B00"/>
<stop offset="0.783654" stop-color="#D48B00"/>
<stop offset="0.995192" stop-color="#6E4800"/>
</linearGradient>
</defs>
</svg>
