<svg width="146" height="146" viewBox="0 0 146 146" fill="none" xmlns="http://www.w3.org/2000/svg">
<path d="M83.6743 28.4502L83.9517 28.8027L84.3687 28.6357L101.461 21.7832L104.075 40.0127L104.138 40.457L104.583 40.5205L122.811 43.1338L115.959 60.2266L115.792 60.6436L116.146 60.9209L130.625 72.2979L116.146 83.6748L115.792 83.9521L115.959 84.3691L122.811 101.462L104.583 104.075L104.138 104.139L104.075 104.583L101.461 122.812L84.3687 115.96L83.9517 115.793L83.6743 116.146L72.2974 130.626L60.9204 116.146L60.6431 115.793L60.2261 115.96L43.1333 122.812L40.52 104.583L40.4565 104.139L40.0122 104.075L21.7827 101.462L28.6353 84.3691L28.8022 83.9521L28.4497 83.6748L13.9683 72.2979L28.4497 60.9209L28.8022 60.6436L28.6353 60.2266L21.7827 43.1338L40.0122 40.5205L40.4565 40.457L40.52 40.0127L43.1333 21.7832L60.2261 28.6357L60.6431 28.8027L60.9204 28.4502L72.2974 13.9688L83.6743 28.4502Z" stroke="#D48B00" stroke-width="1.19794"/>
<path opacity="0.24" d="M94.9626 33.2157L95.1393 33.628L95.5853 33.5747L113.869 31.3796L111.675 49.6643L111.622 50.1099L112.034 50.2862L128.965 57.5283L117.923 72.2654L117.654 72.6249L117.924 72.9843L128.965 87.7212L112.035 94.9629L111.621 95.1393L111.675 95.5853L113.869 113.869L95.5852 111.675L95.1396 111.622L94.9633 112.034L87.7212 128.965L72.9841 117.923L72.6246 117.654L72.2652 117.924L57.5283 128.965L50.2866 112.035L50.1102 111.621L49.6642 111.675L31.3805 113.869L33.5742 95.5852L33.6279 95.1396L33.2151 94.9633L16.2831 87.7209L27.3261 72.9841L27.5953 72.6246L27.3266 72.2654L16.2832 57.5281L33.2157 50.2868L33.628 50.1102L33.5747 49.6642L31.3795 31.3803L49.6643 33.5742L50.1099 33.6279L50.2862 33.2151L57.5286 16.2831L72.2654 27.3261L72.6249 27.5953L72.9841 27.3266L87.7214 16.2832L94.9626 33.2157Z" stroke="#D48B00" stroke-width="1.19794"/>
<mask id="path-3-outside-1_751_1414" maskUnits="userSpaceOnUse" x="53.3062" y="49" width="35" height="46" fill="black">
<rect fill="white" x="53.3062" y="49" width="35" height="46"/>
<path fill-rule="evenodd" clip-rule="evenodd" d="M70.3824 50.1069C69.6292 50.52 69.9443 51.7063 70.8073 51.7063C71.2475 51.7063 71.6761 51.2864 71.6761 50.855C71.6761 50.2095 70.9552 49.7927 70.3824 50.1069ZM65.5507 50.8503C61.3742 52.2326 57.9098 55.2373 55.9896 59.1428C52.9415 65.3426 54.0991 72.6396 58.9227 77.632C59.3425 78.0664 59.6859 78.4441 59.6859 78.4713C59.6859 78.4985 58.4934 80.5996 57.0358 83.1404C55.5783 85.6812 54.3858 87.8514 54.3858 87.9632C54.3858 88.2897 54.6169 88.6406 54.9117 88.7613C55.1587 88.8626 55.4807 88.8128 58.2607 88.2432C59.9523 87.8965 61.353 87.6294 61.3734 87.6496C61.3938 87.6697 61.8394 88.8851 62.3638 90.3506C63.5894 93.7758 63.5689 93.7276 63.8628 93.878C64.2553 94.0788 64.5385 94.0345 64.8443 93.7243C64.9957 93.5706 66.3896 91.2301 67.9418 88.5233C69.4939 85.8163 70.7834 83.6016 70.8073 83.6016C70.8312 83.6016 72.1206 85.8163 73.6728 88.5233C75.2249 91.2301 76.6188 93.5706 76.7703 93.7243C77.076 94.0345 77.3593 94.0788 77.7517 93.878C78.0457 93.7276 78.0252 93.7758 79.2508 90.3506C79.7751 88.8851 80.2208 87.6697 80.2412 87.6496C80.2615 87.6294 81.6622 87.8965 83.3539 88.2432C86.1339 88.8128 86.4559 88.8626 86.7029 88.7613C86.9972 88.6408 87.2287 88.2898 87.2287 87.9644C87.2287 87.8533 86.0362 85.6838 84.5787 83.1432C83.1212 80.6027 81.9287 78.501 81.9287 78.4729C81.9287 78.4448 82.2721 78.0664 82.6918 77.632C89.8715 70.201 88.495 58.2992 79.8 52.6288C78.3086 51.6562 75.5447 50.5073 74.6887 50.504C74.236 50.5023 73.8483 50.8748 73.8483 51.3115C73.8483 51.8238 74.1694 52.0651 75.327 52.4228C78.3092 53.3444 80.9442 55.2479 82.8446 57.8532C83.5303 58.7935 84.5166 60.7406 84.8693 61.8508C86.0267 65.4934 85.7243 69.4751 84.037 72.812C80.8294 79.1554 73.536 82.3183 66.6802 80.339C64.2386 79.634 62.1755 78.4154 60.3375 76.5925C59.1826 75.447 58.3965 74.3757 57.6552 72.9368C55.1539 68.0821 55.5915 62.2815 58.7964 57.8102C59.5442 56.7668 61.145 55.1818 62.2056 54.4347C63.2533 53.6965 65.1967 52.7433 66.3761 52.3891C67.0485 52.1872 67.3512 52.0497 67.5273 51.8663C67.8599 51.5202 67.8541 51.0922 67.5123 50.754C67.1647 50.4101 66.8315 50.4264 65.5507 50.8503ZM69.2633 53.5146C67.2317 53.7681 65.301 54.4838 63.5089 55.648C62.5237 56.2879 60.6672 58.125 60.0202 59.0998C59.0329 60.5877 58.3973 62.0934 58.0245 63.8281C57.745 65.1285 57.745 67.514 58.0245 68.8144C58.5641 71.3249 59.6525 73.3845 61.3801 75.1644C62.6397 76.4622 63.7317 77.2516 65.2472 77.9601C71.3519 80.8141 78.6643 78.5698 82.0496 72.8032C83.3205 70.6384 83.9386 68.139 83.8082 65.692C83.6329 62.4003 82.2848 59.4406 79.918 57.1507C79.0428 56.3039 78.8581 56.153 78.0188 55.5979C76.6296 54.6792 75.0216 54.0225 73.327 53.6818C72.2843 53.4722 70.2682 53.3892 69.2633 53.5146ZM69.3368 55.2323C66.8395 55.5796 64.6007 56.696 62.8122 58.486C61.1641 60.1355 60.2065 61.8999 59.7105 64.2013C59.4972 65.1913 59.5022 67.4676 59.7198 68.466C60.2236 70.7774 61.1633 72.5065 62.8122 74.1563C64.469 75.814 66.2833 76.788 68.6616 77.2963C69.6651 77.5108 71.9605 77.5084 72.976 77.2917C75.3273 76.79 77.0854 75.8472 78.76 74.1902C80.4347 72.5332 81.3875 70.7936 81.8945 68.4671C82.116 67.4512 82.1161 65.1919 81.8948 64.1766C81.385 61.8378 80.4429 60.1173 78.76 58.4523C77.1093 56.819 75.4315 55.9035 73.1532 55.3929C72.2967 55.2009 70.1974 55.1126 69.3368 55.2323ZM70.3864 58.0907C70.2397 58.1605 69.8699 58.8065 69.0611 60.4061C68.4442 61.6263 67.9298 62.6252 67.918 62.6259C67.2948 62.6669 62.9452 63.412 62.8439 63.4951C62.6338 63.6675 62.4678 64.1133 62.5248 64.3519C62.5521 64.466 63.3697 65.3509 64.3468 66.3239L66.1193 68.0891L65.726 70.4768C65.5096 71.7901 65.3556 72.9555 65.3839 73.0666C65.412 73.1777 65.5317 73.3584 65.6498 73.4682C66.048 73.8383 66.3151 73.7572 68.6116 72.5688C69.7694 71.9697 70.761 71.4795 70.8151 71.4795C70.8692 71.4795 71.8573 71.9698 73.0108 72.5691C74.6566 73.4241 75.1792 73.6577 75.4384 73.6545C75.8068 73.6501 76.1465 73.3987 76.2303 73.0686C76.2582 72.9586 76.1026 71.7947 75.8848 70.4821L75.4886 68.0956L77.2275 66.3703C78.1837 65.4213 79.0081 64.5336 79.0593 64.3977C79.1768 64.0852 78.9501 63.5761 78.627 63.4272C78.5076 63.3721 77.4519 63.1868 76.2811 63.0154C75.1103 62.844 74.0433 62.6825 73.91 62.6565C73.6914 62.614 73.5573 62.3914 72.5501 60.3994C71.6619 58.6428 71.3856 58.1682 71.2028 58.0858C70.9236 57.96 70.6578 57.9615 70.3864 58.0907ZM69.961 62.4064C69.479 63.3619 69.0817 64.0431 68.9629 64.1179C68.8543 64.1864 68.0812 64.344 67.245 64.4681C66.4087 64.5922 65.6086 64.7166 65.4671 64.7447C65.2138 64.7947 65.2304 64.8152 66.5213 66.0527C67.4669 66.9593 67.8477 67.3819 67.8862 67.5678C67.9165 67.7141 67.814 68.5611 67.6494 69.5237C67.4899 70.4576 67.3774 71.2216 67.3995 71.2216C67.4216 71.2216 68.1627 70.8541 69.0464 70.4049C69.93 69.9557 70.726 69.5881 70.8153 69.5881C70.9045 69.5881 71.6974 69.9557 72.5772 70.4049C73.457 70.8541 74.1945 71.2216 74.2161 71.2216C74.2375 71.2216 74.1226 70.4389 73.9605 69.4823C73.7983 68.5257 73.6889 67.6516 73.7174 67.5398C73.7457 67.428 74.3568 66.7706 75.0755 66.079C76.2736 64.9259 76.3653 64.8164 76.1795 64.7596C76.0681 64.7257 75.2732 64.5959 74.413 64.4713C73.5529 64.3466 72.7602 64.1882 72.6517 64.1191C72.5335 64.044 72.1327 63.3562 71.6535 62.4064C71.2132 61.5334 70.8324 60.8192 70.8073 60.8192C70.7822 60.8192 70.4013 61.5334 69.961 62.4064ZM60.8775 79.9261C59.9658 81.4754 56.9866 86.7179 57.0085 86.7345C57.0235 86.746 58.1111 86.5306 59.4252 86.2558C60.7394 85.981 61.8995 85.755 62.0034 85.7534C62.1073 85.7518 62.3078 85.8468 62.4492 85.9645C62.6644 86.1437 62.8455 86.5695 63.5637 88.5854C64.0353 89.9093 64.4494 90.9833 64.4839 90.972C64.5516 90.9501 69.3467 82.6408 69.3094 82.6102C69.2969 82.6001 68.9544 82.5458 68.5482 82.4895C66.1975 82.1641 63.7494 81.2662 61.8641 80.0379C61.4613 79.7754 61.1229 79.5607 61.1121 79.5607C61.1013 79.5607 60.9958 79.7252 60.8775 79.9261ZM79.6697 80.0907C77.6668 81.3448 75.4082 82.1653 73.0663 82.4895C72.6601 82.5458 72.3176 82.6001 72.3052 82.6102C72.2678 82.6408 77.063 90.9501 77.1307 90.972C77.1652 90.9833 77.5793 89.9093 78.0509 88.5854C78.7691 86.5695 78.9501 86.1437 79.1654 85.9645C79.3067 85.8468 79.5073 85.7518 79.6112 85.7534C79.715 85.7549 80.885 85.9798 82.2111 86.2529C83.5371 86.526 84.6222 86.7368 84.6222 86.7213C84.6222 86.6761 80.6145 79.6957 80.5518 79.6317C80.5206 79.5999 80.1236 79.8064 79.6697 80.0907Z"/>
</mask>
<path fill-rule="evenodd" clip-rule="evenodd" d="M70.3824 50.1069C69.6292 50.52 69.9443 51.7063 70.8073 51.7063C71.2475 51.7063 71.6761 51.2864 71.6761 50.855C71.6761 50.2095 70.9552 49.7927 70.3824 50.1069ZM65.5507 50.8503C61.3742 52.2326 57.9098 55.2373 55.9896 59.1428C52.9415 65.3426 54.0991 72.6396 58.9227 77.632C59.3425 78.0664 59.6859 78.4441 59.6859 78.4713C59.6859 78.4985 58.4934 80.5996 57.0358 83.1404C55.5783 85.6812 54.3858 87.8514 54.3858 87.9632C54.3858 88.2897 54.6169 88.6406 54.9117 88.7613C55.1587 88.8626 55.4807 88.8128 58.2607 88.2432C59.9523 87.8965 61.353 87.6294 61.3734 87.6496C61.3938 87.6697 61.8394 88.8851 62.3638 90.3506C63.5894 93.7758 63.5689 93.7276 63.8628 93.878C64.2553 94.0788 64.5385 94.0345 64.8443 93.7243C64.9957 93.5706 66.3896 91.2301 67.9418 88.5233C69.4939 85.8163 70.7834 83.6016 70.8073 83.6016C70.8312 83.6016 72.1206 85.8163 73.6728 88.5233C75.2249 91.2301 76.6188 93.5706 76.7703 93.7243C77.076 94.0345 77.3593 94.0788 77.7517 93.878C78.0457 93.7276 78.0252 93.7758 79.2508 90.3506C79.7751 88.8851 80.2208 87.6697 80.2412 87.6496C80.2615 87.6294 81.6622 87.8965 83.3539 88.2432C86.1339 88.8128 86.4559 88.8626 86.7029 88.7613C86.9972 88.6408 87.2287 88.2898 87.2287 87.9644C87.2287 87.8533 86.0362 85.6838 84.5787 83.1432C83.1212 80.6027 81.9287 78.501 81.9287 78.4729C81.9287 78.4448 82.2721 78.0664 82.6918 77.632C89.8715 70.201 88.495 58.2992 79.8 52.6288C78.3086 51.6562 75.5447 50.5073 74.6887 50.504C74.236 50.5023 73.8483 50.8748 73.8483 51.3115C73.8483 51.8238 74.1694 52.0651 75.327 52.4228C78.3092 53.3444 80.9442 55.2479 82.8446 57.8532C83.5303 58.7935 84.5166 60.7406 84.8693 61.8508C86.0267 65.4934 85.7243 69.4751 84.037 72.812C80.8294 79.1554 73.536 82.3183 66.6802 80.339C64.2386 79.634 62.1755 78.4154 60.3375 76.5925C59.1826 75.447 58.3965 74.3757 57.6552 72.9368C55.1539 68.0821 55.5915 62.2815 58.7964 57.8102C59.5442 56.7668 61.145 55.1818 62.2056 54.4347C63.2533 53.6965 65.1967 52.7433 66.3761 52.3891C67.0485 52.1872 67.3512 52.0497 67.5273 51.8663C67.8599 51.5202 67.8541 51.0922 67.5123 50.754C67.1647 50.4101 66.8315 50.4264 65.5507 50.8503ZM69.2633 53.5146C67.2317 53.7681 65.301 54.4838 63.5089 55.648C62.5237 56.2879 60.6672 58.125 60.0202 59.0998C59.0329 60.5877 58.3973 62.0934 58.0245 63.8281C57.745 65.1285 57.745 67.514 58.0245 68.8144C58.5641 71.3249 59.6525 73.3845 61.3801 75.1644C62.6397 76.4622 63.7317 77.2516 65.2472 77.9601C71.3519 80.8141 78.6643 78.5698 82.0496 72.8032C83.3205 70.6384 83.9386 68.139 83.8082 65.692C83.6329 62.4003 82.2848 59.4406 79.918 57.1507C79.0428 56.3039 78.8581 56.153 78.0188 55.5979C76.6296 54.6792 75.0216 54.0225 73.327 53.6818C72.2843 53.4722 70.2682 53.3892 69.2633 53.5146ZM69.3368 55.2323C66.8395 55.5796 64.6007 56.696 62.8122 58.486C61.1641 60.1355 60.2065 61.8999 59.7105 64.2013C59.4972 65.1913 59.5022 67.4676 59.7198 68.466C60.2236 70.7774 61.1633 72.5065 62.8122 74.1563C64.469 75.814 66.2833 76.788 68.6616 77.2963C69.6651 77.5108 71.9605 77.5084 72.976 77.2917C75.3273 76.79 77.0854 75.8472 78.76 74.1902C80.4347 72.5332 81.3875 70.7936 81.8945 68.4671C82.116 67.4512 82.1161 65.1919 81.8948 64.1766C81.385 61.8378 80.4429 60.1173 78.76 58.4523C77.1093 56.819 75.4315 55.9035 73.1532 55.3929C72.2967 55.2009 70.1974 55.1126 69.3368 55.2323ZM70.3864 58.0907C70.2397 58.1605 69.8699 58.8065 69.0611 60.4061C68.4442 61.6263 67.9298 62.6252 67.918 62.6259C67.2948 62.6669 62.9452 63.412 62.8439 63.4951C62.6338 63.6675 62.4678 64.1133 62.5248 64.3519C62.5521 64.466 63.3697 65.3509 64.3468 66.3239L66.1193 68.0891L65.726 70.4768C65.5096 71.7901 65.3556 72.9555 65.3839 73.0666C65.412 73.1777 65.5317 73.3584 65.6498 73.4682C66.048 73.8383 66.3151 73.7572 68.6116 72.5688C69.7694 71.9697 70.761 71.4795 70.8151 71.4795C70.8692 71.4795 71.8573 71.9698 73.0108 72.5691C74.6566 73.4241 75.1792 73.6577 75.4384 73.6545C75.8068 73.6501 76.1465 73.3987 76.2303 73.0686C76.2582 72.9586 76.1026 71.7947 75.8848 70.4821L75.4886 68.0956L77.2275 66.3703C78.1837 65.4213 79.0081 64.5336 79.0593 64.3977C79.1768 64.0852 78.9501 63.5761 78.627 63.4272C78.5076 63.3721 77.4519 63.1868 76.2811 63.0154C75.1103 62.844 74.0433 62.6825 73.91 62.6565C73.6914 62.614 73.5573 62.3914 72.5501 60.3994C71.6619 58.6428 71.3856 58.1682 71.2028 58.0858C70.9236 57.96 70.6578 57.9615 70.3864 58.0907ZM69.961 62.4064C69.479 63.3619 69.0817 64.0431 68.9629 64.1179C68.8543 64.1864 68.0812 64.344 67.245 64.4681C66.4087 64.5922 65.6086 64.7166 65.4671 64.7447C65.2138 64.7947 65.2304 64.8152 66.5213 66.0527C67.4669 66.9593 67.8477 67.3819 67.8862 67.5678C67.9165 67.7141 67.814 68.5611 67.6494 69.5237C67.4899 70.4576 67.3774 71.2216 67.3995 71.2216C67.4216 71.2216 68.1627 70.8541 69.0464 70.4049C69.93 69.9557 70.726 69.5881 70.8153 69.5881C70.9045 69.5881 71.6974 69.9557 72.5772 70.4049C73.457 70.8541 74.1945 71.2216 74.2161 71.2216C74.2375 71.2216 74.1226 70.4389 73.9605 69.4823C73.7983 68.5257 73.6889 67.6516 73.7174 67.5398C73.7457 67.428 74.3568 66.7706 75.0755 66.079C76.2736 64.9259 76.3653 64.8164 76.1795 64.7596C76.0681 64.7257 75.2732 64.5959 74.413 64.4713C73.5529 64.3466 72.7602 64.1882 72.6517 64.1191C72.5335 64.044 72.1327 63.3562 71.6535 62.4064C71.2132 61.5334 70.8324 60.8192 70.8073 60.8192C70.7822 60.8192 70.4013 61.5334 69.961 62.4064ZM60.8775 79.9261C59.9658 81.4754 56.9866 86.7179 57.0085 86.7345C57.0235 86.746 58.1111 86.5306 59.4252 86.2558C60.7394 85.981 61.8995 85.755 62.0034 85.7534C62.1073 85.7518 62.3078 85.8468 62.4492 85.9645C62.6644 86.1437 62.8455 86.5695 63.5637 88.5854C64.0353 89.9093 64.4494 90.9833 64.4839 90.972C64.5516 90.9501 69.3467 82.6408 69.3094 82.6102C69.2969 82.6001 68.9544 82.5458 68.5482 82.4895C66.1975 82.1641 63.7494 81.2662 61.8641 80.0379C61.4613 79.7754 61.1229 79.5607 61.1121 79.5607C61.1013 79.5607 60.9958 79.7252 60.8775 79.9261ZM79.6697 80.0907C77.6668 81.3448 75.4082 82.1653 73.0663 82.4895C72.6601 82.5458 72.3176 82.6001 72.3052 82.6102C72.2678 82.6408 77.063 90.9501 77.1307 90.972C77.1652 90.9833 77.5793 89.9093 78.0509 88.5854C78.7691 86.5695 78.9501 86.1437 79.1654 85.9645C79.3067 85.8468 79.5073 85.7518 79.6112 85.7534C79.715 85.7549 80.885 85.9798 82.2111 86.2529C83.5371 86.526 84.6222 86.7368 84.6222 86.7213C84.6222 86.6761 80.6145 79.6957 80.5518 79.6317C80.5206 79.5999 80.1236 79.8064 79.6697 80.0907Z" fill="url(#paint0_linear_751_1414)"/>
<path fill-rule="evenodd" clip-rule="evenodd" d="M70.3824 50.1069C69.6292 50.52 69.9443 51.7063 70.8073 51.7063C71.2475 51.7063 71.6761 51.2864 71.6761 50.855C71.6761 50.2095 70.9552 49.7927 70.3824 50.1069ZM65.5507 50.8503C61.3742 52.2326 57.9098 55.2373 55.9896 59.1428C52.9415 65.3426 54.0991 72.6396 58.9227 77.632C59.3425 78.0664 59.6859 78.4441 59.6859 78.4713C59.6859 78.4985 58.4934 80.5996 57.0358 83.1404C55.5783 85.6812 54.3858 87.8514 54.3858 87.9632C54.3858 88.2897 54.6169 88.6406 54.9117 88.7613C55.1587 88.8626 55.4807 88.8128 58.2607 88.2432C59.9523 87.8965 61.353 87.6294 61.3734 87.6496C61.3938 87.6697 61.8394 88.8851 62.3638 90.3506C63.5894 93.7758 63.5689 93.7276 63.8628 93.878C64.2553 94.0788 64.5385 94.0345 64.8443 93.7243C64.9957 93.5706 66.3896 91.2301 67.9418 88.5233C69.4939 85.8163 70.7834 83.6016 70.8073 83.6016C70.8312 83.6016 72.1206 85.8163 73.6728 88.5233C75.2249 91.2301 76.6188 93.5706 76.7703 93.7243C77.076 94.0345 77.3593 94.0788 77.7517 93.878C78.0457 93.7276 78.0252 93.7758 79.2508 90.3506C79.7751 88.8851 80.2208 87.6697 80.2412 87.6496C80.2615 87.6294 81.6622 87.8965 83.3539 88.2432C86.1339 88.8128 86.4559 88.8626 86.7029 88.7613C86.9972 88.6408 87.2287 88.2898 87.2287 87.9644C87.2287 87.8533 86.0362 85.6838 84.5787 83.1432C83.1212 80.6027 81.9287 78.501 81.9287 78.4729C81.9287 78.4448 82.2721 78.0664 82.6918 77.632C89.8715 70.201 88.495 58.2992 79.8 52.6288C78.3086 51.6562 75.5447 50.5073 74.6887 50.504C74.236 50.5023 73.8483 50.8748 73.8483 51.3115C73.8483 51.8238 74.1694 52.0651 75.327 52.4228C78.3092 53.3444 80.9442 55.2479 82.8446 57.8532C83.5303 58.7935 84.5166 60.7406 84.8693 61.8508C86.0267 65.4934 85.7243 69.4751 84.037 72.812C80.8294 79.1554 73.536 82.3183 66.6802 80.339C64.2386 79.634 62.1755 78.4154 60.3375 76.5925C59.1826 75.447 58.3965 74.3757 57.6552 72.9368C55.1539 68.0821 55.5915 62.2815 58.7964 57.8102C59.5442 56.7668 61.145 55.1818 62.2056 54.4347C63.2533 53.6965 65.1967 52.7433 66.3761 52.3891C67.0485 52.1872 67.3512 52.0497 67.5273 51.8663C67.8599 51.5202 67.8541 51.0922 67.5123 50.754C67.1647 50.4101 66.8315 50.4264 65.5507 50.8503ZM69.2633 53.5146C67.2317 53.7681 65.301 54.4838 63.5089 55.648C62.5237 56.2879 60.6672 58.125 60.0202 59.0998C59.0329 60.5877 58.3973 62.0934 58.0245 63.8281C57.745 65.1285 57.745 67.514 58.0245 68.8144C58.5641 71.3249 59.6525 73.3845 61.3801 75.1644C62.6397 76.4622 63.7317 77.2516 65.2472 77.9601C71.3519 80.8141 78.6643 78.5698 82.0496 72.8032C83.3205 70.6384 83.9386 68.139 83.8082 65.692C83.6329 62.4003 82.2848 59.4406 79.918 57.1507C79.0428 56.3039 78.8581 56.153 78.0188 55.5979C76.6296 54.6792 75.0216 54.0225 73.327 53.6818C72.2843 53.4722 70.2682 53.3892 69.2633 53.5146ZM69.3368 55.2323C66.8395 55.5796 64.6007 56.696 62.8122 58.486C61.1641 60.1355 60.2065 61.8999 59.7105 64.2013C59.4972 65.1913 59.5022 67.4676 59.7198 68.466C60.2236 70.7774 61.1633 72.5065 62.8122 74.1563C64.469 75.814 66.2833 76.788 68.6616 77.2963C69.6651 77.5108 71.9605 77.5084 72.976 77.2917C75.3273 76.79 77.0854 75.8472 78.76 74.1902C80.4347 72.5332 81.3875 70.7936 81.8945 68.4671C82.116 67.4512 82.1161 65.1919 81.8948 64.1766C81.385 61.8378 80.4429 60.1173 78.76 58.4523C77.1093 56.819 75.4315 55.9035 73.1532 55.3929C72.2967 55.2009 70.1974 55.1126 69.3368 55.2323ZM70.3864 58.0907C70.2397 58.1605 69.8699 58.8065 69.0611 60.4061C68.4442 61.6263 67.9298 62.6252 67.918 62.6259C67.2948 62.6669 62.9452 63.412 62.8439 63.4951C62.6338 63.6675 62.4678 64.1133 62.5248 64.3519C62.5521 64.466 63.3697 65.3509 64.3468 66.3239L66.1193 68.0891L65.726 70.4768C65.5096 71.7901 65.3556 72.9555 65.3839 73.0666C65.412 73.1777 65.5317 73.3584 65.6498 73.4682C66.048 73.8383 66.3151 73.7572 68.6116 72.5688C69.7694 71.9697 70.761 71.4795 70.8151 71.4795C70.8692 71.4795 71.8573 71.9698 73.0108 72.5691C74.6566 73.4241 75.1792 73.6577 75.4384 73.6545C75.8068 73.6501 76.1465 73.3987 76.2303 73.0686C76.2582 72.9586 76.1026 71.7947 75.8848 70.4821L75.4886 68.0956L77.2275 66.3703C78.1837 65.4213 79.0081 64.5336 79.0593 64.3977C79.1768 64.0852 78.9501 63.5761 78.627 63.4272C78.5076 63.3721 77.4519 63.1868 76.2811 63.0154C75.1103 62.844 74.0433 62.6825 73.91 62.6565C73.6914 62.614 73.5573 62.3914 72.5501 60.3994C71.6619 58.6428 71.3856 58.1682 71.2028 58.0858C70.9236 57.96 70.6578 57.9615 70.3864 58.0907ZM69.961 62.4064C69.479 63.3619 69.0817 64.0431 68.9629 64.1179C68.8543 64.1864 68.0812 64.344 67.245 64.4681C66.4087 64.5922 65.6086 64.7166 65.4671 64.7447C65.2138 64.7947 65.2304 64.8152 66.5213 66.0527C67.4669 66.9593 67.8477 67.3819 67.8862 67.5678C67.9165 67.7141 67.814 68.5611 67.6494 69.5237C67.4899 70.4576 67.3774 71.2216 67.3995 71.2216C67.4216 71.2216 68.1627 70.8541 69.0464 70.4049C69.93 69.9557 70.726 69.5881 70.8153 69.5881C70.9045 69.5881 71.6974 69.9557 72.5772 70.4049C73.457 70.8541 74.1945 71.2216 74.2161 71.2216C74.2375 71.2216 74.1226 70.4389 73.9605 69.4823C73.7983 68.5257 73.6889 67.6516 73.7174 67.5398C73.7457 67.428 74.3568 66.7706 75.0755 66.079C76.2736 64.9259 76.3653 64.8164 76.1795 64.7596C76.0681 64.7257 75.2732 64.5959 74.413 64.4713C73.5529 64.3466 72.7602 64.1882 72.6517 64.1191C72.5335 64.044 72.1327 63.3562 71.6535 62.4064C71.2132 61.5334 70.8324 60.8192 70.8073 60.8192C70.7822 60.8192 70.4013 61.5334 69.961 62.4064ZM60.8775 79.9261C59.9658 81.4754 56.9866 86.7179 57.0085 86.7345C57.0235 86.746 58.1111 86.5306 59.4252 86.2558C60.7394 85.981 61.8995 85.755 62.0034 85.7534C62.1073 85.7518 62.3078 85.8468 62.4492 85.9645C62.6644 86.1437 62.8455 86.5695 63.5637 88.5854C64.0353 89.9093 64.4494 90.9833 64.4839 90.972C64.5516 90.9501 69.3467 82.6408 69.3094 82.6102C69.2969 82.6001 68.9544 82.5458 68.5482 82.4895C66.1975 82.1641 63.7494 81.2662 61.8641 80.0379C61.4613 79.7754 61.1229 79.5607 61.1121 79.5607C61.1013 79.5607 60.9958 79.7252 60.8775 79.9261ZM79.6697 80.0907C77.6668 81.3448 75.4082 82.1653 73.0663 82.4895C72.6601 82.5458 72.3176 82.6001 72.3052 82.6102C72.2678 82.6408 77.063 90.9501 77.1307 90.972C77.1652 90.9833 77.5793 89.9093 78.0509 88.5854C78.7691 86.5695 78.9501 86.1437 79.1654 85.9645C79.3067 85.8468 79.5073 85.7518 79.6112 85.7534C79.715 85.7549 80.885 85.9798 82.2111 86.2529C83.5371 86.526 84.6222 86.7368 84.6222 86.7213C84.6222 86.6761 80.6145 79.6957 80.5518 79.6317C80.5206 79.5999 80.1236 79.8064 79.6697 80.0907Z" stroke="url(#paint1_linear_751_1414)" stroke-width="0.8" mask="url(#path-3-outside-1_751_1414)"/>
<defs>
<linearGradient id="paint0_linear_751_1414" x1="55.8706" y1="56.9808" x2="87.6573" y2="64.2688" gradientUnits="userSpaceOnUse">
<stop stop-color="#D48B00"/>
<stop offset="0.31808" stop-color="#6E4800"/>
<stop offset="0.667704" stop-color="#D48B00"/>
<stop offset="0.875589" stop-color="#D48B00"/>
<stop offset="1" stop-color="#6E4800"/>
</linearGradient>
<linearGradient id="paint1_linear_751_1414" x1="54.3062" y1="54.7143" x2="97.4635" y2="69.6206" gradientUnits="userSpaceOnUse">
<stop stop-color="#D48B00"/>
<stop offset="0.322115" stop-color="#6E4800"/>
<stop offset="0.615385" stop-color="#D48B00"/>
<stop offset="0.783654" stop-color="#D48B00"/>
<stop offset="0.995192" stop-color="#6E4800"/>
</linearGradient>
</defs>
</svg>
